%TF.GenerationSoftware,KiCad,Pcbnew,7.0.7*%
%TF.CreationDate,2023-09-05T11:40:51+02:00*%
%TF.ProjectId,tle5010-11_pcb,746c6535-3031-4302-9d31-315f7063622e,rev?*%
%TF.SameCoordinates,Original*%
%TF.FileFunction,Copper,L1,Top*%
%TF.FilePolarity,Positive*%
%FSLAX46Y46*%
G04 Gerber Fmt 4.6, Leading zero omitted, Abs format (unit mm)*
G04 Created by KiCad (PCBNEW 7.0.7) date 2023-09-05 11:40:51*
%MOMM*%
%LPD*%
G01*
G04 APERTURE LIST*
G04 Aperture macros list*
%AMRoundRect*
0 Rectangle with rounded corners*
0 $1 Rounding radius*
0 $2 $3 $4 $5 $6 $7 $8 $9 X,Y pos of 4 corners*
0 Add a 4 corners polygon primitive as box body*
4,1,4,$2,$3,$4,$5,$6,$7,$8,$9,$2,$3,0*
0 Add four circle primitives for the rounded corners*
1,1,$1+$1,$2,$3*
1,1,$1+$1,$4,$5*
1,1,$1+$1,$6,$7*
1,1,$1+$1,$8,$9*
0 Add four rect primitives between the rounded corners*
20,1,$1+$1,$2,$3,$4,$5,0*
20,1,$1+$1,$4,$5,$6,$7,0*
20,1,$1+$1,$6,$7,$8,$9,0*
20,1,$1+$1,$8,$9,$2,$3,0*%
G04 Aperture macros list end*
%TA.AperFunction,SMDPad,CuDef*%
%ADD10RoundRect,0.250000X-0.475000X0.337500X-0.475000X-0.337500X0.475000X-0.337500X0.475000X0.337500X0*%
%TD*%
%TA.AperFunction,SMDPad,CuDef*%
%ADD11RoundRect,0.250000X-0.450000X0.350000X-0.450000X-0.350000X0.450000X-0.350000X0.450000X0.350000X0*%
%TD*%
%TA.AperFunction,SMDPad,CuDef*%
%ADD12RoundRect,0.150000X-0.825000X-0.150000X0.825000X-0.150000X0.825000X0.150000X-0.825000X0.150000X0*%
%TD*%
%TA.AperFunction,ComponentPad*%
%ADD13R,1.700000X1.700000*%
%TD*%
%TA.AperFunction,ComponentPad*%
%ADD14O,1.700000X1.700000*%
%TD*%
%TA.AperFunction,ViaPad*%
%ADD15C,0.800000*%
%TD*%
%TA.AperFunction,Conductor*%
%ADD16C,0.500000*%
%TD*%
G04 APERTURE END LIST*
D10*
%TO.P,C2,1*%
%TO.N,VDD*%
X61000000Y-34962500D03*
%TO.P,C2,2*%
%TO.N,GND*%
X61000000Y-37037500D03*
%TD*%
D11*
%TO.P,R5,1*%
%TO.N,DATA*%
X49000000Y-35000000D03*
%TO.P,R5,2*%
%TO.N,VDD*%
X49000000Y-37000000D03*
%TD*%
D10*
%TO.P,C1,1*%
%TO.N,VDD*%
X57000000Y-34962500D03*
%TO.P,C1,2*%
%TO.N,GND*%
X57000000Y-37037500D03*
%TD*%
D11*
%TO.P,R6,1*%
%TO.N,CS*%
X53000000Y-35000000D03*
%TO.P,R6,2*%
%TO.N,VDD*%
X53000000Y-37000000D03*
%TD*%
D12*
%TO.P,U1,1,CLK*%
%TO.N,CLK*%
X52525000Y-28095000D03*
%TO.P,U1,2,SCK*%
%TO.N,SCK*%
X52525000Y-29365000D03*
%TO.P,U1,3,CS*%
%TO.N,CS*%
X52525000Y-30635000D03*
%TO.P,U1,4,Data*%
%TO.N,DATA*%
X52525000Y-31905000D03*
%TO.P,U1,5,TST1*%
%TO.N,GND*%
X57475000Y-31905000D03*
%TO.P,U1,6,Vdd*%
%TO.N,VDD*%
X57475000Y-30635000D03*
%TO.P,U1,7,GND*%
%TO.N,GND*%
X57475000Y-29365000D03*
%TO.P,U1,8,TST2*%
X57475000Y-28095000D03*
%TD*%
D13*
%TO.P,J1,1,Pin_1*%
%TO.N,GND*%
X32000000Y-36350000D03*
D14*
%TO.P,J1,2,Pin_2*%
%TO.N,VDD*%
X32000000Y-33810000D03*
%TO.P,J1,3,Pin_3*%
%TO.N,Net-(J1-Pin_3)*%
X32000000Y-31270000D03*
%TO.P,J1,4,Pin_4*%
%TO.N,Net-(J1-Pin_4)*%
X32000000Y-28730000D03*
%TO.P,J1,5,Pin_5*%
%TO.N,Net-(J1-Pin_5)*%
X32000000Y-26190000D03*
%TO.P,J1,6,Pin_6*%
%TO.N,Net-(J1-Pin_6)*%
X32000000Y-23650000D03*
%TD*%
D15*
%TO.N,DATA*%
X47400000Y-35000000D03*
%TO.N,CS*%
X47500000Y-32000000D03*
%TO.N,SCK*%
X47500000Y-28000000D03*
%TO.N,CLK*%
X47500000Y-24500000D03*
%TD*%
D16*
%TO.N,VDD*%
X56037500Y-34962500D02*
X57000000Y-34962500D01*
X57475000Y-30635000D02*
X59145000Y-30635000D01*
X59887500Y-34962500D02*
X61000000Y-33850000D01*
X61000000Y-33850000D02*
X61000000Y-34962500D01*
X61000000Y-32490000D02*
X61000000Y-33850000D01*
X59145000Y-30635000D02*
X61000000Y-32490000D01*
X54000000Y-37000000D02*
X56037500Y-34962500D01*
X34810000Y-33810000D02*
X38000000Y-37000000D01*
X49000000Y-37000000D02*
X53000000Y-37000000D01*
X53000000Y-37000000D02*
X54000000Y-37000000D01*
X38000000Y-37000000D02*
X49000000Y-37000000D01*
X57000000Y-34962500D02*
X59887500Y-34962500D01*
X32000000Y-33810000D02*
X34810000Y-33810000D01*
%TO.N,DATA*%
X50975000Y-31905000D02*
X49000000Y-33880000D01*
X52525000Y-31905000D02*
X50975000Y-31905000D01*
X47400000Y-35000000D02*
X47880000Y-35000000D01*
X49000000Y-33880000D02*
X49000000Y-35000000D01*
X47880000Y-35000000D02*
X49000000Y-33880000D01*
%TO.N,CS*%
X53000000Y-34300000D02*
X53000000Y-35000000D01*
X54590000Y-32710000D02*
X53000000Y-34300000D01*
X48250000Y-32000000D02*
X47500000Y-32000000D01*
X52525000Y-30635000D02*
X49615000Y-30635000D01*
X54590000Y-31180000D02*
X54590000Y-32710000D01*
X54045000Y-30635000D02*
X54590000Y-31180000D01*
X49615000Y-30635000D02*
X48250000Y-32000000D01*
X52525000Y-30635000D02*
X54045000Y-30635000D01*
%TO.N,SCK*%
X48000000Y-28000000D02*
X47500000Y-28000000D01*
X49365000Y-29365000D02*
X48000000Y-28000000D01*
X52525000Y-29365000D02*
X49365000Y-29365000D01*
%TO.N,CLK*%
X51595000Y-28095000D02*
X52525000Y-28095000D01*
X47500000Y-24500000D02*
X48000000Y-24500000D01*
X48000000Y-24500000D02*
X51595000Y-28095000D01*
%TD*%
%TA.AperFunction,Conductor*%
%TO.N,GND*%
G36*
X78002019Y-20000633D02*
G01*
X78037198Y-20002938D01*
X78083708Y-20005986D01*
X78265459Y-20018985D01*
X78273100Y-20020015D01*
X78366738Y-20038641D01*
X78389420Y-20043153D01*
X78415023Y-20048722D01*
X78533666Y-20074531D01*
X78540383Y-20076395D01*
X78659437Y-20116809D01*
X78756671Y-20153076D01*
X78791741Y-20166157D01*
X78797499Y-20168643D01*
X78912952Y-20225578D01*
X79034906Y-20292170D01*
X79039634Y-20295032D01*
X79096571Y-20333076D01*
X79146649Y-20366537D01*
X79149358Y-20368454D01*
X79258652Y-20450271D01*
X79262345Y-20453265D01*
X79359502Y-20538469D01*
X79362448Y-20541228D01*
X79458769Y-20637549D01*
X79461526Y-20640492D01*
X79546729Y-20737648D01*
X79549732Y-20741353D01*
X79601564Y-20810592D01*
X79631543Y-20850639D01*
X79633461Y-20853349D01*
X79704962Y-20960357D01*
X79707828Y-20965091D01*
X79774421Y-21087047D01*
X79831355Y-21202499D01*
X79833841Y-21208257D01*
X79870212Y-21305768D01*
X79883196Y-21340578D01*
X79888289Y-21355581D01*
X79923597Y-21459596D01*
X79925472Y-21466352D01*
X79956846Y-21610579D01*
X79979980Y-21726880D01*
X79981015Y-21734560D01*
X79994017Y-21916350D01*
X79999367Y-21997966D01*
X79999500Y-22002023D01*
X79999500Y-37997975D01*
X79999367Y-38002032D01*
X79994017Y-38083648D01*
X79981015Y-38265438D01*
X79979980Y-38273118D01*
X79956846Y-38389420D01*
X79925472Y-38533646D01*
X79923597Y-38540401D01*
X79889297Y-38641448D01*
X79883208Y-38659388D01*
X79883195Y-38659425D01*
X79833841Y-38791741D01*
X79831355Y-38797499D01*
X79774421Y-38912952D01*
X79707828Y-39034907D01*
X79704961Y-39039641D01*
X79633461Y-39146649D01*
X79631543Y-39149359D01*
X79549744Y-39258631D01*
X79546723Y-39262357D01*
X79461529Y-39359502D01*
X79458755Y-39362464D01*
X79362464Y-39458755D01*
X79359502Y-39461529D01*
X79262357Y-39546723D01*
X79258631Y-39549744D01*
X79149359Y-39631543D01*
X79146649Y-39633461D01*
X79039641Y-39704961D01*
X79034907Y-39707828D01*
X78912952Y-39774421D01*
X78797499Y-39831355D01*
X78791741Y-39833841D01*
X78670956Y-39878893D01*
X78659418Y-39883197D01*
X78540401Y-39923597D01*
X78533646Y-39925472D01*
X78389420Y-39956846D01*
X78273118Y-39979980D01*
X78265438Y-39981015D01*
X78083648Y-39994017D01*
X78032582Y-39997364D01*
X78002025Y-39999367D01*
X77997976Y-39999500D01*
X32002024Y-39999500D01*
X31997974Y-39999367D01*
X31959954Y-39996875D01*
X31916350Y-39994017D01*
X31734560Y-39981015D01*
X31726880Y-39979980D01*
X31610579Y-39956846D01*
X31466352Y-39925472D01*
X31459596Y-39923597D01*
X31427881Y-39912831D01*
X31340578Y-39883196D01*
X31305768Y-39870212D01*
X31208257Y-39833841D01*
X31202499Y-39831355D01*
X31087047Y-39774421D01*
X30965091Y-39707828D01*
X30960357Y-39704962D01*
X30853349Y-39633461D01*
X30850639Y-39631543D01*
X30810592Y-39601564D01*
X30741353Y-39549732D01*
X30737648Y-39546729D01*
X30640492Y-39461526D01*
X30637549Y-39458769D01*
X30541228Y-39362448D01*
X30538469Y-39359502D01*
X30505450Y-39321851D01*
X30453265Y-39262345D01*
X30450271Y-39258652D01*
X30368454Y-39149358D01*
X30366537Y-39146649D01*
X30295036Y-39039641D01*
X30292170Y-39034906D01*
X30225578Y-38912952D01*
X30168643Y-38797499D01*
X30166157Y-38791741D01*
X30153076Y-38756671D01*
X30116805Y-38659425D01*
X30076395Y-38540383D01*
X30074531Y-38533666D01*
X30043153Y-38389420D01*
X30038641Y-38366738D01*
X30020015Y-38273100D01*
X30018985Y-38265459D01*
X30005988Y-38083743D01*
X30000631Y-38002007D01*
X30000500Y-37997994D01*
X30000500Y-33810000D01*
X30644341Y-33810000D01*
X30664936Y-34045403D01*
X30664938Y-34045413D01*
X30726094Y-34273655D01*
X30726096Y-34273659D01*
X30726097Y-34273663D01*
X30803436Y-34439517D01*
X30825965Y-34487830D01*
X30825967Y-34487834D01*
X30961501Y-34681395D01*
X30961506Y-34681402D01*
X31083818Y-34803714D01*
X31117303Y-34865037D01*
X31112319Y-34934729D01*
X31070447Y-34990662D01*
X31039471Y-35007577D01*
X30907912Y-35056646D01*
X30907906Y-35056649D01*
X30792812Y-35142809D01*
X30792809Y-35142812D01*
X30706649Y-35257906D01*
X30706645Y-35257913D01*
X30656403Y-35392620D01*
X30656401Y-35392627D01*
X30650000Y-35452155D01*
X30650000Y-36100000D01*
X31386653Y-36100000D01*
X31453692Y-36119685D01*
X31499447Y-36172489D01*
X31509391Y-36241647D01*
X31505631Y-36258933D01*
X31500000Y-36278111D01*
X31500000Y-36421888D01*
X31505631Y-36441067D01*
X31505630Y-36510936D01*
X31467855Y-36569714D01*
X31404299Y-36598738D01*
X31386653Y-36600000D01*
X30650000Y-36600000D01*
X30650000Y-37247844D01*
X30656401Y-37307372D01*
X30656403Y-37307379D01*
X30706645Y-37442086D01*
X30706649Y-37442093D01*
X30792809Y-37557187D01*
X30792812Y-37557190D01*
X30907906Y-37643350D01*
X30907913Y-37643354D01*
X31042620Y-37693596D01*
X31042627Y-37693598D01*
X31102155Y-37699999D01*
X31102172Y-37700000D01*
X31750000Y-37700000D01*
X31750000Y-36962301D01*
X31769685Y-36895262D01*
X31822489Y-36849507D01*
X31891647Y-36839563D01*
X31964237Y-36850000D01*
X31964238Y-36850000D01*
X32035762Y-36850000D01*
X32035763Y-36850000D01*
X32108353Y-36839563D01*
X32177512Y-36849507D01*
X32230315Y-36895262D01*
X32250000Y-36962301D01*
X32250000Y-37700000D01*
X32897828Y-37700000D01*
X32897844Y-37699999D01*
X32957372Y-37693598D01*
X32957379Y-37693596D01*
X33092086Y-37643354D01*
X33092093Y-37643350D01*
X33207187Y-37557190D01*
X33207190Y-37557187D01*
X33293350Y-37442093D01*
X33293354Y-37442086D01*
X33343596Y-37307379D01*
X33343598Y-37307372D01*
X33349999Y-37247844D01*
X33350000Y-37247827D01*
X33350000Y-36600000D01*
X32613347Y-36600000D01*
X32546308Y-36580315D01*
X32500553Y-36527511D01*
X32490609Y-36458353D01*
X32494369Y-36441067D01*
X32500000Y-36421888D01*
X32500000Y-36278111D01*
X32494369Y-36258933D01*
X32494370Y-36189064D01*
X32532145Y-36130286D01*
X32595701Y-36101262D01*
X32613347Y-36100000D01*
X33350000Y-36100000D01*
X33350000Y-35452172D01*
X33349999Y-35452155D01*
X33343598Y-35392627D01*
X33343596Y-35392620D01*
X33293354Y-35257913D01*
X33293350Y-35257906D01*
X33207190Y-35142812D01*
X33207187Y-35142809D01*
X33092093Y-35056649D01*
X33092088Y-35056646D01*
X32960528Y-35007577D01*
X32904595Y-34965705D01*
X32880178Y-34900241D01*
X32895030Y-34831968D01*
X32916175Y-34803720D01*
X33038495Y-34681401D01*
X33086126Y-34613376D01*
X33140704Y-34569751D01*
X33187701Y-34560500D01*
X34447770Y-34560500D01*
X34514809Y-34580185D01*
X34535451Y-34596819D01*
X37424267Y-37485634D01*
X37436048Y-37499266D01*
X37450390Y-37518530D01*
X37490420Y-37552119D01*
X37494392Y-37555759D01*
X37500223Y-37561590D01*
X37500222Y-37561590D01*
X37522027Y-37578830D01*
X37525944Y-37581927D01*
X37584786Y-37631302D01*
X37584794Y-37631306D01*
X37590824Y-37635273D01*
X37590790Y-37635323D01*
X37597137Y-37639366D01*
X37597169Y-37639316D01*
X37603318Y-37643108D01*
X37603320Y-37643109D01*
X37603323Y-37643111D01*
X37672930Y-37675569D01*
X37741567Y-37710040D01*
X37741576Y-37710042D01*
X37748355Y-37712510D01*
X37748334Y-37712567D01*
X37755451Y-37715040D01*
X37755470Y-37714984D01*
X37762330Y-37717257D01*
X37837531Y-37732784D01*
X37837532Y-37732784D01*
X37912279Y-37750500D01*
X37912288Y-37750500D01*
X37919452Y-37751338D01*
X37919445Y-37751397D01*
X37926946Y-37752163D01*
X37926952Y-37752104D01*
X37934140Y-37752733D01*
X37934143Y-37752732D01*
X37934144Y-37752733D01*
X38010898Y-37750500D01*
X47846042Y-37750500D01*
X47913081Y-37770185D01*
X47951580Y-37809402D01*
X47957288Y-37818656D01*
X48081344Y-37942712D01*
X48230666Y-38034814D01*
X48397203Y-38089999D01*
X48499991Y-38100500D01*
X49500008Y-38100499D01*
X49500016Y-38100498D01*
X49500019Y-38100498D01*
X49556302Y-38094748D01*
X49602797Y-38089999D01*
X49769334Y-38034814D01*
X49918656Y-37942712D01*
X50042712Y-37818656D01*
X50048419Y-37809402D01*
X50100368Y-37762678D01*
X50153958Y-37750500D01*
X51846042Y-37750500D01*
X51913081Y-37770185D01*
X51951580Y-37809402D01*
X51957288Y-37818656D01*
X52081344Y-37942712D01*
X52230666Y-38034814D01*
X52397203Y-38089999D01*
X52499991Y-38100500D01*
X53500008Y-38100499D01*
X53500016Y-38100498D01*
X53500019Y-38100498D01*
X53556302Y-38094748D01*
X53602797Y-38089999D01*
X53769334Y-38034814D01*
X53918656Y-37942712D01*
X54042712Y-37818656D01*
X54055021Y-37798698D01*
X54106966Y-37751974D01*
X54149759Y-37740264D01*
X54152797Y-37739999D01*
X54152801Y-37739997D01*
X54159866Y-37738539D01*
X54159878Y-37738598D01*
X54167243Y-37736965D01*
X54167229Y-37736906D01*
X54174246Y-37735241D01*
X54174255Y-37735241D01*
X54246423Y-37708974D01*
X54319334Y-37684814D01*
X54319343Y-37684807D01*
X54325882Y-37681760D01*
X54325908Y-37681816D01*
X54332690Y-37678532D01*
X54332663Y-37678478D01*
X54339106Y-37675240D01*
X54339117Y-37675237D01*
X54403283Y-37633034D01*
X54468656Y-37592712D01*
X54468662Y-37592705D01*
X54474325Y-37588229D01*
X54474362Y-37588277D01*
X54480204Y-37583518D01*
X54480164Y-37583471D01*
X54485686Y-37578836D01*
X54485696Y-37578830D01*
X54510904Y-37552111D01*
X54538386Y-37522982D01*
X54773868Y-37287500D01*
X55775001Y-37287500D01*
X55775001Y-37424986D01*
X55785494Y-37527697D01*
X55840641Y-37694119D01*
X55840643Y-37694124D01*
X55932684Y-37843345D01*
X56056654Y-37967315D01*
X56205875Y-38059356D01*
X56205880Y-38059358D01*
X56372302Y-38114505D01*
X56372309Y-38114506D01*
X56475019Y-38124999D01*
X56749999Y-38124999D01*
X56750000Y-38124998D01*
X56750000Y-37287500D01*
X57250000Y-37287500D01*
X57250000Y-38124999D01*
X57524972Y-38124999D01*
X57524986Y-38124998D01*
X57627697Y-38114505D01*
X57794119Y-38059358D01*
X57794124Y-38059356D01*
X57943345Y-37967315D01*
X58067315Y-37843345D01*
X58159356Y-37694124D01*
X58159358Y-37694119D01*
X58214505Y-37527697D01*
X58214506Y-37527690D01*
X58224999Y-37424986D01*
X58225000Y-37424973D01*
X58225000Y-37287500D01*
X59775001Y-37287500D01*
X59775001Y-37424986D01*
X59785494Y-37527697D01*
X59840641Y-37694119D01*
X59840643Y-37694124D01*
X59932684Y-37843345D01*
X60056654Y-37967315D01*
X60205875Y-38059356D01*
X60205880Y-38059358D01*
X60372302Y-38114505D01*
X60372309Y-38114506D01*
X60475019Y-38124999D01*
X60749999Y-38124999D01*
X60750000Y-38124998D01*
X60750000Y-37287500D01*
X61250000Y-37287500D01*
X61250000Y-38124999D01*
X61524972Y-38124999D01*
X61524986Y-38124998D01*
X61627697Y-38114505D01*
X61794119Y-38059358D01*
X61794124Y-38059356D01*
X61943345Y-37967315D01*
X62067315Y-37843345D01*
X62159356Y-37694124D01*
X62159358Y-37694119D01*
X62214505Y-37527697D01*
X62214506Y-37527690D01*
X62224999Y-37424986D01*
X62225000Y-37424973D01*
X62225000Y-37287500D01*
X61250000Y-37287500D01*
X60750000Y-37287500D01*
X59775001Y-37287500D01*
X58225000Y-37287500D01*
X57250000Y-37287500D01*
X56750000Y-37287500D01*
X55775001Y-37287500D01*
X54773868Y-37287500D01*
X55286415Y-36774952D01*
X55569917Y-36491449D01*
X55631238Y-36457966D01*
X55700929Y-36462950D01*
X55756863Y-36504821D01*
X55781280Y-36570286D01*
X55780954Y-36591733D01*
X55775000Y-36650009D01*
X55775000Y-36787500D01*
X58224998Y-36787500D01*
X58224999Y-36650028D01*
X58224998Y-36650013D01*
X58214505Y-36547302D01*
X58159358Y-36380880D01*
X58159356Y-36380875D01*
X58067315Y-36231654D01*
X57943344Y-36107683D01*
X57943341Y-36107681D01*
X57940339Y-36105829D01*
X57938713Y-36104021D01*
X57937677Y-36103202D01*
X57937817Y-36103024D01*
X57893617Y-36053880D01*
X57882397Y-35984917D01*
X57910243Y-35920836D01*
X57940344Y-35894754D01*
X57943656Y-35892712D01*
X58067712Y-35768656D01*
X58067715Y-35768650D01*
X58072193Y-35762989D01*
X58074015Y-35764430D01*
X58117665Y-35725175D01*
X58171248Y-35713000D01*
X59823793Y-35713000D01*
X59841755Y-35714308D01*
X59847206Y-35715106D01*
X59910687Y-35744293D01*
X59927053Y-35763585D01*
X59927807Y-35762989D01*
X59932288Y-35768656D01*
X60056344Y-35892712D01*
X60059628Y-35894737D01*
X60059653Y-35894753D01*
X60061445Y-35896746D01*
X60062011Y-35897193D01*
X60061934Y-35897289D01*
X60106379Y-35946699D01*
X60117603Y-36015661D01*
X60089761Y-36079744D01*
X60059665Y-36105826D01*
X60056660Y-36107679D01*
X60056655Y-36107683D01*
X59932684Y-36231654D01*
X59840643Y-36380875D01*
X59840641Y-36380880D01*
X59785494Y-36547302D01*
X59785493Y-36547309D01*
X59775000Y-36650013D01*
X59775000Y-36787500D01*
X62224998Y-36787500D01*
X62224999Y-36650028D01*
X62224998Y-36650013D01*
X62214505Y-36547302D01*
X62159358Y-36380880D01*
X62159356Y-36380875D01*
X62067315Y-36231654D01*
X61943344Y-36107683D01*
X61943341Y-36107681D01*
X61940339Y-36105829D01*
X61938713Y-36104021D01*
X61937677Y-36103202D01*
X61937817Y-36103024D01*
X61893617Y-36053880D01*
X61882397Y-35984917D01*
X61910243Y-35920836D01*
X61940344Y-35894754D01*
X61943656Y-35892712D01*
X62067712Y-35768656D01*
X62159814Y-35619334D01*
X62214999Y-35452797D01*
X62225500Y-35350009D01*
X62225499Y-34574992D01*
X62217552Y-34497200D01*
X62214999Y-34472203D01*
X62214998Y-34472200D01*
X62185660Y-34383664D01*
X62159814Y-34305666D01*
X62067712Y-34156344D01*
X61943656Y-34032288D01*
X61809600Y-33949602D01*
X61762875Y-33897654D01*
X61750748Y-33847665D01*
X61750499Y-33839082D01*
X61750500Y-33806291D01*
X61750500Y-32553704D01*
X61751809Y-32535735D01*
X61755289Y-32511974D01*
X61750736Y-32459939D01*
X61750500Y-32454532D01*
X61750500Y-32446296D01*
X61750500Y-32446291D01*
X61746691Y-32413705D01*
X61739998Y-32337203D01*
X61739995Y-32337194D01*
X61738538Y-32330135D01*
X61738598Y-32330122D01*
X61736966Y-32322764D01*
X61736908Y-32322778D01*
X61735241Y-32315747D01*
X61735241Y-32315745D01*
X61708969Y-32243563D01*
X61684814Y-32170666D01*
X61681762Y-32164121D01*
X61681815Y-32164095D01*
X61678531Y-32157311D01*
X61678479Y-32157338D01*
X61675236Y-32150882D01*
X61669000Y-32141401D01*
X61633034Y-32086716D01*
X61592712Y-32021344D01*
X61592710Y-32021342D01*
X61588234Y-32015681D01*
X61588280Y-32015643D01*
X61583519Y-32009799D01*
X61583474Y-32009838D01*
X61578834Y-32004308D01*
X61522982Y-31951613D01*
X59720729Y-30149361D01*
X59708949Y-30135730D01*
X59701482Y-30125701D01*
X59694612Y-30116472D01*
X59689323Y-30112034D01*
X59654587Y-30082886D01*
X59650612Y-30079244D01*
X59646408Y-30075040D01*
X59644780Y-30073411D01*
X59619040Y-30053059D01*
X59563830Y-30006732D01*
X59560214Y-30003698D01*
X59560213Y-30003697D01*
X59560209Y-30003694D01*
X59554594Y-30000001D01*
X68694532Y-30000001D01*
X68714364Y-30226686D01*
X68714366Y-30226697D01*
X68773258Y-30446488D01*
X68773261Y-30446497D01*
X68869431Y-30652732D01*
X68869432Y-30652734D01*
X68999954Y-30839141D01*
X69160858Y-31000045D01*
X69160861Y-31000047D01*
X69347266Y-31130568D01*
X69553504Y-31226739D01*
X69773308Y-31285635D01*
X69943216Y-31300500D01*
X70056784Y-31300500D01*
X70226692Y-31285635D01*
X70446496Y-31226739D01*
X70652734Y-31130568D01*
X70839139Y-31000047D01*
X71000047Y-30839139D01*
X71130568Y-30652734D01*
X71226739Y-30446496D01*
X71285635Y-30226692D01*
X71305090Y-30004318D01*
X71305468Y-30000001D01*
X71305468Y-29999998D01*
X71295254Y-29883256D01*
X71285635Y-29773308D01*
X71226739Y-29553504D01*
X71130568Y-29347266D01*
X71000047Y-29160861D01*
X71000045Y-29160858D01*
X70839141Y-28999954D01*
X70652734Y-28869432D01*
X70652732Y-28869431D01*
X70446497Y-28773261D01*
X70446488Y-28773258D01*
X70226697Y-28714366D01*
X70226687Y-28714364D01*
X70056784Y-28699500D01*
X69943216Y-28699500D01*
X69773312Y-28714364D01*
X69773302Y-28714366D01*
X69553511Y-28773258D01*
X69553502Y-28773261D01*
X69347267Y-28869431D01*
X69347265Y-28869432D01*
X69160858Y-28999954D01*
X68999954Y-29160858D01*
X68869432Y-29347265D01*
X68869431Y-29347267D01*
X68773261Y-29553502D01*
X68773258Y-29553511D01*
X68714366Y-29773302D01*
X68714364Y-29773313D01*
X68694532Y-29999998D01*
X68694532Y-30000001D01*
X59554594Y-30000001D01*
X59554180Y-29999729D01*
X59554212Y-29999680D01*
X59547853Y-29995628D01*
X59547822Y-29995679D01*
X59541680Y-29991891D01*
X59541678Y-29991890D01*
X59541677Y-29991889D01*
X59488130Y-29966919D01*
X59472058Y-29959424D01*
X59437894Y-29942267D01*
X59403433Y-29924960D01*
X59403431Y-29924959D01*
X59403430Y-29924959D01*
X59396645Y-29922489D01*
X59396665Y-29922433D01*
X59389549Y-29919959D01*
X59389531Y-29920015D01*
X59382671Y-29917742D01*
X59354841Y-29911996D01*
X59307434Y-29902207D01*
X59258472Y-29890603D01*
X59232719Y-29884499D01*
X59225547Y-29883661D01*
X59225553Y-29883601D01*
X59218055Y-29882835D01*
X59218050Y-29882895D01*
X59210860Y-29882265D01*
X59134083Y-29884500D01*
X59034679Y-29884500D01*
X58967640Y-29864815D01*
X58921885Y-29812011D01*
X58911941Y-29742853D01*
X58915603Y-29725905D01*
X58947099Y-29617494D01*
X58947100Y-29617488D01*
X58947295Y-29615001D01*
X58947295Y-29615000D01*
X56002705Y-29615000D01*
X56002704Y-29615001D01*
X56002899Y-29617486D01*
X56048718Y-29775198D01*
X56132314Y-29916552D01*
X56137100Y-29922722D01*
X56134640Y-29924629D01*
X56161210Y-29973288D01*
X56156226Y-30042980D01*
X56135162Y-30075781D01*
X56136699Y-30076974D01*
X56131915Y-30083140D01*
X56048255Y-30224603D01*
X56048254Y-30224606D01*
X56002402Y-30382426D01*
X56002401Y-30382432D01*
X55999500Y-30419304D01*
X55999500Y-30850696D01*
X56002401Y-30887567D01*
X56002402Y-30887573D01*
X56048254Y-31045393D01*
X56048255Y-31045396D01*
X56131917Y-31186862D01*
X56136702Y-31193031D01*
X56134369Y-31194840D01*
X56161210Y-31243995D01*
X56156226Y-31313687D01*
X56135470Y-31346021D01*
X56137097Y-31347283D01*
X56132313Y-31353449D01*
X56048718Y-31494801D01*
X56002899Y-31652513D01*
X56002704Y-31654998D01*
X56002705Y-31655000D01*
X58957358Y-31655000D01*
X58994809Y-31632597D01*
X59064643Y-31634841D01*
X59113586Y-31664954D01*
X60213181Y-32764548D01*
X60246666Y-32825871D01*
X60249500Y-32852229D01*
X60249500Y-33487769D01*
X60229815Y-33554808D01*
X60213181Y-33575450D01*
X59612951Y-34175681D01*
X59551628Y-34209166D01*
X59525270Y-34212000D01*
X58171248Y-34212000D01*
X58104209Y-34192315D01*
X58073468Y-34161002D01*
X58072193Y-34162011D01*
X58067711Y-34156343D01*
X57943657Y-34032289D01*
X57943656Y-34032288D01*
X57834866Y-33965186D01*
X57794336Y-33940187D01*
X57794331Y-33940185D01*
X57768296Y-33931558D01*
X57627797Y-33885001D01*
X57627795Y-33885000D01*
X57525010Y-33874500D01*
X56474998Y-33874500D01*
X56474980Y-33874501D01*
X56372203Y-33885000D01*
X56372200Y-33885001D01*
X56205668Y-33940185D01*
X56205663Y-33940187D01*
X56056342Y-34032289D01*
X55932288Y-34156343D01*
X55918495Y-34178704D01*
X55866545Y-34225426D01*
X55855370Y-34230124D01*
X55791065Y-34253529D01*
X55754928Y-34265504D01*
X55718166Y-34277686D01*
X55718164Y-34277686D01*
X55718161Y-34277688D01*
X55711622Y-34280737D01*
X55711597Y-34280685D01*
X55704808Y-34283971D01*
X55704834Y-34284022D01*
X55698384Y-34287261D01*
X55634216Y-34329464D01*
X55568847Y-34369785D01*
X55563177Y-34374269D01*
X55563141Y-34374223D01*
X55557298Y-34378984D01*
X55557335Y-34379028D01*
X55551810Y-34383664D01*
X55499114Y-34439517D01*
X54408489Y-35530141D01*
X54347166Y-35563626D01*
X54277474Y-35558642D01*
X54221541Y-35516770D01*
X54197124Y-35451306D01*
X54197449Y-35429865D01*
X54200500Y-35400009D01*
X54200499Y-34599992D01*
X54189999Y-34497203D01*
X54134814Y-34330666D01*
X54134811Y-34330662D01*
X54132958Y-34325068D01*
X54130556Y-34255239D01*
X54162981Y-34198384D01*
X55075638Y-33285727D01*
X55089267Y-33273950D01*
X55108530Y-33259610D01*
X55108532Y-33259606D01*
X55108534Y-33259606D01*
X55135004Y-33228059D01*
X55142113Y-33219585D01*
X55145767Y-33215599D01*
X55151591Y-33209776D01*
X55171930Y-33184052D01*
X55221302Y-33125214D01*
X55221306Y-33125205D01*
X55225274Y-33119175D01*
X55225325Y-33119208D01*
X55229369Y-33112860D01*
X55229317Y-33112828D01*
X55233104Y-33106685D01*
X55233111Y-33106677D01*
X55265572Y-33037063D01*
X55300040Y-32968433D01*
X55300041Y-32968427D01*
X55302508Y-32961650D01*
X55302566Y-32961671D01*
X55305043Y-32954544D01*
X55304986Y-32954526D01*
X55307255Y-32947679D01*
X55307256Y-32947674D01*
X55307257Y-32947672D01*
X55322790Y-32872441D01*
X55340500Y-32797721D01*
X55340500Y-32797719D01*
X55341339Y-32790548D01*
X55341398Y-32790554D01*
X55342164Y-32783054D01*
X55342105Y-32783049D01*
X55342734Y-32775859D01*
X55342135Y-32755289D01*
X55340500Y-32699082D01*
X55340500Y-32155001D01*
X56002704Y-32155001D01*
X56002899Y-32157486D01*
X56048718Y-32315198D01*
X56132314Y-32456552D01*
X56132321Y-32456561D01*
X56248438Y-32572678D01*
X56248447Y-32572685D01*
X56389803Y-32656282D01*
X56389806Y-32656283D01*
X56547504Y-32702099D01*
X56547510Y-32702100D01*
X56584356Y-32705000D01*
X57225000Y-32705000D01*
X57225000Y-32704999D01*
X57724999Y-32704999D01*
X57725000Y-32705000D01*
X58365644Y-32705000D01*
X58402489Y-32702100D01*
X58402495Y-32702099D01*
X58560193Y-32656283D01*
X58560196Y-32656282D01*
X58701552Y-32572685D01*
X58701561Y-32572678D01*
X58817678Y-32456561D01*
X58817685Y-32456552D01*
X58901281Y-32315198D01*
X58947100Y-32157486D01*
X58947295Y-32155001D01*
X58947295Y-32155000D01*
X57725000Y-32155000D01*
X57724999Y-32704999D01*
X57225000Y-32704999D01*
X57225000Y-32155000D01*
X56002705Y-32155000D01*
X56002704Y-32155001D01*
X55340500Y-32155001D01*
X55340499Y-31243703D01*
X55341809Y-31225729D01*
X55343256Y-31215851D01*
X55345289Y-31201977D01*
X55344664Y-31194840D01*
X55340735Y-31149937D01*
X55340499Y-31144522D01*
X55340500Y-31136291D01*
X55336691Y-31103707D01*
X55329998Y-31027202D01*
X55329996Y-31027197D01*
X55328538Y-31020133D01*
X55328597Y-31020120D01*
X55326967Y-31012764D01*
X55326908Y-31012779D01*
X55325242Y-31005753D01*
X55325241Y-31005745D01*
X55298973Y-30933573D01*
X55298972Y-30933572D01*
X55274815Y-30860666D01*
X55271763Y-30854121D01*
X55271817Y-30854095D01*
X55268533Y-30847312D01*
X55268480Y-30847340D01*
X55265238Y-30840885D01*
X55242520Y-30806344D01*
X55223029Y-30776709D01*
X55182711Y-30711344D01*
X55182710Y-30711343D01*
X55182709Y-30711341D01*
X55178233Y-30705681D01*
X55178280Y-30705643D01*
X55173519Y-30699799D01*
X55173474Y-30699838D01*
X55168834Y-30694309D01*
X55168832Y-30694307D01*
X55168830Y-30694304D01*
X55138061Y-30665275D01*
X55112966Y-30641598D01*
X54620729Y-30149361D01*
X54608949Y-30135730D01*
X54601482Y-30125701D01*
X54594612Y-30116472D01*
X54589323Y-30112034D01*
X54554587Y-30082886D01*
X54550612Y-30079244D01*
X54546408Y-30075040D01*
X54544780Y-30073411D01*
X54519040Y-30053059D01*
X54463830Y-30006732D01*
X54460214Y-30003698D01*
X54460213Y-30003697D01*
X54460209Y-30003694D01*
X54454180Y-29999729D01*
X54454212Y-29999680D01*
X54447853Y-29995628D01*
X54447822Y-29995679D01*
X54441680Y-29991891D01*
X54441678Y-29991890D01*
X54441677Y-29991889D01*
X54388130Y-29966919D01*
X54372058Y-29959424D01*
X54337894Y-29942267D01*
X54303433Y-29924960D01*
X54303431Y-29924959D01*
X54303430Y-29924959D01*
X54296645Y-29922489D01*
X54296665Y-29922433D01*
X54289549Y-29919959D01*
X54289531Y-29920015D01*
X54282671Y-29917742D01*
X54254841Y-29911996D01*
X54207434Y-29902207D01*
X54158472Y-29890603D01*
X54132719Y-29884499D01*
X54125547Y-29883661D01*
X54125553Y-29883601D01*
X54118055Y-29882835D01*
X54118050Y-29882895D01*
X54110858Y-29882265D01*
X54089255Y-29882894D01*
X54021672Y-29865166D01*
X53974402Y-29813714D01*
X53962452Y-29744874D01*
X53966575Y-29724351D01*
X53997597Y-29617573D01*
X53997598Y-29617567D01*
X53997605Y-29617486D01*
X54000500Y-29580694D01*
X54000500Y-29149306D01*
X53997800Y-29114998D01*
X56002704Y-29114998D01*
X56002705Y-29115000D01*
X57225000Y-29115000D01*
X57225000Y-28345000D01*
X57725000Y-28345000D01*
X57725000Y-29115000D01*
X58947295Y-29115000D01*
X58947295Y-29114998D01*
X58947100Y-29112513D01*
X58901281Y-28954801D01*
X58817686Y-28813449D01*
X58812903Y-28807283D01*
X58815248Y-28805463D01*
X58788434Y-28756357D01*
X58793418Y-28686665D01*
X58814471Y-28653933D01*
X58812903Y-28652717D01*
X58817686Y-28646550D01*
X58901281Y-28505198D01*
X58947100Y-28347486D01*
X58947295Y-28345001D01*
X58947295Y-28345000D01*
X57725000Y-28345000D01*
X57225000Y-28345000D01*
X56002705Y-28345000D01*
X56002704Y-28345001D01*
X56002899Y-28347486D01*
X56048718Y-28505198D01*
X56132314Y-28646552D01*
X56137100Y-28652722D01*
X56134753Y-28654542D01*
X56161564Y-28703642D01*
X56156580Y-28773334D01*
X56135541Y-28806069D01*
X56137100Y-28807278D01*
X56132314Y-28813447D01*
X56048718Y-28954801D01*
X56002899Y-29112513D01*
X56002704Y-29114998D01*
X53997800Y-29114998D01*
X53997598Y-29112431D01*
X53951744Y-28954602D01*
X53868081Y-28813135D01*
X53868078Y-28813132D01*
X53863298Y-28806969D01*
X53865750Y-28805066D01*
X53839155Y-28756421D01*
X53844104Y-28686726D01*
X53864940Y-28654304D01*
X53863298Y-28653031D01*
X53868075Y-28646870D01*
X53868081Y-28646865D01*
X53951744Y-28505398D01*
X53997598Y-28347569D01*
X54000500Y-28310694D01*
X54000500Y-27879306D01*
X53997800Y-27844998D01*
X56002704Y-27844998D01*
X56002705Y-27845000D01*
X57225000Y-27845000D01*
X57225000Y-27844999D01*
X57724999Y-27844999D01*
X57725000Y-27845000D01*
X58947295Y-27845000D01*
X58947295Y-27844998D01*
X58947100Y-27842513D01*
X58901281Y-27684801D01*
X58817685Y-27543447D01*
X58817678Y-27543438D01*
X58701561Y-27427321D01*
X58701552Y-27427314D01*
X58560196Y-27343717D01*
X58560193Y-27343716D01*
X58402495Y-27297900D01*
X58402489Y-27297899D01*
X58365644Y-27295000D01*
X57725000Y-27295000D01*
X57724999Y-27844999D01*
X57225000Y-27844999D01*
X57225000Y-27295000D01*
X56584356Y-27295000D01*
X56547510Y-27297899D01*
X56547504Y-27297900D01*
X56389806Y-27343716D01*
X56389803Y-27343717D01*
X56248447Y-27427314D01*
X56248438Y-27427321D01*
X56132321Y-27543438D01*
X56132314Y-27543447D01*
X56048718Y-27684801D01*
X56002899Y-27842513D01*
X56002704Y-27844998D01*
X53997800Y-27844998D01*
X53997598Y-27842431D01*
X53988681Y-27811740D01*
X53953750Y-27691506D01*
X53951744Y-27684602D01*
X53868081Y-27543135D01*
X53868079Y-27543133D01*
X53868076Y-27543129D01*
X53751870Y-27426923D01*
X53751862Y-27426917D01*
X53646624Y-27364680D01*
X53610398Y-27343256D01*
X53610397Y-27343255D01*
X53610396Y-27343255D01*
X53610393Y-27343254D01*
X53452573Y-27297402D01*
X53452567Y-27297401D01*
X53415696Y-27294500D01*
X53415694Y-27294500D01*
X51907229Y-27294500D01*
X51840190Y-27274815D01*
X51819548Y-27258181D01*
X48575729Y-24014361D01*
X48563949Y-24000730D01*
X48556482Y-23990701D01*
X48549612Y-23981472D01*
X48549610Y-23981470D01*
X48509587Y-23947886D01*
X48505612Y-23944244D01*
X48502690Y-23941322D01*
X48499780Y-23938411D01*
X48474040Y-23918059D01*
X48415209Y-23868694D01*
X48409180Y-23864729D01*
X48409212Y-23864680D01*
X48402853Y-23860628D01*
X48402822Y-23860679D01*
X48396680Y-23856891D01*
X48396678Y-23856890D01*
X48396677Y-23856889D01*
X48357474Y-23838608D01*
X48327058Y-23824424D01*
X48292894Y-23807267D01*
X48258433Y-23789960D01*
X48258431Y-23789959D01*
X48258430Y-23789959D01*
X48251645Y-23787489D01*
X48251665Y-23787433D01*
X48244549Y-23784959D01*
X48244531Y-23785015D01*
X48237671Y-23782742D01*
X48209841Y-23776996D01*
X48162434Y-23767207D01*
X48113472Y-23755603D01*
X48087719Y-23749499D01*
X48080547Y-23748661D01*
X48080553Y-23748601D01*
X48073056Y-23747835D01*
X48073051Y-23747895D01*
X48065860Y-23747265D01*
X48040937Y-23747991D01*
X47973353Y-23730264D01*
X47964444Y-23724360D01*
X47952730Y-23715849D01*
X47952729Y-23715848D01*
X47779807Y-23638857D01*
X47779802Y-23638855D01*
X47634000Y-23607865D01*
X47594646Y-23599500D01*
X47405354Y-23599500D01*
X47372897Y-23606398D01*
X47220197Y-23638855D01*
X47220192Y-23638857D01*
X47047270Y-23715848D01*
X47047265Y-23715851D01*
X46894129Y-23827111D01*
X46767466Y-23967785D01*
X46672821Y-24131715D01*
X46672818Y-24131722D01*
X46614327Y-24311740D01*
X46614326Y-24311744D01*
X46594540Y-24500000D01*
X46614326Y-24688256D01*
X46614327Y-24688259D01*
X46672818Y-24868277D01*
X46672821Y-24868284D01*
X46767467Y-25032216D01*
X46874872Y-25151501D01*
X46894129Y-25172888D01*
X47047265Y-25284148D01*
X47047270Y-25284151D01*
X47220192Y-25361142D01*
X47220197Y-25361144D01*
X47405354Y-25400500D01*
X47405355Y-25400500D01*
X47594644Y-25400500D01*
X47594646Y-25400500D01*
X47730421Y-25371640D01*
X47800086Y-25376956D01*
X47843881Y-25405249D01*
X50841451Y-28402819D01*
X50874936Y-28464142D01*
X50869952Y-28533834D01*
X50828080Y-28589767D01*
X50762616Y-28614184D01*
X50753770Y-28614500D01*
X49727229Y-28614500D01*
X49660190Y-28594815D01*
X49639548Y-28578181D01*
X49113538Y-28052171D01*
X48575729Y-27514361D01*
X48563949Y-27500730D01*
X48550377Y-27482500D01*
X48549612Y-27481472D01*
X48549610Y-27481470D01*
X48509587Y-27447886D01*
X48505612Y-27444244D01*
X48502690Y-27441322D01*
X48499780Y-27438411D01*
X48474040Y-27418059D01*
X48415209Y-27368694D01*
X48409180Y-27364729D01*
X48409212Y-27364680D01*
X48402853Y-27360628D01*
X48402822Y-27360679D01*
X48396680Y-27356891D01*
X48396678Y-27356890D01*
X48396677Y-27356889D01*
X48357474Y-27338608D01*
X48327058Y-27324424D01*
X48292894Y-27307267D01*
X48258433Y-27289960D01*
X48258431Y-27289959D01*
X48258430Y-27289959D01*
X48251645Y-27287489D01*
X48251665Y-27287433D01*
X48244549Y-27284959D01*
X48244531Y-27285015D01*
X48237671Y-27282742D01*
X48209841Y-27276996D01*
X48162434Y-27267207D01*
X48113472Y-27255603D01*
X48087719Y-27249499D01*
X48080547Y-27248661D01*
X48080553Y-27248601D01*
X48073056Y-27247835D01*
X48073051Y-27247895D01*
X48065860Y-27247265D01*
X48040937Y-27247991D01*
X47973353Y-27230264D01*
X47964444Y-27224360D01*
X47952730Y-27215849D01*
X47952729Y-27215848D01*
X47779807Y-27138857D01*
X47779802Y-27138855D01*
X47634000Y-27107865D01*
X47594646Y-27099500D01*
X47405354Y-27099500D01*
X47372897Y-27106398D01*
X47220197Y-27138855D01*
X47220192Y-27138857D01*
X47047270Y-27215848D01*
X47047265Y-27215851D01*
X46894129Y-27327111D01*
X46767466Y-27467785D01*
X46672821Y-27631715D01*
X46672818Y-27631722D01*
X46614327Y-27811740D01*
X46614326Y-27811744D01*
X46594540Y-28000000D01*
X46614326Y-28188256D01*
X46614327Y-28188259D01*
X46672818Y-28368277D01*
X46672821Y-28368284D01*
X46767467Y-28532216D01*
X46876250Y-28653031D01*
X46894129Y-28672888D01*
X47047265Y-28784148D01*
X47047270Y-28784151D01*
X47220192Y-28861142D01*
X47220197Y-28861144D01*
X47405354Y-28900500D01*
X47405355Y-28900500D01*
X47594644Y-28900500D01*
X47594646Y-28900500D01*
X47730422Y-28871640D01*
X47800087Y-28876956D01*
X47843882Y-28905249D01*
X48789267Y-29850634D01*
X48801048Y-29864266D01*
X48815390Y-29883530D01*
X48855420Y-29917119D01*
X48859392Y-29920759D01*
X48863262Y-29924629D01*
X48865224Y-29926591D01*
X48865227Y-29926594D01*
X48890947Y-29946931D01*
X48949788Y-29996304D01*
X48955818Y-30000270D01*
X48955785Y-30000319D01*
X48962142Y-30004369D01*
X48962174Y-30004318D01*
X48966088Y-30006732D01*
X48966405Y-30007084D01*
X48969602Y-30009121D01*
X48973994Y-30012594D01*
X48972762Y-30014151D01*
X49012815Y-30058679D01*
X49024039Y-30127641D01*
X48996198Y-30191724D01*
X48988676Y-30199954D01*
X48026866Y-31161764D01*
X47965543Y-31195249D01*
X47895851Y-31190265D01*
X47888749Y-31187362D01*
X47779807Y-31138857D01*
X47779802Y-31138855D01*
X47634000Y-31107865D01*
X47594646Y-31099500D01*
X47405354Y-31099500D01*
X47372897Y-31106398D01*
X47220197Y-31138855D01*
X47220192Y-31138857D01*
X47047270Y-31215848D01*
X47047265Y-31215851D01*
X46894129Y-31327111D01*
X46767466Y-31467785D01*
X46672821Y-31631715D01*
X46672818Y-31631722D01*
X46614327Y-31811740D01*
X46614326Y-31811744D01*
X46594540Y-32000000D01*
X46614326Y-32188256D01*
X46614327Y-32188259D01*
X46672818Y-32368277D01*
X46672821Y-32368284D01*
X46767467Y-32532216D01*
X46882906Y-32660424D01*
X46894129Y-32672888D01*
X47047265Y-32784148D01*
X47047270Y-32784151D01*
X47220192Y-32861142D01*
X47220197Y-32861144D01*
X47405354Y-32900500D01*
X47405355Y-32900500D01*
X47594644Y-32900500D01*
X47594646Y-32900500D01*
X47779803Y-32861144D01*
X47952730Y-32784151D01*
X47954776Y-32782664D01*
X47966452Y-32774182D01*
X48032258Y-32750702D01*
X48039337Y-32750500D01*
X48186295Y-32750500D01*
X48204265Y-32751809D01*
X48228023Y-32755289D01*
X48280068Y-32750735D01*
X48285470Y-32750500D01*
X48293704Y-32750500D01*
X48293709Y-32750500D01*
X48305327Y-32749141D01*
X48326276Y-32746693D01*
X48339028Y-32745577D01*
X48402797Y-32739999D01*
X48402805Y-32739996D01*
X48409866Y-32738539D01*
X48409878Y-32738598D01*
X48417243Y-32736965D01*
X48417229Y-32736906D01*
X48424246Y-32735241D01*
X48424255Y-32735241D01*
X48496423Y-32708974D01*
X48569334Y-32684814D01*
X48569343Y-32684807D01*
X48575882Y-32681760D01*
X48575908Y-32681816D01*
X48582690Y-32678532D01*
X48582663Y-32678478D01*
X48589106Y-32675240D01*
X48589117Y-32675237D01*
X48653283Y-32633034D01*
X48718656Y-32592712D01*
X48718662Y-32592705D01*
X48724325Y-32588229D01*
X48724362Y-32588277D01*
X48730204Y-32583518D01*
X48730164Y-32583471D01*
X48735691Y-32578832D01*
X48735696Y-32578830D01*
X48741494Y-32572685D01*
X48788386Y-32522981D01*
X49889548Y-31421819D01*
X49950871Y-31388334D01*
X49977229Y-31385500D01*
X50133771Y-31385500D01*
X50200810Y-31405185D01*
X50246565Y-31457989D01*
X50256509Y-31527147D01*
X50227484Y-31590703D01*
X50221455Y-31597177D01*
X48531344Y-33287287D01*
X48531344Y-33287288D01*
X48517887Y-33300744D01*
X48514350Y-33304280D01*
X48500731Y-33316050D01*
X48481465Y-33330393D01*
X48447893Y-33370404D01*
X48444237Y-33374393D01*
X47727386Y-34091244D01*
X47666063Y-34124729D01*
X47613924Y-34124853D01*
X47613340Y-34124729D01*
X47597517Y-34121365D01*
X47494646Y-34099500D01*
X47305354Y-34099500D01*
X47272897Y-34106398D01*
X47120197Y-34138855D01*
X47120192Y-34138857D01*
X46947270Y-34215848D01*
X46947265Y-34215851D01*
X46794129Y-34327111D01*
X46667466Y-34467785D01*
X46572821Y-34631715D01*
X46572818Y-34631722D01*
X46516935Y-34803713D01*
X46514326Y-34811744D01*
X46494540Y-35000000D01*
X46514326Y-35188256D01*
X46514327Y-35188259D01*
X46572818Y-35368277D01*
X46572821Y-35368284D01*
X46667467Y-35532216D01*
X46790926Y-35669331D01*
X46794129Y-35672888D01*
X46947265Y-35784148D01*
X46947270Y-35784151D01*
X47120192Y-35861142D01*
X47120197Y-35861144D01*
X47305354Y-35900500D01*
X47305355Y-35900500D01*
X47494644Y-35900500D01*
X47494646Y-35900500D01*
X47679803Y-35861144D01*
X47823348Y-35797232D01*
X47892595Y-35787947D01*
X47955872Y-35817575D01*
X47961463Y-35822831D01*
X48050951Y-35912319D01*
X48084436Y-35973642D01*
X48079452Y-36043334D01*
X48050951Y-36087681D01*
X47957288Y-36181343D01*
X47957287Y-36181344D01*
X47951580Y-36190598D01*
X47899632Y-36237322D01*
X47846042Y-36249500D01*
X38362230Y-36249500D01*
X38295191Y-36229815D01*
X38274549Y-36213181D01*
X35385729Y-33324361D01*
X35373949Y-33310730D01*
X35365450Y-33299315D01*
X35359612Y-33291472D01*
X35354626Y-33287288D01*
X35319587Y-33257886D01*
X35315612Y-33254244D01*
X35312690Y-33251322D01*
X35309780Y-33248411D01*
X35284040Y-33228059D01*
X35262251Y-33209776D01*
X35225214Y-33178698D01*
X35225213Y-33178697D01*
X35225209Y-33178694D01*
X35219180Y-33174729D01*
X35219212Y-33174680D01*
X35212853Y-33170628D01*
X35212822Y-33170679D01*
X35206680Y-33166891D01*
X35206678Y-33166890D01*
X35206677Y-33166889D01*
X35167474Y-33148608D01*
X35137058Y-33134424D01*
X35094055Y-33112828D01*
X35068433Y-33099960D01*
X35068431Y-33099959D01*
X35068430Y-33099959D01*
X35061645Y-33097489D01*
X35061665Y-33097433D01*
X35054549Y-33094959D01*
X35054531Y-33095015D01*
X35047671Y-33092742D01*
X35019841Y-33086996D01*
X34972434Y-33077207D01*
X34923472Y-33065603D01*
X34897719Y-33059499D01*
X34890547Y-33058661D01*
X34890553Y-33058601D01*
X34883055Y-33057835D01*
X34883050Y-33057895D01*
X34875860Y-33057265D01*
X34799083Y-33059500D01*
X33187701Y-33059500D01*
X33120662Y-33039815D01*
X33086126Y-33006623D01*
X33038494Y-32938597D01*
X32871402Y-32771506D01*
X32871396Y-32771501D01*
X32685842Y-32641575D01*
X32642217Y-32586998D01*
X32635023Y-32517500D01*
X32666546Y-32455145D01*
X32685842Y-32438425D01*
X32721146Y-32413705D01*
X32871401Y-32308495D01*
X33038495Y-32141401D01*
X33174035Y-31947830D01*
X33273903Y-31733663D01*
X33335063Y-31505408D01*
X33355659Y-31270000D01*
X33335063Y-31034592D01*
X33283160Y-30840885D01*
X33273905Y-30806344D01*
X33273904Y-30806343D01*
X33273903Y-30806337D01*
X33174035Y-30592171D01*
X33072034Y-30446497D01*
X33038494Y-30398597D01*
X32871402Y-30231506D01*
X32871396Y-30231501D01*
X32685842Y-30101575D01*
X32642217Y-30046998D01*
X32637352Y-30000001D01*
X38694532Y-30000001D01*
X38714364Y-30226686D01*
X38714366Y-30226697D01*
X38773258Y-30446488D01*
X38773261Y-30446497D01*
X38869431Y-30652732D01*
X38869432Y-30652734D01*
X38999954Y-30839141D01*
X39160858Y-31000045D01*
X39160861Y-31000047D01*
X39347266Y-31130568D01*
X39553504Y-31226739D01*
X39773308Y-31285635D01*
X39943216Y-31300500D01*
X40056784Y-31300500D01*
X40226692Y-31285635D01*
X40446496Y-31226739D01*
X40652734Y-31130568D01*
X40839139Y-31000047D01*
X41000047Y-30839139D01*
X41130568Y-30652734D01*
X41226739Y-30446496D01*
X41285635Y-30226692D01*
X41305090Y-30004318D01*
X41305468Y-30000001D01*
X41305468Y-29999998D01*
X41295254Y-29883256D01*
X41285635Y-29773308D01*
X41226739Y-29553504D01*
X41130568Y-29347266D01*
X41000047Y-29160861D01*
X41000045Y-29160858D01*
X40839141Y-28999954D01*
X40652734Y-28869432D01*
X40652732Y-28869431D01*
X40446497Y-28773261D01*
X40446488Y-28773258D01*
X40226697Y-28714366D01*
X40226687Y-28714364D01*
X40056784Y-28699500D01*
X39943216Y-28699500D01*
X39773312Y-28714364D01*
X39773302Y-28714366D01*
X39553511Y-28773258D01*
X39553502Y-28773261D01*
X39347267Y-28869431D01*
X39347265Y-28869432D01*
X39160858Y-28999954D01*
X38999954Y-29160858D01*
X38869432Y-29347265D01*
X38869431Y-29347267D01*
X38773261Y-29553502D01*
X38773258Y-29553511D01*
X38714366Y-29773302D01*
X38714364Y-29773313D01*
X38694532Y-29999998D01*
X38694532Y-30000001D01*
X32637352Y-30000001D01*
X32635023Y-29977500D01*
X32666546Y-29915145D01*
X32685842Y-29898425D01*
X32754094Y-29850634D01*
X32871401Y-29768495D01*
X33038495Y-29601401D01*
X33174035Y-29407830D01*
X33273903Y-29193663D01*
X33335063Y-28965408D01*
X33355659Y-28730000D01*
X33335063Y-28494592D01*
X33273903Y-28266337D01*
X33174035Y-28052171D01*
X33052995Y-27879306D01*
X33038494Y-27858597D01*
X32871402Y-27691506D01*
X32871396Y-27691501D01*
X32685842Y-27561575D01*
X32642217Y-27506998D01*
X32635023Y-27437500D01*
X32666546Y-27375145D01*
X32685842Y-27358425D01*
X32772282Y-27297899D01*
X32871401Y-27228495D01*
X33038495Y-27061401D01*
X33174035Y-26867830D01*
X33273903Y-26653663D01*
X33335063Y-26425408D01*
X33355659Y-26190000D01*
X33335063Y-25954592D01*
X33273903Y-25726337D01*
X33174035Y-25512171D01*
X33095843Y-25400500D01*
X33038494Y-25318597D01*
X32871402Y-25151506D01*
X32871396Y-25151501D01*
X32685842Y-25021575D01*
X32642217Y-24966998D01*
X32635023Y-24897500D01*
X32666546Y-24835145D01*
X32685842Y-24818425D01*
X32708026Y-24802891D01*
X32871401Y-24688495D01*
X33038495Y-24521401D01*
X33174035Y-24327830D01*
X33273903Y-24113663D01*
X33335063Y-23885408D01*
X33355659Y-23650000D01*
X33335063Y-23414592D01*
X33273903Y-23186337D01*
X33174035Y-22972171D01*
X33038495Y-22778599D01*
X33038494Y-22778597D01*
X32871402Y-22611506D01*
X32871395Y-22611501D01*
X32677834Y-22475967D01*
X32677830Y-22475965D01*
X32677829Y-22475964D01*
X32463663Y-22376097D01*
X32463659Y-22376096D01*
X32463655Y-22376094D01*
X32235413Y-22314938D01*
X32235403Y-22314936D01*
X32000001Y-22294341D01*
X31999999Y-22294341D01*
X31764596Y-22314936D01*
X31764586Y-22314938D01*
X31536344Y-22376094D01*
X31536335Y-22376098D01*
X31322171Y-22475964D01*
X31322169Y-22475965D01*
X31128597Y-22611505D01*
X30961505Y-22778597D01*
X30825965Y-22972169D01*
X30825964Y-22972171D01*
X30726098Y-23186335D01*
X30726094Y-23186344D01*
X30664938Y-23414586D01*
X30664936Y-23414596D01*
X30644341Y-23649999D01*
X30644341Y-23650000D01*
X30664936Y-23885403D01*
X30664938Y-23885413D01*
X30726094Y-24113655D01*
X30726096Y-24113659D01*
X30726097Y-24113663D01*
X30818462Y-24311740D01*
X30825965Y-24327830D01*
X30825967Y-24327834D01*
X30961501Y-24521395D01*
X30961506Y-24521402D01*
X31128597Y-24688493D01*
X31128603Y-24688498D01*
X31314158Y-24818425D01*
X31357783Y-24873002D01*
X31364977Y-24942500D01*
X31333454Y-25004855D01*
X31314158Y-25021575D01*
X31128597Y-25151505D01*
X30961505Y-25318597D01*
X30825965Y-25512169D01*
X30825964Y-25512171D01*
X30726098Y-25726335D01*
X30726094Y-25726344D01*
X30664938Y-25954586D01*
X30664936Y-25954596D01*
X30644341Y-26189999D01*
X30644341Y-26190000D01*
X30664936Y-26425403D01*
X30664938Y-26425413D01*
X30726094Y-26653655D01*
X30726096Y-26653659D01*
X30726097Y-26653663D01*
X30825964Y-26867829D01*
X30825965Y-26867830D01*
X30825967Y-26867834D01*
X30961501Y-27061395D01*
X30961506Y-27061402D01*
X31128597Y-27228493D01*
X31128603Y-27228498D01*
X31314158Y-27358425D01*
X31357783Y-27413002D01*
X31364977Y-27482500D01*
X31333454Y-27544855D01*
X31314158Y-27561575D01*
X31128597Y-27691505D01*
X30961505Y-27858597D01*
X30825965Y-28052169D01*
X30825964Y-28052171D01*
X30726098Y-28266335D01*
X30726094Y-28266344D01*
X30664938Y-28494586D01*
X30664936Y-28494596D01*
X30644341Y-28729999D01*
X30644341Y-28730000D01*
X30664936Y-28965403D01*
X30664938Y-28965413D01*
X30726094Y-29193655D01*
X30726096Y-29193659D01*
X30726097Y-29193663D01*
X30797724Y-29347267D01*
X30825965Y-29407830D01*
X30825967Y-29407834D01*
X30961501Y-29601395D01*
X30961506Y-29601402D01*
X31128597Y-29768493D01*
X31128603Y-29768498D01*
X31314158Y-29898425D01*
X31357783Y-29953002D01*
X31364977Y-30022500D01*
X31333454Y-30084855D01*
X31314158Y-30101575D01*
X31128597Y-30231505D01*
X30961505Y-30398597D01*
X30825965Y-30592169D01*
X30825964Y-30592171D01*
X30726098Y-30806335D01*
X30726094Y-30806344D01*
X30664938Y-31034586D01*
X30664936Y-31034596D01*
X30644341Y-31269999D01*
X30644341Y-31270000D01*
X30664936Y-31505403D01*
X30664938Y-31505413D01*
X30726094Y-31733655D01*
X30726096Y-31733659D01*
X30726097Y-31733663D01*
X30762505Y-31811740D01*
X30825965Y-31947830D01*
X30825967Y-31947834D01*
X30961501Y-32141395D01*
X30961506Y-32141402D01*
X31128597Y-32308493D01*
X31128603Y-32308498D01*
X31314158Y-32438425D01*
X31357783Y-32493002D01*
X31364977Y-32562500D01*
X31333454Y-32624855D01*
X31314158Y-32641575D01*
X31128597Y-32771505D01*
X30961505Y-32938597D01*
X30825965Y-33132169D01*
X30825964Y-33132171D01*
X30726098Y-33346335D01*
X30726094Y-33346344D01*
X30664938Y-33574586D01*
X30664936Y-33574596D01*
X30644341Y-33809999D01*
X30644341Y-33810000D01*
X30000500Y-33810000D01*
X30000500Y-22002004D01*
X30000632Y-21997979D01*
X30000633Y-21997966D01*
X30005991Y-21916208D01*
X30018986Y-21734536D01*
X30020014Y-21726903D01*
X30043153Y-21610579D01*
X30044118Y-21606141D01*
X30074533Y-21466323D01*
X30076392Y-21459625D01*
X30116815Y-21340543D01*
X30166159Y-21208251D01*
X30168633Y-21202520D01*
X30225583Y-21087036D01*
X30292179Y-20965076D01*
X30295019Y-20960384D01*
X30366563Y-20853311D01*
X30368428Y-20850676D01*
X30450291Y-20741321D01*
X30453244Y-20737678D01*
X30538503Y-20640459D01*
X30541198Y-20637581D01*
X30637581Y-20541198D01*
X30640459Y-20538503D01*
X30737678Y-20453244D01*
X30741321Y-20450291D01*
X30850676Y-20368428D01*
X30853311Y-20366563D01*
X30960384Y-20295019D01*
X30965076Y-20292179D01*
X31087036Y-20225583D01*
X31202520Y-20168633D01*
X31208251Y-20166159D01*
X31340543Y-20116815D01*
X31459625Y-20076392D01*
X31466323Y-20074533D01*
X31610548Y-20043158D01*
X31726903Y-20020014D01*
X31734536Y-20018986D01*
X31916244Y-20005989D01*
X31969211Y-20002517D01*
X31997981Y-20000633D01*
X32002036Y-20000500D01*
X77997964Y-20000500D01*
X78002019Y-20000633D01*
G37*
%TD.AperFunction*%
%TD*%
M02*
