%TF.GenerationSoftware,KiCad,Pcbnew,7.0.7*%
%TF.CreationDate,2023-09-05T11:40:54+02:00*%
%TF.ProjectId,tle5010-11_pcb,746c6535-3031-4302-9d31-315f7063622e,rev?*%
%TF.SameCoordinates,Original*%
%TF.FileFunction,Drillmap*%
%TF.FilePolarity,Positive*%
%FSLAX45Y45*%
G04 Gerber Fmt 4.5, Leading zero omitted, Abs format (unit mm)*
G04 Created by KiCad (PCBNEW 7.0.7) date 2023-09-05 11:40:54*
%MOMM*%
%LPD*%
G01*
G04 APERTURE LIST*
%ADD10C,0.100000*%
%ADD11C,0.200000*%
%ADD12C,0.040000*%
G04 APERTURE END LIST*
D10*
X3000000Y-3800000D02*
G75*
G03*
X3200000Y-4000000I200000J0D01*
G01*
X8000000Y-3800000D02*
X8000000Y-2200000D01*
X3200000Y-2000000D02*
G75*
G03*
X3000000Y-2200000I0J-200000D01*
G01*
X7800000Y-2000000D02*
X3200000Y-2000000D01*
X7800000Y-4000000D02*
G75*
G03*
X8000000Y-3800000I0J200000D01*
G01*
X8000000Y-2200000D02*
G75*
G03*
X7800000Y-2000000I-200000J0D01*
G01*
X3200000Y-4000000D02*
X7800000Y-4000000D01*
X3000000Y-2200000D02*
X3000000Y-3800000D01*
D11*
D12*
X4720000Y-3480000D02*
X4760000Y-3520000D01*
X4760000Y-3480000D02*
X4720000Y-3520000D01*
X4730000Y-2430000D02*
X4770000Y-2470000D01*
X4770000Y-2430000D02*
X4730000Y-2470000D01*
X4730000Y-2780000D02*
X4770000Y-2820000D01*
X4770000Y-2780000D02*
X4730000Y-2820000D01*
X4730000Y-3180000D02*
X4770000Y-3220000D01*
X4770000Y-3180000D02*
X4730000Y-3220000D01*
D10*
X3250000Y-2365000D02*
G75*
G03*
X3250000Y-2365000I-50000J0D01*
G01*
X3250000Y-2619000D02*
G75*
G03*
X3250000Y-2619000I-50000J0D01*
G01*
X3250000Y-2873000D02*
G75*
G03*
X3250000Y-2873000I-50000J0D01*
G01*
X3250000Y-3127000D02*
G75*
G03*
X3250000Y-3127000I-50000J0D01*
G01*
X3250000Y-3381000D02*
G75*
G03*
X3250000Y-3381000I-50000J0D01*
G01*
X3250000Y-3635000D02*
G75*
G03*
X3250000Y-3635000I-50000J0D01*
G01*
D11*
X3255777Y-4316484D02*
X3255777Y-4116484D01*
X3255777Y-4116484D02*
X3303396Y-4116484D01*
X3303396Y-4116484D02*
X3331967Y-4126008D01*
X3331967Y-4126008D02*
X3351015Y-4145055D01*
X3351015Y-4145055D02*
X3360539Y-4164103D01*
X3360539Y-4164103D02*
X3370062Y-4202198D01*
X3370062Y-4202198D02*
X3370062Y-4230770D01*
X3370062Y-4230770D02*
X3360539Y-4268865D01*
X3360539Y-4268865D02*
X3351015Y-4287912D01*
X3351015Y-4287912D02*
X3331967Y-4306960D01*
X3331967Y-4306960D02*
X3303396Y-4316484D01*
X3303396Y-4316484D02*
X3255777Y-4316484D01*
X3455777Y-4316484D02*
X3455777Y-4183150D01*
X3455777Y-4221246D02*
X3465301Y-4202198D01*
X3465301Y-4202198D02*
X3474824Y-4192674D01*
X3474824Y-4192674D02*
X3493872Y-4183150D01*
X3493872Y-4183150D02*
X3512920Y-4183150D01*
X3579586Y-4316484D02*
X3579586Y-4183150D01*
X3579586Y-4116484D02*
X3570062Y-4126008D01*
X3570062Y-4126008D02*
X3579586Y-4135531D01*
X3579586Y-4135531D02*
X3589110Y-4126008D01*
X3589110Y-4126008D02*
X3579586Y-4116484D01*
X3579586Y-4116484D02*
X3579586Y-4135531D01*
X3703396Y-4316484D02*
X3684348Y-4306960D01*
X3684348Y-4306960D02*
X3674824Y-4287912D01*
X3674824Y-4287912D02*
X3674824Y-4116484D01*
X3808158Y-4316484D02*
X3789110Y-4306960D01*
X3789110Y-4306960D02*
X3779586Y-4287912D01*
X3779586Y-4287912D02*
X3779586Y-4116484D01*
X4036729Y-4316484D02*
X4036729Y-4116484D01*
X4036729Y-4116484D02*
X4103396Y-4259341D01*
X4103396Y-4259341D02*
X4170062Y-4116484D01*
X4170062Y-4116484D02*
X4170062Y-4316484D01*
X4351015Y-4316484D02*
X4351015Y-4211722D01*
X4351015Y-4211722D02*
X4341491Y-4192674D01*
X4341491Y-4192674D02*
X4322444Y-4183150D01*
X4322444Y-4183150D02*
X4284348Y-4183150D01*
X4284348Y-4183150D02*
X4265301Y-4192674D01*
X4351015Y-4306960D02*
X4331967Y-4316484D01*
X4331967Y-4316484D02*
X4284348Y-4316484D01*
X4284348Y-4316484D02*
X4265301Y-4306960D01*
X4265301Y-4306960D02*
X4255777Y-4287912D01*
X4255777Y-4287912D02*
X4255777Y-4268865D01*
X4255777Y-4268865D02*
X4265301Y-4249817D01*
X4265301Y-4249817D02*
X4284348Y-4240293D01*
X4284348Y-4240293D02*
X4331967Y-4240293D01*
X4331967Y-4240293D02*
X4351015Y-4230770D01*
X4446253Y-4183150D02*
X4446253Y-4383150D01*
X4446253Y-4192674D02*
X4465301Y-4183150D01*
X4465301Y-4183150D02*
X4503396Y-4183150D01*
X4503396Y-4183150D02*
X4522444Y-4192674D01*
X4522444Y-4192674D02*
X4531967Y-4202198D01*
X4531967Y-4202198D02*
X4541491Y-4221246D01*
X4541491Y-4221246D02*
X4541491Y-4278389D01*
X4541491Y-4278389D02*
X4531967Y-4297436D01*
X4531967Y-4297436D02*
X4522444Y-4306960D01*
X4522444Y-4306960D02*
X4503396Y-4316484D01*
X4503396Y-4316484D02*
X4465301Y-4316484D01*
X4465301Y-4316484D02*
X4446253Y-4306960D01*
X4627205Y-4297436D02*
X4636729Y-4306960D01*
X4636729Y-4306960D02*
X4627205Y-4316484D01*
X4627205Y-4316484D02*
X4617682Y-4306960D01*
X4617682Y-4306960D02*
X4627205Y-4297436D01*
X4627205Y-4297436D02*
X4627205Y-4316484D01*
X4627205Y-4192674D02*
X4636729Y-4202198D01*
X4636729Y-4202198D02*
X4627205Y-4211722D01*
X4627205Y-4211722D02*
X4617682Y-4202198D01*
X4617682Y-4202198D02*
X4627205Y-4192674D01*
X4627205Y-4192674D02*
X4627205Y-4211722D01*
D12*
X2955000Y-4625000D02*
X2995000Y-4665000D01*
X2995000Y-4625000D02*
X2955000Y-4665000D01*
D11*
X3293872Y-4536484D02*
X3312920Y-4536484D01*
X3312920Y-4536484D02*
X3331967Y-4546008D01*
X3331967Y-4546008D02*
X3341491Y-4555531D01*
X3341491Y-4555531D02*
X3351015Y-4574579D01*
X3351015Y-4574579D02*
X3360539Y-4612674D01*
X3360539Y-4612674D02*
X3360539Y-4660293D01*
X3360539Y-4660293D02*
X3351015Y-4698389D01*
X3351015Y-4698389D02*
X3341491Y-4717436D01*
X3341491Y-4717436D02*
X3331967Y-4726960D01*
X3331967Y-4726960D02*
X3312920Y-4736484D01*
X3312920Y-4736484D02*
X3293872Y-4736484D01*
X3293872Y-4736484D02*
X3274824Y-4726960D01*
X3274824Y-4726960D02*
X3265301Y-4717436D01*
X3265301Y-4717436D02*
X3255777Y-4698389D01*
X3255777Y-4698389D02*
X3246253Y-4660293D01*
X3246253Y-4660293D02*
X3246253Y-4612674D01*
X3246253Y-4612674D02*
X3255777Y-4574579D01*
X3255777Y-4574579D02*
X3265301Y-4555531D01*
X3265301Y-4555531D02*
X3274824Y-4546008D01*
X3274824Y-4546008D02*
X3293872Y-4536484D01*
X3446253Y-4717436D02*
X3455777Y-4726960D01*
X3455777Y-4726960D02*
X3446253Y-4736484D01*
X3446253Y-4736484D02*
X3436729Y-4726960D01*
X3436729Y-4726960D02*
X3446253Y-4717436D01*
X3446253Y-4717436D02*
X3446253Y-4736484D01*
X3627205Y-4603150D02*
X3627205Y-4736484D01*
X3579586Y-4526960D02*
X3531967Y-4669817D01*
X3531967Y-4669817D02*
X3655777Y-4669817D01*
X3770062Y-4536484D02*
X3789110Y-4536484D01*
X3789110Y-4536484D02*
X3808158Y-4546008D01*
X3808158Y-4546008D02*
X3817682Y-4555531D01*
X3817682Y-4555531D02*
X3827205Y-4574579D01*
X3827205Y-4574579D02*
X3836729Y-4612674D01*
X3836729Y-4612674D02*
X3836729Y-4660293D01*
X3836729Y-4660293D02*
X3827205Y-4698389D01*
X3827205Y-4698389D02*
X3817682Y-4717436D01*
X3817682Y-4717436D02*
X3808158Y-4726960D01*
X3808158Y-4726960D02*
X3789110Y-4736484D01*
X3789110Y-4736484D02*
X3770062Y-4736484D01*
X3770062Y-4736484D02*
X3751015Y-4726960D01*
X3751015Y-4726960D02*
X3741491Y-4717436D01*
X3741491Y-4717436D02*
X3731967Y-4698389D01*
X3731967Y-4698389D02*
X3722443Y-4660293D01*
X3722443Y-4660293D02*
X3722443Y-4612674D01*
X3722443Y-4612674D02*
X3731967Y-4574579D01*
X3731967Y-4574579D02*
X3741491Y-4555531D01*
X3741491Y-4555531D02*
X3751015Y-4546008D01*
X3751015Y-4546008D02*
X3770062Y-4536484D01*
X3960539Y-4536484D02*
X3979586Y-4536484D01*
X3979586Y-4536484D02*
X3998634Y-4546008D01*
X3998634Y-4546008D02*
X4008158Y-4555531D01*
X4008158Y-4555531D02*
X4017682Y-4574579D01*
X4017682Y-4574579D02*
X4027205Y-4612674D01*
X4027205Y-4612674D02*
X4027205Y-4660293D01*
X4027205Y-4660293D02*
X4017682Y-4698389D01*
X4017682Y-4698389D02*
X4008158Y-4717436D01*
X4008158Y-4717436D02*
X3998634Y-4726960D01*
X3998634Y-4726960D02*
X3979586Y-4736484D01*
X3979586Y-4736484D02*
X3960539Y-4736484D01*
X3960539Y-4736484D02*
X3941491Y-4726960D01*
X3941491Y-4726960D02*
X3931967Y-4717436D01*
X3931967Y-4717436D02*
X3922443Y-4698389D01*
X3922443Y-4698389D02*
X3912920Y-4660293D01*
X3912920Y-4660293D02*
X3912920Y-4612674D01*
X3912920Y-4612674D02*
X3922443Y-4574579D01*
X3922443Y-4574579D02*
X3931967Y-4555531D01*
X3931967Y-4555531D02*
X3941491Y-4546008D01*
X3941491Y-4546008D02*
X3960539Y-4536484D01*
X4112920Y-4736484D02*
X4112920Y-4603150D01*
X4112920Y-4622198D02*
X4122443Y-4612674D01*
X4122443Y-4612674D02*
X4141491Y-4603150D01*
X4141491Y-4603150D02*
X4170063Y-4603150D01*
X4170063Y-4603150D02*
X4189110Y-4612674D01*
X4189110Y-4612674D02*
X4198634Y-4631722D01*
X4198634Y-4631722D02*
X4198634Y-4736484D01*
X4198634Y-4631722D02*
X4208158Y-4612674D01*
X4208158Y-4612674D02*
X4227205Y-4603150D01*
X4227205Y-4603150D02*
X4255777Y-4603150D01*
X4255777Y-4603150D02*
X4274825Y-4612674D01*
X4274825Y-4612674D02*
X4284348Y-4631722D01*
X4284348Y-4631722D02*
X4284348Y-4736484D01*
X4379586Y-4736484D02*
X4379586Y-4603150D01*
X4379586Y-4622198D02*
X4389110Y-4612674D01*
X4389110Y-4612674D02*
X4408158Y-4603150D01*
X4408158Y-4603150D02*
X4436729Y-4603150D01*
X4436729Y-4603150D02*
X4455777Y-4612674D01*
X4455777Y-4612674D02*
X4465301Y-4631722D01*
X4465301Y-4631722D02*
X4465301Y-4736484D01*
X4465301Y-4631722D02*
X4474825Y-4612674D01*
X4474825Y-4612674D02*
X4493872Y-4603150D01*
X4493872Y-4603150D02*
X4522444Y-4603150D01*
X4522444Y-4603150D02*
X4541491Y-4612674D01*
X4541491Y-4612674D02*
X4551015Y-4631722D01*
X4551015Y-4631722D02*
X4551015Y-4736484D01*
X4941491Y-4526960D02*
X4770063Y-4784103D01*
X5198634Y-4536484D02*
X5217682Y-4536484D01*
X5217682Y-4536484D02*
X5236729Y-4546008D01*
X5236729Y-4546008D02*
X5246253Y-4555531D01*
X5246253Y-4555531D02*
X5255777Y-4574579D01*
X5255777Y-4574579D02*
X5265301Y-4612674D01*
X5265301Y-4612674D02*
X5265301Y-4660293D01*
X5265301Y-4660293D02*
X5255777Y-4698389D01*
X5255777Y-4698389D02*
X5246253Y-4717436D01*
X5246253Y-4717436D02*
X5236729Y-4726960D01*
X5236729Y-4726960D02*
X5217682Y-4736484D01*
X5217682Y-4736484D02*
X5198634Y-4736484D01*
X5198634Y-4736484D02*
X5179587Y-4726960D01*
X5179587Y-4726960D02*
X5170063Y-4717436D01*
X5170063Y-4717436D02*
X5160539Y-4698389D01*
X5160539Y-4698389D02*
X5151015Y-4660293D01*
X5151015Y-4660293D02*
X5151015Y-4612674D01*
X5151015Y-4612674D02*
X5160539Y-4574579D01*
X5160539Y-4574579D02*
X5170063Y-4555531D01*
X5170063Y-4555531D02*
X5179587Y-4546008D01*
X5179587Y-4546008D02*
X5198634Y-4536484D01*
X5351015Y-4717436D02*
X5360539Y-4726960D01*
X5360539Y-4726960D02*
X5351015Y-4736484D01*
X5351015Y-4736484D02*
X5341491Y-4726960D01*
X5341491Y-4726960D02*
X5351015Y-4717436D01*
X5351015Y-4717436D02*
X5351015Y-4736484D01*
X5484348Y-4536484D02*
X5503396Y-4536484D01*
X5503396Y-4536484D02*
X5522444Y-4546008D01*
X5522444Y-4546008D02*
X5531968Y-4555531D01*
X5531968Y-4555531D02*
X5541491Y-4574579D01*
X5541491Y-4574579D02*
X5551015Y-4612674D01*
X5551015Y-4612674D02*
X5551015Y-4660293D01*
X5551015Y-4660293D02*
X5541491Y-4698389D01*
X5541491Y-4698389D02*
X5531968Y-4717436D01*
X5531968Y-4717436D02*
X5522444Y-4726960D01*
X5522444Y-4726960D02*
X5503396Y-4736484D01*
X5503396Y-4736484D02*
X5484348Y-4736484D01*
X5484348Y-4736484D02*
X5465301Y-4726960D01*
X5465301Y-4726960D02*
X5455777Y-4717436D01*
X5455777Y-4717436D02*
X5446253Y-4698389D01*
X5446253Y-4698389D02*
X5436729Y-4660293D01*
X5436729Y-4660293D02*
X5436729Y-4612674D01*
X5436729Y-4612674D02*
X5446253Y-4574579D01*
X5446253Y-4574579D02*
X5455777Y-4555531D01*
X5455777Y-4555531D02*
X5465301Y-4546008D01*
X5465301Y-4546008D02*
X5484348Y-4536484D01*
X5741491Y-4736484D02*
X5627206Y-4736484D01*
X5684348Y-4736484D02*
X5684348Y-4536484D01*
X5684348Y-4536484D02*
X5665301Y-4565055D01*
X5665301Y-4565055D02*
X5646253Y-4584103D01*
X5646253Y-4584103D02*
X5627206Y-4593627D01*
X5922444Y-4536484D02*
X5827206Y-4536484D01*
X5827206Y-4536484D02*
X5817682Y-4631722D01*
X5817682Y-4631722D02*
X5827206Y-4622198D01*
X5827206Y-4622198D02*
X5846253Y-4612674D01*
X5846253Y-4612674D02*
X5893872Y-4612674D01*
X5893872Y-4612674D02*
X5912920Y-4622198D01*
X5912920Y-4622198D02*
X5922444Y-4631722D01*
X5922444Y-4631722D02*
X5931967Y-4650770D01*
X5931967Y-4650770D02*
X5931967Y-4698389D01*
X5931967Y-4698389D02*
X5922444Y-4717436D01*
X5922444Y-4717436D02*
X5912920Y-4726960D01*
X5912920Y-4726960D02*
X5893872Y-4736484D01*
X5893872Y-4736484D02*
X5846253Y-4736484D01*
X5846253Y-4736484D02*
X5827206Y-4726960D01*
X5827206Y-4726960D02*
X5817682Y-4717436D01*
X5998634Y-4536484D02*
X6131967Y-4536484D01*
X6131967Y-4536484D02*
X6046253Y-4736484D01*
X6198634Y-4536484D02*
X6198634Y-4574579D01*
X6274825Y-4536484D02*
X6274825Y-4574579D01*
X6570063Y-4812674D02*
X6560539Y-4803150D01*
X6560539Y-4803150D02*
X6541491Y-4774579D01*
X6541491Y-4774579D02*
X6531968Y-4755531D01*
X6531968Y-4755531D02*
X6522444Y-4726960D01*
X6522444Y-4726960D02*
X6512920Y-4679341D01*
X6512920Y-4679341D02*
X6512920Y-4641246D01*
X6512920Y-4641246D02*
X6522444Y-4593627D01*
X6522444Y-4593627D02*
X6531968Y-4565055D01*
X6531968Y-4565055D02*
X6541491Y-4546008D01*
X6541491Y-4546008D02*
X6560539Y-4517436D01*
X6560539Y-4517436D02*
X6570063Y-4507912D01*
X6731968Y-4603150D02*
X6731968Y-4736484D01*
X6684348Y-4526960D02*
X6636729Y-4669817D01*
X6636729Y-4669817D02*
X6760539Y-4669817D01*
X6989110Y-4736484D02*
X6989110Y-4536484D01*
X7074825Y-4736484D02*
X7074825Y-4631722D01*
X7074825Y-4631722D02*
X7065301Y-4612674D01*
X7065301Y-4612674D02*
X7046253Y-4603150D01*
X7046253Y-4603150D02*
X7017682Y-4603150D01*
X7017682Y-4603150D02*
X6998634Y-4612674D01*
X6998634Y-4612674D02*
X6989110Y-4622198D01*
X7198634Y-4736484D02*
X7179587Y-4726960D01*
X7179587Y-4726960D02*
X7170063Y-4717436D01*
X7170063Y-4717436D02*
X7160539Y-4698389D01*
X7160539Y-4698389D02*
X7160539Y-4641246D01*
X7160539Y-4641246D02*
X7170063Y-4622198D01*
X7170063Y-4622198D02*
X7179587Y-4612674D01*
X7179587Y-4612674D02*
X7198634Y-4603150D01*
X7198634Y-4603150D02*
X7227206Y-4603150D01*
X7227206Y-4603150D02*
X7246253Y-4612674D01*
X7246253Y-4612674D02*
X7255777Y-4622198D01*
X7255777Y-4622198D02*
X7265301Y-4641246D01*
X7265301Y-4641246D02*
X7265301Y-4698389D01*
X7265301Y-4698389D02*
X7255777Y-4717436D01*
X7255777Y-4717436D02*
X7246253Y-4726960D01*
X7246253Y-4726960D02*
X7227206Y-4736484D01*
X7227206Y-4736484D02*
X7198634Y-4736484D01*
X7379587Y-4736484D02*
X7360539Y-4726960D01*
X7360539Y-4726960D02*
X7351015Y-4707912D01*
X7351015Y-4707912D02*
X7351015Y-4536484D01*
X7531968Y-4726960D02*
X7512920Y-4736484D01*
X7512920Y-4736484D02*
X7474825Y-4736484D01*
X7474825Y-4736484D02*
X7455777Y-4726960D01*
X7455777Y-4726960D02*
X7446253Y-4707912D01*
X7446253Y-4707912D02*
X7446253Y-4631722D01*
X7446253Y-4631722D02*
X7455777Y-4612674D01*
X7455777Y-4612674D02*
X7474825Y-4603150D01*
X7474825Y-4603150D02*
X7512920Y-4603150D01*
X7512920Y-4603150D02*
X7531968Y-4612674D01*
X7531968Y-4612674D02*
X7541491Y-4631722D01*
X7541491Y-4631722D02*
X7541491Y-4650770D01*
X7541491Y-4650770D02*
X7446253Y-4669817D01*
X7617682Y-4726960D02*
X7636730Y-4736484D01*
X7636730Y-4736484D02*
X7674825Y-4736484D01*
X7674825Y-4736484D02*
X7693872Y-4726960D01*
X7693872Y-4726960D02*
X7703396Y-4707912D01*
X7703396Y-4707912D02*
X7703396Y-4698389D01*
X7703396Y-4698389D02*
X7693872Y-4679341D01*
X7693872Y-4679341D02*
X7674825Y-4669817D01*
X7674825Y-4669817D02*
X7646253Y-4669817D01*
X7646253Y-4669817D02*
X7627206Y-4660293D01*
X7627206Y-4660293D02*
X7617682Y-4641246D01*
X7617682Y-4641246D02*
X7617682Y-4631722D01*
X7617682Y-4631722D02*
X7627206Y-4612674D01*
X7627206Y-4612674D02*
X7646253Y-4603150D01*
X7646253Y-4603150D02*
X7674825Y-4603150D01*
X7674825Y-4603150D02*
X7693872Y-4612674D01*
X7770063Y-4812674D02*
X7779587Y-4803150D01*
X7779587Y-4803150D02*
X7798634Y-4774579D01*
X7798634Y-4774579D02*
X7808158Y-4755531D01*
X7808158Y-4755531D02*
X7817682Y-4726960D01*
X7817682Y-4726960D02*
X7827206Y-4679341D01*
X7827206Y-4679341D02*
X7827206Y-4641246D01*
X7827206Y-4641246D02*
X7817682Y-4593627D01*
X7817682Y-4593627D02*
X7808158Y-4565055D01*
X7808158Y-4565055D02*
X7798634Y-4546008D01*
X7798634Y-4546008D02*
X7779587Y-4517436D01*
X7779587Y-4517436D02*
X7770063Y-4507912D01*
D10*
X2995000Y-4909000D02*
G75*
G03*
X2995000Y-4909000I-50000J0D01*
G01*
D11*
X3360539Y-5000484D02*
X3246253Y-5000484D01*
X3303396Y-5000484D02*
X3303396Y-4800484D01*
X3303396Y-4800484D02*
X3284348Y-4829055D01*
X3284348Y-4829055D02*
X3265301Y-4848103D01*
X3265301Y-4848103D02*
X3246253Y-4857627D01*
X3446253Y-4981436D02*
X3455777Y-4990960D01*
X3455777Y-4990960D02*
X3446253Y-5000484D01*
X3446253Y-5000484D02*
X3436729Y-4990960D01*
X3436729Y-4990960D02*
X3446253Y-4981436D01*
X3446253Y-4981436D02*
X3446253Y-5000484D01*
X3579586Y-4800484D02*
X3598634Y-4800484D01*
X3598634Y-4800484D02*
X3617682Y-4810008D01*
X3617682Y-4810008D02*
X3627205Y-4819531D01*
X3627205Y-4819531D02*
X3636729Y-4838579D01*
X3636729Y-4838579D02*
X3646253Y-4876674D01*
X3646253Y-4876674D02*
X3646253Y-4924293D01*
X3646253Y-4924293D02*
X3636729Y-4962389D01*
X3636729Y-4962389D02*
X3627205Y-4981436D01*
X3627205Y-4981436D02*
X3617682Y-4990960D01*
X3617682Y-4990960D02*
X3598634Y-5000484D01*
X3598634Y-5000484D02*
X3579586Y-5000484D01*
X3579586Y-5000484D02*
X3560539Y-4990960D01*
X3560539Y-4990960D02*
X3551015Y-4981436D01*
X3551015Y-4981436D02*
X3541491Y-4962389D01*
X3541491Y-4962389D02*
X3531967Y-4924293D01*
X3531967Y-4924293D02*
X3531967Y-4876674D01*
X3531967Y-4876674D02*
X3541491Y-4838579D01*
X3541491Y-4838579D02*
X3551015Y-4819531D01*
X3551015Y-4819531D02*
X3560539Y-4810008D01*
X3560539Y-4810008D02*
X3579586Y-4800484D01*
X3770062Y-4800484D02*
X3789110Y-4800484D01*
X3789110Y-4800484D02*
X3808158Y-4810008D01*
X3808158Y-4810008D02*
X3817682Y-4819531D01*
X3817682Y-4819531D02*
X3827205Y-4838579D01*
X3827205Y-4838579D02*
X3836729Y-4876674D01*
X3836729Y-4876674D02*
X3836729Y-4924293D01*
X3836729Y-4924293D02*
X3827205Y-4962389D01*
X3827205Y-4962389D02*
X3817682Y-4981436D01*
X3817682Y-4981436D02*
X3808158Y-4990960D01*
X3808158Y-4990960D02*
X3789110Y-5000484D01*
X3789110Y-5000484D02*
X3770062Y-5000484D01*
X3770062Y-5000484D02*
X3751015Y-4990960D01*
X3751015Y-4990960D02*
X3741491Y-4981436D01*
X3741491Y-4981436D02*
X3731967Y-4962389D01*
X3731967Y-4962389D02*
X3722443Y-4924293D01*
X3722443Y-4924293D02*
X3722443Y-4876674D01*
X3722443Y-4876674D02*
X3731967Y-4838579D01*
X3731967Y-4838579D02*
X3741491Y-4819531D01*
X3741491Y-4819531D02*
X3751015Y-4810008D01*
X3751015Y-4810008D02*
X3770062Y-4800484D01*
X3960539Y-4800484D02*
X3979586Y-4800484D01*
X3979586Y-4800484D02*
X3998634Y-4810008D01*
X3998634Y-4810008D02*
X4008158Y-4819531D01*
X4008158Y-4819531D02*
X4017682Y-4838579D01*
X4017682Y-4838579D02*
X4027205Y-4876674D01*
X4027205Y-4876674D02*
X4027205Y-4924293D01*
X4027205Y-4924293D02*
X4017682Y-4962389D01*
X4017682Y-4962389D02*
X4008158Y-4981436D01*
X4008158Y-4981436D02*
X3998634Y-4990960D01*
X3998634Y-4990960D02*
X3979586Y-5000484D01*
X3979586Y-5000484D02*
X3960539Y-5000484D01*
X3960539Y-5000484D02*
X3941491Y-4990960D01*
X3941491Y-4990960D02*
X3931967Y-4981436D01*
X3931967Y-4981436D02*
X3922443Y-4962389D01*
X3922443Y-4962389D02*
X3912920Y-4924293D01*
X3912920Y-4924293D02*
X3912920Y-4876674D01*
X3912920Y-4876674D02*
X3922443Y-4838579D01*
X3922443Y-4838579D02*
X3931967Y-4819531D01*
X3931967Y-4819531D02*
X3941491Y-4810008D01*
X3941491Y-4810008D02*
X3960539Y-4800484D01*
X4112920Y-5000484D02*
X4112920Y-4867150D01*
X4112920Y-4886198D02*
X4122443Y-4876674D01*
X4122443Y-4876674D02*
X4141491Y-4867150D01*
X4141491Y-4867150D02*
X4170063Y-4867150D01*
X4170063Y-4867150D02*
X4189110Y-4876674D01*
X4189110Y-4876674D02*
X4198634Y-4895722D01*
X4198634Y-4895722D02*
X4198634Y-5000484D01*
X4198634Y-4895722D02*
X4208158Y-4876674D01*
X4208158Y-4876674D02*
X4227205Y-4867150D01*
X4227205Y-4867150D02*
X4255777Y-4867150D01*
X4255777Y-4867150D02*
X4274825Y-4876674D01*
X4274825Y-4876674D02*
X4284348Y-4895722D01*
X4284348Y-4895722D02*
X4284348Y-5000484D01*
X4379586Y-5000484D02*
X4379586Y-4867150D01*
X4379586Y-4886198D02*
X4389110Y-4876674D01*
X4389110Y-4876674D02*
X4408158Y-4867150D01*
X4408158Y-4867150D02*
X4436729Y-4867150D01*
X4436729Y-4867150D02*
X4455777Y-4876674D01*
X4455777Y-4876674D02*
X4465301Y-4895722D01*
X4465301Y-4895722D02*
X4465301Y-5000484D01*
X4465301Y-4895722D02*
X4474825Y-4876674D01*
X4474825Y-4876674D02*
X4493872Y-4867150D01*
X4493872Y-4867150D02*
X4522444Y-4867150D01*
X4522444Y-4867150D02*
X4541491Y-4876674D01*
X4541491Y-4876674D02*
X4551015Y-4895722D01*
X4551015Y-4895722D02*
X4551015Y-5000484D01*
X4941491Y-4790960D02*
X4770063Y-5048103D01*
X5198634Y-4800484D02*
X5217682Y-4800484D01*
X5217682Y-4800484D02*
X5236729Y-4810008D01*
X5236729Y-4810008D02*
X5246253Y-4819531D01*
X5246253Y-4819531D02*
X5255777Y-4838579D01*
X5255777Y-4838579D02*
X5265301Y-4876674D01*
X5265301Y-4876674D02*
X5265301Y-4924293D01*
X5265301Y-4924293D02*
X5255777Y-4962389D01*
X5255777Y-4962389D02*
X5246253Y-4981436D01*
X5246253Y-4981436D02*
X5236729Y-4990960D01*
X5236729Y-4990960D02*
X5217682Y-5000484D01*
X5217682Y-5000484D02*
X5198634Y-5000484D01*
X5198634Y-5000484D02*
X5179587Y-4990960D01*
X5179587Y-4990960D02*
X5170063Y-4981436D01*
X5170063Y-4981436D02*
X5160539Y-4962389D01*
X5160539Y-4962389D02*
X5151015Y-4924293D01*
X5151015Y-4924293D02*
X5151015Y-4876674D01*
X5151015Y-4876674D02*
X5160539Y-4838579D01*
X5160539Y-4838579D02*
X5170063Y-4819531D01*
X5170063Y-4819531D02*
X5179587Y-4810008D01*
X5179587Y-4810008D02*
X5198634Y-4800484D01*
X5351015Y-4981436D02*
X5360539Y-4990960D01*
X5360539Y-4990960D02*
X5351015Y-5000484D01*
X5351015Y-5000484D02*
X5341491Y-4990960D01*
X5341491Y-4990960D02*
X5351015Y-4981436D01*
X5351015Y-4981436D02*
X5351015Y-5000484D01*
X5484348Y-4800484D02*
X5503396Y-4800484D01*
X5503396Y-4800484D02*
X5522444Y-4810008D01*
X5522444Y-4810008D02*
X5531968Y-4819531D01*
X5531968Y-4819531D02*
X5541491Y-4838579D01*
X5541491Y-4838579D02*
X5551015Y-4876674D01*
X5551015Y-4876674D02*
X5551015Y-4924293D01*
X5551015Y-4924293D02*
X5541491Y-4962389D01*
X5541491Y-4962389D02*
X5531968Y-4981436D01*
X5531968Y-4981436D02*
X5522444Y-4990960D01*
X5522444Y-4990960D02*
X5503396Y-5000484D01*
X5503396Y-5000484D02*
X5484348Y-5000484D01*
X5484348Y-5000484D02*
X5465301Y-4990960D01*
X5465301Y-4990960D02*
X5455777Y-4981436D01*
X5455777Y-4981436D02*
X5446253Y-4962389D01*
X5446253Y-4962389D02*
X5436729Y-4924293D01*
X5436729Y-4924293D02*
X5436729Y-4876674D01*
X5436729Y-4876674D02*
X5446253Y-4838579D01*
X5446253Y-4838579D02*
X5455777Y-4819531D01*
X5455777Y-4819531D02*
X5465301Y-4810008D01*
X5465301Y-4810008D02*
X5484348Y-4800484D01*
X5617682Y-4800484D02*
X5741491Y-4800484D01*
X5741491Y-4800484D02*
X5674825Y-4876674D01*
X5674825Y-4876674D02*
X5703396Y-4876674D01*
X5703396Y-4876674D02*
X5722444Y-4886198D01*
X5722444Y-4886198D02*
X5731967Y-4895722D01*
X5731967Y-4895722D02*
X5741491Y-4914770D01*
X5741491Y-4914770D02*
X5741491Y-4962389D01*
X5741491Y-4962389D02*
X5731967Y-4981436D01*
X5731967Y-4981436D02*
X5722444Y-4990960D01*
X5722444Y-4990960D02*
X5703396Y-5000484D01*
X5703396Y-5000484D02*
X5646253Y-5000484D01*
X5646253Y-5000484D02*
X5627206Y-4990960D01*
X5627206Y-4990960D02*
X5617682Y-4981436D01*
X5836729Y-5000484D02*
X5874825Y-5000484D01*
X5874825Y-5000484D02*
X5893872Y-4990960D01*
X5893872Y-4990960D02*
X5903396Y-4981436D01*
X5903396Y-4981436D02*
X5922444Y-4952865D01*
X5922444Y-4952865D02*
X5931967Y-4914770D01*
X5931967Y-4914770D02*
X5931967Y-4838579D01*
X5931967Y-4838579D02*
X5922444Y-4819531D01*
X5922444Y-4819531D02*
X5912920Y-4810008D01*
X5912920Y-4810008D02*
X5893872Y-4800484D01*
X5893872Y-4800484D02*
X5855777Y-4800484D01*
X5855777Y-4800484D02*
X5836729Y-4810008D01*
X5836729Y-4810008D02*
X5827206Y-4819531D01*
X5827206Y-4819531D02*
X5817682Y-4838579D01*
X5817682Y-4838579D02*
X5817682Y-4886198D01*
X5817682Y-4886198D02*
X5827206Y-4905246D01*
X5827206Y-4905246D02*
X5836729Y-4914770D01*
X5836729Y-4914770D02*
X5855777Y-4924293D01*
X5855777Y-4924293D02*
X5893872Y-4924293D01*
X5893872Y-4924293D02*
X5912920Y-4914770D01*
X5912920Y-4914770D02*
X5922444Y-4905246D01*
X5922444Y-4905246D02*
X5931967Y-4886198D01*
X6103396Y-4867150D02*
X6103396Y-5000484D01*
X6055777Y-4790960D02*
X6008158Y-4933817D01*
X6008158Y-4933817D02*
X6131967Y-4933817D01*
X6198634Y-4800484D02*
X6198634Y-4838579D01*
X6274825Y-4800484D02*
X6274825Y-4838579D01*
X6570063Y-5076674D02*
X6560539Y-5067150D01*
X6560539Y-5067150D02*
X6541491Y-5038579D01*
X6541491Y-5038579D02*
X6531968Y-5019531D01*
X6531968Y-5019531D02*
X6522444Y-4990960D01*
X6522444Y-4990960D02*
X6512920Y-4943341D01*
X6512920Y-4943341D02*
X6512920Y-4905246D01*
X6512920Y-4905246D02*
X6522444Y-4857627D01*
X6522444Y-4857627D02*
X6531968Y-4829055D01*
X6531968Y-4829055D02*
X6541491Y-4810008D01*
X6541491Y-4810008D02*
X6560539Y-4781436D01*
X6560539Y-4781436D02*
X6570063Y-4771912D01*
X6731968Y-4800484D02*
X6693872Y-4800484D01*
X6693872Y-4800484D02*
X6674825Y-4810008D01*
X6674825Y-4810008D02*
X6665301Y-4819531D01*
X6665301Y-4819531D02*
X6646253Y-4848103D01*
X6646253Y-4848103D02*
X6636729Y-4886198D01*
X6636729Y-4886198D02*
X6636729Y-4962389D01*
X6636729Y-4962389D02*
X6646253Y-4981436D01*
X6646253Y-4981436D02*
X6655777Y-4990960D01*
X6655777Y-4990960D02*
X6674825Y-5000484D01*
X6674825Y-5000484D02*
X6712920Y-5000484D01*
X6712920Y-5000484D02*
X6731968Y-4990960D01*
X6731968Y-4990960D02*
X6741491Y-4981436D01*
X6741491Y-4981436D02*
X6751015Y-4962389D01*
X6751015Y-4962389D02*
X6751015Y-4914770D01*
X6751015Y-4914770D02*
X6741491Y-4895722D01*
X6741491Y-4895722D02*
X6731968Y-4886198D01*
X6731968Y-4886198D02*
X6712920Y-4876674D01*
X6712920Y-4876674D02*
X6674825Y-4876674D01*
X6674825Y-4876674D02*
X6655777Y-4886198D01*
X6655777Y-4886198D02*
X6646253Y-4895722D01*
X6646253Y-4895722D02*
X6636729Y-4914770D01*
X6989110Y-5000484D02*
X6989110Y-4800484D01*
X7074825Y-5000484D02*
X7074825Y-4895722D01*
X7074825Y-4895722D02*
X7065301Y-4876674D01*
X7065301Y-4876674D02*
X7046253Y-4867150D01*
X7046253Y-4867150D02*
X7017682Y-4867150D01*
X7017682Y-4867150D02*
X6998634Y-4876674D01*
X6998634Y-4876674D02*
X6989110Y-4886198D01*
X7198634Y-5000484D02*
X7179587Y-4990960D01*
X7179587Y-4990960D02*
X7170063Y-4981436D01*
X7170063Y-4981436D02*
X7160539Y-4962389D01*
X7160539Y-4962389D02*
X7160539Y-4905246D01*
X7160539Y-4905246D02*
X7170063Y-4886198D01*
X7170063Y-4886198D02*
X7179587Y-4876674D01*
X7179587Y-4876674D02*
X7198634Y-4867150D01*
X7198634Y-4867150D02*
X7227206Y-4867150D01*
X7227206Y-4867150D02*
X7246253Y-4876674D01*
X7246253Y-4876674D02*
X7255777Y-4886198D01*
X7255777Y-4886198D02*
X7265301Y-4905246D01*
X7265301Y-4905246D02*
X7265301Y-4962389D01*
X7265301Y-4962389D02*
X7255777Y-4981436D01*
X7255777Y-4981436D02*
X7246253Y-4990960D01*
X7246253Y-4990960D02*
X7227206Y-5000484D01*
X7227206Y-5000484D02*
X7198634Y-5000484D01*
X7379587Y-5000484D02*
X7360539Y-4990960D01*
X7360539Y-4990960D02*
X7351015Y-4971912D01*
X7351015Y-4971912D02*
X7351015Y-4800484D01*
X7531968Y-4990960D02*
X7512920Y-5000484D01*
X7512920Y-5000484D02*
X7474825Y-5000484D01*
X7474825Y-5000484D02*
X7455777Y-4990960D01*
X7455777Y-4990960D02*
X7446253Y-4971912D01*
X7446253Y-4971912D02*
X7446253Y-4895722D01*
X7446253Y-4895722D02*
X7455777Y-4876674D01*
X7455777Y-4876674D02*
X7474825Y-4867150D01*
X7474825Y-4867150D02*
X7512920Y-4867150D01*
X7512920Y-4867150D02*
X7531968Y-4876674D01*
X7531968Y-4876674D02*
X7541491Y-4895722D01*
X7541491Y-4895722D02*
X7541491Y-4914770D01*
X7541491Y-4914770D02*
X7446253Y-4933817D01*
X7617682Y-4990960D02*
X7636730Y-5000484D01*
X7636730Y-5000484D02*
X7674825Y-5000484D01*
X7674825Y-5000484D02*
X7693872Y-4990960D01*
X7693872Y-4990960D02*
X7703396Y-4971912D01*
X7703396Y-4971912D02*
X7703396Y-4962389D01*
X7703396Y-4962389D02*
X7693872Y-4943341D01*
X7693872Y-4943341D02*
X7674825Y-4933817D01*
X7674825Y-4933817D02*
X7646253Y-4933817D01*
X7646253Y-4933817D02*
X7627206Y-4924293D01*
X7627206Y-4924293D02*
X7617682Y-4905246D01*
X7617682Y-4905246D02*
X7617682Y-4895722D01*
X7617682Y-4895722D02*
X7627206Y-4876674D01*
X7627206Y-4876674D02*
X7646253Y-4867150D01*
X7646253Y-4867150D02*
X7674825Y-4867150D01*
X7674825Y-4867150D02*
X7693872Y-4876674D01*
X7770063Y-5076674D02*
X7779587Y-5067150D01*
X7779587Y-5067150D02*
X7798634Y-5038579D01*
X7798634Y-5038579D02*
X7808158Y-5019531D01*
X7808158Y-5019531D02*
X7817682Y-4990960D01*
X7817682Y-4990960D02*
X7827206Y-4943341D01*
X7827206Y-4943341D02*
X7827206Y-4905246D01*
X7827206Y-4905246D02*
X7817682Y-4857627D01*
X7817682Y-4857627D02*
X7808158Y-4829055D01*
X7808158Y-4829055D02*
X7798634Y-4810008D01*
X7798634Y-4810008D02*
X7779587Y-4781436D01*
X7779587Y-4781436D02*
X7770063Y-4771912D01*
M02*
