%TF.GenerationSoftware,KiCad,Pcbnew,7.0.7*%
%TF.CreationDate,2023-09-05T11:40:51+02:00*%
%TF.ProjectId,tle5010-11_pcb,746c6535-3031-4302-9d31-315f7063622e,rev?*%
%TF.SameCoordinates,Original*%
%TF.FileFunction,Legend,Bot*%
%TF.FilePolarity,Positive*%
%FSLAX46Y46*%
G04 Gerber Fmt 4.6, Leading zero omitted, Abs format (unit mm)*
G04 Created by KiCad (PCBNEW 7.0.7) date 2023-09-05 11:40:51*
%MOMM*%
%LPD*%
G01*
G04 APERTURE LIST*
%ADD10C,0.200000*%
%ADD11C,0.150000*%
%ADD12C,0.120000*%
G04 APERTURE END LIST*
D10*
X57238095Y-28037219D02*
X57571428Y-27561028D01*
X57809523Y-28037219D02*
X57809523Y-27037219D01*
X57809523Y-27037219D02*
X57428571Y-27037219D01*
X57428571Y-27037219D02*
X57333333Y-27084838D01*
X57333333Y-27084838D02*
X57285714Y-27132457D01*
X57285714Y-27132457D02*
X57238095Y-27227695D01*
X57238095Y-27227695D02*
X57238095Y-27370552D01*
X57238095Y-27370552D02*
X57285714Y-27465790D01*
X57285714Y-27465790D02*
X57333333Y-27513409D01*
X57333333Y-27513409D02*
X57428571Y-27561028D01*
X57428571Y-27561028D02*
X57809523Y-27561028D01*
X56285714Y-28037219D02*
X56857142Y-28037219D01*
X56571428Y-28037219D02*
X56571428Y-27037219D01*
X56571428Y-27037219D02*
X56666666Y-27180076D01*
X56666666Y-27180076D02*
X56761904Y-27275314D01*
X56761904Y-27275314D02*
X56857142Y-27322933D01*
X55857142Y-27941980D02*
X55809523Y-27989600D01*
X55809523Y-27989600D02*
X55857142Y-28037219D01*
X55857142Y-28037219D02*
X55904761Y-27989600D01*
X55904761Y-27989600D02*
X55857142Y-27941980D01*
X55857142Y-27941980D02*
X55857142Y-28037219D01*
X55857142Y-27418171D02*
X55809523Y-27465790D01*
X55809523Y-27465790D02*
X55857142Y-27513409D01*
X55857142Y-27513409D02*
X55904761Y-27465790D01*
X55904761Y-27465790D02*
X55857142Y-27418171D01*
X55857142Y-27418171D02*
X55857142Y-27513409D01*
X54142857Y-27037219D02*
X54619047Y-27037219D01*
X54619047Y-27037219D02*
X54666666Y-27513409D01*
X54666666Y-27513409D02*
X54619047Y-27465790D01*
X54619047Y-27465790D02*
X54523809Y-27418171D01*
X54523809Y-27418171D02*
X54285714Y-27418171D01*
X54285714Y-27418171D02*
X54190476Y-27465790D01*
X54190476Y-27465790D02*
X54142857Y-27513409D01*
X54142857Y-27513409D02*
X54095238Y-27608647D01*
X54095238Y-27608647D02*
X54095238Y-27846742D01*
X54095238Y-27846742D02*
X54142857Y-27941980D01*
X54142857Y-27941980D02*
X54190476Y-27989600D01*
X54190476Y-27989600D02*
X54285714Y-28037219D01*
X54285714Y-28037219D02*
X54523809Y-28037219D01*
X54523809Y-28037219D02*
X54619047Y-27989600D01*
X54619047Y-27989600D02*
X54666666Y-27941980D01*
X53476190Y-27037219D02*
X53380952Y-27037219D01*
X53380952Y-27037219D02*
X53285714Y-27084838D01*
X53285714Y-27084838D02*
X53238095Y-27132457D01*
X53238095Y-27132457D02*
X53190476Y-27227695D01*
X53190476Y-27227695D02*
X53142857Y-27418171D01*
X53142857Y-27418171D02*
X53142857Y-27656266D01*
X53142857Y-27656266D02*
X53190476Y-27846742D01*
X53190476Y-27846742D02*
X53238095Y-27941980D01*
X53238095Y-27941980D02*
X53285714Y-27989600D01*
X53285714Y-27989600D02*
X53380952Y-28037219D01*
X53380952Y-28037219D02*
X53476190Y-28037219D01*
X53476190Y-28037219D02*
X53571428Y-27989600D01*
X53571428Y-27989600D02*
X53619047Y-27941980D01*
X53619047Y-27941980D02*
X53666666Y-27846742D01*
X53666666Y-27846742D02*
X53714285Y-27656266D01*
X53714285Y-27656266D02*
X53714285Y-27418171D01*
X53714285Y-27418171D02*
X53666666Y-27227695D01*
X53666666Y-27227695D02*
X53619047Y-27132457D01*
X53619047Y-27132457D02*
X53571428Y-27084838D01*
X53571428Y-27084838D02*
X53476190Y-27037219D01*
X52142857Y-28037219D02*
X52476190Y-27561028D01*
X52714285Y-28037219D02*
X52714285Y-27037219D01*
X52714285Y-27037219D02*
X52333333Y-27037219D01*
X52333333Y-27037219D02*
X52238095Y-27084838D01*
X52238095Y-27084838D02*
X52190476Y-27132457D01*
X52190476Y-27132457D02*
X52142857Y-27227695D01*
X52142857Y-27227695D02*
X52142857Y-27370552D01*
X52142857Y-27370552D02*
X52190476Y-27465790D01*
X52190476Y-27465790D02*
X52238095Y-27513409D01*
X52238095Y-27513409D02*
X52333333Y-27561028D01*
X52333333Y-27561028D02*
X52714285Y-27561028D01*
X57238095Y-29647219D02*
X57571428Y-29171028D01*
X57809523Y-29647219D02*
X57809523Y-28647219D01*
X57809523Y-28647219D02*
X57428571Y-28647219D01*
X57428571Y-28647219D02*
X57333333Y-28694838D01*
X57333333Y-28694838D02*
X57285714Y-28742457D01*
X57285714Y-28742457D02*
X57238095Y-28837695D01*
X57238095Y-28837695D02*
X57238095Y-28980552D01*
X57238095Y-28980552D02*
X57285714Y-29075790D01*
X57285714Y-29075790D02*
X57333333Y-29123409D01*
X57333333Y-29123409D02*
X57428571Y-29171028D01*
X57428571Y-29171028D02*
X57809523Y-29171028D01*
X56857142Y-28742457D02*
X56809523Y-28694838D01*
X56809523Y-28694838D02*
X56714285Y-28647219D01*
X56714285Y-28647219D02*
X56476190Y-28647219D01*
X56476190Y-28647219D02*
X56380952Y-28694838D01*
X56380952Y-28694838D02*
X56333333Y-28742457D01*
X56333333Y-28742457D02*
X56285714Y-28837695D01*
X56285714Y-28837695D02*
X56285714Y-28932933D01*
X56285714Y-28932933D02*
X56333333Y-29075790D01*
X56333333Y-29075790D02*
X56904761Y-29647219D01*
X56904761Y-29647219D02*
X56285714Y-29647219D01*
X55857142Y-29551980D02*
X55809523Y-29599600D01*
X55809523Y-29599600D02*
X55857142Y-29647219D01*
X55857142Y-29647219D02*
X55904761Y-29599600D01*
X55904761Y-29599600D02*
X55857142Y-29551980D01*
X55857142Y-29551980D02*
X55857142Y-29647219D01*
X55857142Y-29028171D02*
X55809523Y-29075790D01*
X55809523Y-29075790D02*
X55857142Y-29123409D01*
X55857142Y-29123409D02*
X55904761Y-29075790D01*
X55904761Y-29075790D02*
X55857142Y-29028171D01*
X55857142Y-29028171D02*
X55857142Y-29123409D01*
X54142857Y-28647219D02*
X54619047Y-28647219D01*
X54619047Y-28647219D02*
X54666666Y-29123409D01*
X54666666Y-29123409D02*
X54619047Y-29075790D01*
X54619047Y-29075790D02*
X54523809Y-29028171D01*
X54523809Y-29028171D02*
X54285714Y-29028171D01*
X54285714Y-29028171D02*
X54190476Y-29075790D01*
X54190476Y-29075790D02*
X54142857Y-29123409D01*
X54142857Y-29123409D02*
X54095238Y-29218647D01*
X54095238Y-29218647D02*
X54095238Y-29456742D01*
X54095238Y-29456742D02*
X54142857Y-29551980D01*
X54142857Y-29551980D02*
X54190476Y-29599600D01*
X54190476Y-29599600D02*
X54285714Y-29647219D01*
X54285714Y-29647219D02*
X54523809Y-29647219D01*
X54523809Y-29647219D02*
X54619047Y-29599600D01*
X54619047Y-29599600D02*
X54666666Y-29551980D01*
X53476190Y-28647219D02*
X53380952Y-28647219D01*
X53380952Y-28647219D02*
X53285714Y-28694838D01*
X53285714Y-28694838D02*
X53238095Y-28742457D01*
X53238095Y-28742457D02*
X53190476Y-28837695D01*
X53190476Y-28837695D02*
X53142857Y-29028171D01*
X53142857Y-29028171D02*
X53142857Y-29266266D01*
X53142857Y-29266266D02*
X53190476Y-29456742D01*
X53190476Y-29456742D02*
X53238095Y-29551980D01*
X53238095Y-29551980D02*
X53285714Y-29599600D01*
X53285714Y-29599600D02*
X53380952Y-29647219D01*
X53380952Y-29647219D02*
X53476190Y-29647219D01*
X53476190Y-29647219D02*
X53571428Y-29599600D01*
X53571428Y-29599600D02*
X53619047Y-29551980D01*
X53619047Y-29551980D02*
X53666666Y-29456742D01*
X53666666Y-29456742D02*
X53714285Y-29266266D01*
X53714285Y-29266266D02*
X53714285Y-29028171D01*
X53714285Y-29028171D02*
X53666666Y-28837695D01*
X53666666Y-28837695D02*
X53619047Y-28742457D01*
X53619047Y-28742457D02*
X53571428Y-28694838D01*
X53571428Y-28694838D02*
X53476190Y-28647219D01*
X52142857Y-29647219D02*
X52476190Y-29171028D01*
X52714285Y-29647219D02*
X52714285Y-28647219D01*
X52714285Y-28647219D02*
X52333333Y-28647219D01*
X52333333Y-28647219D02*
X52238095Y-28694838D01*
X52238095Y-28694838D02*
X52190476Y-28742457D01*
X52190476Y-28742457D02*
X52142857Y-28837695D01*
X52142857Y-28837695D02*
X52142857Y-28980552D01*
X52142857Y-28980552D02*
X52190476Y-29075790D01*
X52190476Y-29075790D02*
X52238095Y-29123409D01*
X52238095Y-29123409D02*
X52333333Y-29171028D01*
X52333333Y-29171028D02*
X52714285Y-29171028D01*
X57238095Y-31257219D02*
X57571428Y-30781028D01*
X57809523Y-31257219D02*
X57809523Y-30257219D01*
X57809523Y-30257219D02*
X57428571Y-30257219D01*
X57428571Y-30257219D02*
X57333333Y-30304838D01*
X57333333Y-30304838D02*
X57285714Y-30352457D01*
X57285714Y-30352457D02*
X57238095Y-30447695D01*
X57238095Y-30447695D02*
X57238095Y-30590552D01*
X57238095Y-30590552D02*
X57285714Y-30685790D01*
X57285714Y-30685790D02*
X57333333Y-30733409D01*
X57333333Y-30733409D02*
X57428571Y-30781028D01*
X57428571Y-30781028D02*
X57809523Y-30781028D01*
X56904761Y-30257219D02*
X56285714Y-30257219D01*
X56285714Y-30257219D02*
X56619047Y-30638171D01*
X56619047Y-30638171D02*
X56476190Y-30638171D01*
X56476190Y-30638171D02*
X56380952Y-30685790D01*
X56380952Y-30685790D02*
X56333333Y-30733409D01*
X56333333Y-30733409D02*
X56285714Y-30828647D01*
X56285714Y-30828647D02*
X56285714Y-31066742D01*
X56285714Y-31066742D02*
X56333333Y-31161980D01*
X56333333Y-31161980D02*
X56380952Y-31209600D01*
X56380952Y-31209600D02*
X56476190Y-31257219D01*
X56476190Y-31257219D02*
X56761904Y-31257219D01*
X56761904Y-31257219D02*
X56857142Y-31209600D01*
X56857142Y-31209600D02*
X56904761Y-31161980D01*
X55857142Y-31161980D02*
X55809523Y-31209600D01*
X55809523Y-31209600D02*
X55857142Y-31257219D01*
X55857142Y-31257219D02*
X55904761Y-31209600D01*
X55904761Y-31209600D02*
X55857142Y-31161980D01*
X55857142Y-31161980D02*
X55857142Y-31257219D01*
X55857142Y-30638171D02*
X55809523Y-30685790D01*
X55809523Y-30685790D02*
X55857142Y-30733409D01*
X55857142Y-30733409D02*
X55904761Y-30685790D01*
X55904761Y-30685790D02*
X55857142Y-30638171D01*
X55857142Y-30638171D02*
X55857142Y-30733409D01*
X54142857Y-30257219D02*
X54619047Y-30257219D01*
X54619047Y-30257219D02*
X54666666Y-30733409D01*
X54666666Y-30733409D02*
X54619047Y-30685790D01*
X54619047Y-30685790D02*
X54523809Y-30638171D01*
X54523809Y-30638171D02*
X54285714Y-30638171D01*
X54285714Y-30638171D02*
X54190476Y-30685790D01*
X54190476Y-30685790D02*
X54142857Y-30733409D01*
X54142857Y-30733409D02*
X54095238Y-30828647D01*
X54095238Y-30828647D02*
X54095238Y-31066742D01*
X54095238Y-31066742D02*
X54142857Y-31161980D01*
X54142857Y-31161980D02*
X54190476Y-31209600D01*
X54190476Y-31209600D02*
X54285714Y-31257219D01*
X54285714Y-31257219D02*
X54523809Y-31257219D01*
X54523809Y-31257219D02*
X54619047Y-31209600D01*
X54619047Y-31209600D02*
X54666666Y-31161980D01*
X53476190Y-30257219D02*
X53380952Y-30257219D01*
X53380952Y-30257219D02*
X53285714Y-30304838D01*
X53285714Y-30304838D02*
X53238095Y-30352457D01*
X53238095Y-30352457D02*
X53190476Y-30447695D01*
X53190476Y-30447695D02*
X53142857Y-30638171D01*
X53142857Y-30638171D02*
X53142857Y-30876266D01*
X53142857Y-30876266D02*
X53190476Y-31066742D01*
X53190476Y-31066742D02*
X53238095Y-31161980D01*
X53238095Y-31161980D02*
X53285714Y-31209600D01*
X53285714Y-31209600D02*
X53380952Y-31257219D01*
X53380952Y-31257219D02*
X53476190Y-31257219D01*
X53476190Y-31257219D02*
X53571428Y-31209600D01*
X53571428Y-31209600D02*
X53619047Y-31161980D01*
X53619047Y-31161980D02*
X53666666Y-31066742D01*
X53666666Y-31066742D02*
X53714285Y-30876266D01*
X53714285Y-30876266D02*
X53714285Y-30638171D01*
X53714285Y-30638171D02*
X53666666Y-30447695D01*
X53666666Y-30447695D02*
X53619047Y-30352457D01*
X53619047Y-30352457D02*
X53571428Y-30304838D01*
X53571428Y-30304838D02*
X53476190Y-30257219D01*
X52142857Y-31257219D02*
X52476190Y-30781028D01*
X52714285Y-31257219D02*
X52714285Y-30257219D01*
X52714285Y-30257219D02*
X52333333Y-30257219D01*
X52333333Y-30257219D02*
X52238095Y-30304838D01*
X52238095Y-30304838D02*
X52190476Y-30352457D01*
X52190476Y-30352457D02*
X52142857Y-30447695D01*
X52142857Y-30447695D02*
X52142857Y-30590552D01*
X52142857Y-30590552D02*
X52190476Y-30685790D01*
X52190476Y-30685790D02*
X52238095Y-30733409D01*
X52238095Y-30733409D02*
X52333333Y-30781028D01*
X52333333Y-30781028D02*
X52714285Y-30781028D01*
X57238095Y-32867219D02*
X57571428Y-32391028D01*
X57809523Y-32867219D02*
X57809523Y-31867219D01*
X57809523Y-31867219D02*
X57428571Y-31867219D01*
X57428571Y-31867219D02*
X57333333Y-31914838D01*
X57333333Y-31914838D02*
X57285714Y-31962457D01*
X57285714Y-31962457D02*
X57238095Y-32057695D01*
X57238095Y-32057695D02*
X57238095Y-32200552D01*
X57238095Y-32200552D02*
X57285714Y-32295790D01*
X57285714Y-32295790D02*
X57333333Y-32343409D01*
X57333333Y-32343409D02*
X57428571Y-32391028D01*
X57428571Y-32391028D02*
X57809523Y-32391028D01*
X56380952Y-32200552D02*
X56380952Y-32867219D01*
X56619047Y-31819600D02*
X56857142Y-32533885D01*
X56857142Y-32533885D02*
X56238095Y-32533885D01*
X55857142Y-32771980D02*
X55809523Y-32819600D01*
X55809523Y-32819600D02*
X55857142Y-32867219D01*
X55857142Y-32867219D02*
X55904761Y-32819600D01*
X55904761Y-32819600D02*
X55857142Y-32771980D01*
X55857142Y-32771980D02*
X55857142Y-32867219D01*
X55857142Y-32248171D02*
X55809523Y-32295790D01*
X55809523Y-32295790D02*
X55857142Y-32343409D01*
X55857142Y-32343409D02*
X55904761Y-32295790D01*
X55904761Y-32295790D02*
X55857142Y-32248171D01*
X55857142Y-32248171D02*
X55857142Y-32343409D01*
X54142857Y-31867219D02*
X54619047Y-31867219D01*
X54619047Y-31867219D02*
X54666666Y-32343409D01*
X54666666Y-32343409D02*
X54619047Y-32295790D01*
X54619047Y-32295790D02*
X54523809Y-32248171D01*
X54523809Y-32248171D02*
X54285714Y-32248171D01*
X54285714Y-32248171D02*
X54190476Y-32295790D01*
X54190476Y-32295790D02*
X54142857Y-32343409D01*
X54142857Y-32343409D02*
X54095238Y-32438647D01*
X54095238Y-32438647D02*
X54095238Y-32676742D01*
X54095238Y-32676742D02*
X54142857Y-32771980D01*
X54142857Y-32771980D02*
X54190476Y-32819600D01*
X54190476Y-32819600D02*
X54285714Y-32867219D01*
X54285714Y-32867219D02*
X54523809Y-32867219D01*
X54523809Y-32867219D02*
X54619047Y-32819600D01*
X54619047Y-32819600D02*
X54666666Y-32771980D01*
X53476190Y-31867219D02*
X53380952Y-31867219D01*
X53380952Y-31867219D02*
X53285714Y-31914838D01*
X53285714Y-31914838D02*
X53238095Y-31962457D01*
X53238095Y-31962457D02*
X53190476Y-32057695D01*
X53190476Y-32057695D02*
X53142857Y-32248171D01*
X53142857Y-32248171D02*
X53142857Y-32486266D01*
X53142857Y-32486266D02*
X53190476Y-32676742D01*
X53190476Y-32676742D02*
X53238095Y-32771980D01*
X53238095Y-32771980D02*
X53285714Y-32819600D01*
X53285714Y-32819600D02*
X53380952Y-32867219D01*
X53380952Y-32867219D02*
X53476190Y-32867219D01*
X53476190Y-32867219D02*
X53571428Y-32819600D01*
X53571428Y-32819600D02*
X53619047Y-32771980D01*
X53619047Y-32771980D02*
X53666666Y-32676742D01*
X53666666Y-32676742D02*
X53714285Y-32486266D01*
X53714285Y-32486266D02*
X53714285Y-32248171D01*
X53714285Y-32248171D02*
X53666666Y-32057695D01*
X53666666Y-32057695D02*
X53619047Y-31962457D01*
X53619047Y-31962457D02*
X53571428Y-31914838D01*
X53571428Y-31914838D02*
X53476190Y-31867219D01*
X52142857Y-32867219D02*
X52476190Y-32391028D01*
X52714285Y-32867219D02*
X52714285Y-31867219D01*
X52714285Y-31867219D02*
X52333333Y-31867219D01*
X52333333Y-31867219D02*
X52238095Y-31914838D01*
X52238095Y-31914838D02*
X52190476Y-31962457D01*
X52190476Y-31962457D02*
X52142857Y-32057695D01*
X52142857Y-32057695D02*
X52142857Y-32200552D01*
X52142857Y-32200552D02*
X52190476Y-32295790D01*
X52190476Y-32295790D02*
X52238095Y-32343409D01*
X52238095Y-32343409D02*
X52333333Y-32391028D01*
X52333333Y-32391028D02*
X52714285Y-32391028D01*
D11*
X45166666Y-36954819D02*
X45499999Y-36478628D01*
X45738094Y-36954819D02*
X45738094Y-35954819D01*
X45738094Y-35954819D02*
X45357142Y-35954819D01*
X45357142Y-35954819D02*
X45261904Y-36002438D01*
X45261904Y-36002438D02*
X45214285Y-36050057D01*
X45214285Y-36050057D02*
X45166666Y-36145295D01*
X45166666Y-36145295D02*
X45166666Y-36288152D01*
X45166666Y-36288152D02*
X45214285Y-36383390D01*
X45214285Y-36383390D02*
X45261904Y-36431009D01*
X45261904Y-36431009D02*
X45357142Y-36478628D01*
X45357142Y-36478628D02*
X45738094Y-36478628D01*
X44214285Y-36954819D02*
X44785713Y-36954819D01*
X44499999Y-36954819D02*
X44499999Y-35954819D01*
X44499999Y-35954819D02*
X44595237Y-36097676D01*
X44595237Y-36097676D02*
X44690475Y-36192914D01*
X44690475Y-36192914D02*
X44785713Y-36240533D01*
X32333333Y-38134819D02*
X32333333Y-38849104D01*
X32333333Y-38849104D02*
X32380952Y-38991961D01*
X32380952Y-38991961D02*
X32476190Y-39087200D01*
X32476190Y-39087200D02*
X32619047Y-39134819D01*
X32619047Y-39134819D02*
X32714285Y-39134819D01*
X31333333Y-39134819D02*
X31904761Y-39134819D01*
X31619047Y-39134819D02*
X31619047Y-38134819D01*
X31619047Y-38134819D02*
X31714285Y-38277676D01*
X31714285Y-38277676D02*
X31809523Y-38372914D01*
X31809523Y-38372914D02*
X31904761Y-38420533D01*
X45166666Y-29954819D02*
X45499999Y-29478628D01*
X45738094Y-29954819D02*
X45738094Y-28954819D01*
X45738094Y-28954819D02*
X45357142Y-28954819D01*
X45357142Y-28954819D02*
X45261904Y-29002438D01*
X45261904Y-29002438D02*
X45214285Y-29050057D01*
X45214285Y-29050057D02*
X45166666Y-29145295D01*
X45166666Y-29145295D02*
X45166666Y-29288152D01*
X45166666Y-29288152D02*
X45214285Y-29383390D01*
X45214285Y-29383390D02*
X45261904Y-29431009D01*
X45261904Y-29431009D02*
X45357142Y-29478628D01*
X45357142Y-29478628D02*
X45738094Y-29478628D01*
X44833332Y-28954819D02*
X44214285Y-28954819D01*
X44214285Y-28954819D02*
X44547618Y-29335771D01*
X44547618Y-29335771D02*
X44404761Y-29335771D01*
X44404761Y-29335771D02*
X44309523Y-29383390D01*
X44309523Y-29383390D02*
X44261904Y-29431009D01*
X44261904Y-29431009D02*
X44214285Y-29526247D01*
X44214285Y-29526247D02*
X44214285Y-29764342D01*
X44214285Y-29764342D02*
X44261904Y-29859580D01*
X44261904Y-29859580D02*
X44309523Y-29907200D01*
X44309523Y-29907200D02*
X44404761Y-29954819D01*
X44404761Y-29954819D02*
X44690475Y-29954819D01*
X44690475Y-29954819D02*
X44785713Y-29907200D01*
X44785713Y-29907200D02*
X44833332Y-29859580D01*
X45166666Y-26454819D02*
X45499999Y-25978628D01*
X45738094Y-26454819D02*
X45738094Y-25454819D01*
X45738094Y-25454819D02*
X45357142Y-25454819D01*
X45357142Y-25454819D02*
X45261904Y-25502438D01*
X45261904Y-25502438D02*
X45214285Y-25550057D01*
X45214285Y-25550057D02*
X45166666Y-25645295D01*
X45166666Y-25645295D02*
X45166666Y-25788152D01*
X45166666Y-25788152D02*
X45214285Y-25883390D01*
X45214285Y-25883390D02*
X45261904Y-25931009D01*
X45261904Y-25931009D02*
X45357142Y-25978628D01*
X45357142Y-25978628D02*
X45738094Y-25978628D01*
X44309523Y-25788152D02*
X44309523Y-26454819D01*
X44547618Y-25407200D02*
X44785713Y-26121485D01*
X44785713Y-26121485D02*
X44166666Y-26121485D01*
X45166666Y-33954819D02*
X45499999Y-33478628D01*
X45738094Y-33954819D02*
X45738094Y-32954819D01*
X45738094Y-32954819D02*
X45357142Y-32954819D01*
X45357142Y-32954819D02*
X45261904Y-33002438D01*
X45261904Y-33002438D02*
X45214285Y-33050057D01*
X45214285Y-33050057D02*
X45166666Y-33145295D01*
X45166666Y-33145295D02*
X45166666Y-33288152D01*
X45166666Y-33288152D02*
X45214285Y-33383390D01*
X45214285Y-33383390D02*
X45261904Y-33431009D01*
X45261904Y-33431009D02*
X45357142Y-33478628D01*
X45357142Y-33478628D02*
X45738094Y-33478628D01*
X44785713Y-33050057D02*
X44738094Y-33002438D01*
X44738094Y-33002438D02*
X44642856Y-32954819D01*
X44642856Y-32954819D02*
X44404761Y-32954819D01*
X44404761Y-32954819D02*
X44309523Y-33002438D01*
X44309523Y-33002438D02*
X44261904Y-33050057D01*
X44261904Y-33050057D02*
X44214285Y-33145295D01*
X44214285Y-33145295D02*
X44214285Y-33240533D01*
X44214285Y-33240533D02*
X44261904Y-33383390D01*
X44261904Y-33383390D02*
X44833332Y-33954819D01*
X44833332Y-33954819D02*
X44214285Y-33954819D01*
D12*
%TO.C,R1*%
X44772936Y-34265000D02*
X45227064Y-34265000D01*
X44772936Y-35735000D02*
X45227064Y-35735000D01*
%TO.C,J1*%
X30670000Y-22320000D02*
X33330000Y-22320000D01*
X30670000Y-35080000D02*
X30670000Y-22320000D01*
X30670000Y-35080000D02*
X33330000Y-35080000D01*
X30670000Y-36350000D02*
X30670000Y-37680000D01*
X30670000Y-37680000D02*
X32000000Y-37680000D01*
X33330000Y-35080000D02*
X33330000Y-22320000D01*
%TO.C,R3*%
X44772936Y-27265000D02*
X45227064Y-27265000D01*
X44772936Y-28735000D02*
X45227064Y-28735000D01*
%TO.C,R4*%
X44772936Y-23765000D02*
X45227064Y-23765000D01*
X44772936Y-25235000D02*
X45227064Y-25235000D01*
%TO.C,R2*%
X44772936Y-31265000D02*
X45227064Y-31265000D01*
X44772936Y-32735000D02*
X45227064Y-32735000D01*
%TD*%
M02*
