%TF.GenerationSoftware,KiCad,Pcbnew,7.0.7*%
%TF.CreationDate,2023-09-05T11:40:51+02:00*%
%TF.ProjectId,tle5010-11_pcb,746c6535-3031-4302-9d31-315f7063622e,rev?*%
%TF.SameCoordinates,Original*%
%TF.FileFunction,Copper,L2,Bot*%
%TF.FilePolarity,Positive*%
%FSLAX46Y46*%
G04 Gerber Fmt 4.6, Leading zero omitted, Abs format (unit mm)*
G04 Created by KiCad (PCBNEW 7.0.7) date 2023-09-05 11:40:51*
%MOMM*%
%LPD*%
G01*
G04 APERTURE LIST*
G04 Aperture macros list*
%AMRoundRect*
0 Rectangle with rounded corners*
0 $1 Rounding radius*
0 $2 $3 $4 $5 $6 $7 $8 $9 X,Y pos of 4 corners*
0 Add a 4 corners polygon primitive as box body*
4,1,4,$2,$3,$4,$5,$6,$7,$8,$9,$2,$3,0*
0 Add four circle primitives for the rounded corners*
1,1,$1+$1,$2,$3*
1,1,$1+$1,$4,$5*
1,1,$1+$1,$6,$7*
1,1,$1+$1,$8,$9*
0 Add four rect primitives between the rounded corners*
20,1,$1+$1,$2,$3,$4,$5,0*
20,1,$1+$1,$4,$5,$6,$7,0*
20,1,$1+$1,$6,$7,$8,$9,0*
20,1,$1+$1,$8,$9,$2,$3,0*%
G04 Aperture macros list end*
%TA.AperFunction,SMDPad,CuDef*%
%ADD10RoundRect,0.250000X-0.350000X-0.450000X0.350000X-0.450000X0.350000X0.450000X-0.350000X0.450000X0*%
%TD*%
%TA.AperFunction,ComponentPad*%
%ADD11R,1.700000X1.700000*%
%TD*%
%TA.AperFunction,ComponentPad*%
%ADD12O,1.700000X1.700000*%
%TD*%
%TA.AperFunction,ViaPad*%
%ADD13C,0.800000*%
%TD*%
%TA.AperFunction,Conductor*%
%ADD14C,0.500000*%
%TD*%
G04 APERTURE END LIST*
D10*
%TO.P,R1,1*%
%TO.N,Net-(J1-Pin_3)*%
X44000000Y-35000000D03*
%TO.P,R1,2*%
%TO.N,DATA*%
X46000000Y-35000000D03*
%TD*%
D11*
%TO.P,J1,1,Pin_1*%
%TO.N,GND*%
X32000000Y-36350000D03*
D12*
%TO.P,J1,2,Pin_2*%
%TO.N,VDD*%
X32000000Y-33810000D03*
%TO.P,J1,3,Pin_3*%
%TO.N,Net-(J1-Pin_3)*%
X32000000Y-31270000D03*
%TO.P,J1,4,Pin_4*%
%TO.N,Net-(J1-Pin_4)*%
X32000000Y-28730000D03*
%TO.P,J1,5,Pin_5*%
%TO.N,Net-(J1-Pin_5)*%
X32000000Y-26190000D03*
%TO.P,J1,6,Pin_6*%
%TO.N,Net-(J1-Pin_6)*%
X32000000Y-23650000D03*
%TD*%
D10*
%TO.P,R3,1*%
%TO.N,Net-(J1-Pin_5)*%
X44000000Y-28000000D03*
%TO.P,R3,2*%
%TO.N,SCK*%
X46000000Y-28000000D03*
%TD*%
%TO.P,R4,1*%
%TO.N,Net-(J1-Pin_6)*%
X44000000Y-24500000D03*
%TO.P,R4,2*%
%TO.N,CLK*%
X46000000Y-24500000D03*
%TD*%
%TO.P,R2,1*%
%TO.N,Net-(J1-Pin_4)*%
X44000000Y-32000000D03*
%TO.P,R2,2*%
%TO.N,CS*%
X46000000Y-32000000D03*
%TD*%
D13*
%TO.N,DATA*%
X47400000Y-35000000D03*
%TO.N,CS*%
X47500000Y-32000000D03*
%TO.N,SCK*%
X47500000Y-28000000D03*
%TO.N,CLK*%
X47500000Y-24500000D03*
%TD*%
D14*
%TO.N,Net-(J1-Pin_3)*%
X38000000Y-35000000D02*
X34270000Y-31270000D01*
X44000000Y-35000000D02*
X38000000Y-35000000D01*
X34270000Y-31270000D02*
X32000000Y-31270000D01*
%TO.N,DATA*%
X46000000Y-35000000D02*
X47400000Y-35000000D01*
%TO.N,Net-(J1-Pin_4)*%
X38500000Y-33000000D02*
X34230000Y-28730000D01*
X41500000Y-33000000D02*
X38500000Y-33000000D01*
X34230000Y-28730000D02*
X32000000Y-28730000D01*
X44000000Y-32000000D02*
X42500000Y-32000000D01*
X42500000Y-32000000D02*
X41500000Y-33000000D01*
%TO.N,CS*%
X46000000Y-32000000D02*
X47500000Y-32000000D01*
%TO.N,Net-(J1-Pin_5)*%
X40690000Y-26190000D02*
X42500000Y-28000000D01*
X42500000Y-28000000D02*
X44000000Y-28000000D01*
X32000000Y-26190000D02*
X40690000Y-26190000D01*
%TO.N,SCK*%
X46000000Y-28000000D02*
X47500000Y-28000000D01*
%TO.N,Net-(J1-Pin_6)*%
X32000000Y-23650000D02*
X40650000Y-23650000D01*
X40650000Y-23650000D02*
X41500000Y-24500000D01*
X41500000Y-24500000D02*
X44000000Y-24500000D01*
%TO.N,CLK*%
X46000000Y-24500000D02*
X47500000Y-24500000D01*
%TD*%
%TA.AperFunction,Conductor*%
%TO.N,GND*%
G36*
X78002019Y-20000633D02*
G01*
X78037198Y-20002938D01*
X78083708Y-20005986D01*
X78265459Y-20018985D01*
X78273100Y-20020015D01*
X78366738Y-20038641D01*
X78389420Y-20043153D01*
X78415023Y-20048722D01*
X78533666Y-20074531D01*
X78540383Y-20076395D01*
X78659437Y-20116809D01*
X78756671Y-20153076D01*
X78791741Y-20166157D01*
X78797499Y-20168643D01*
X78912952Y-20225578D01*
X79034906Y-20292170D01*
X79039634Y-20295032D01*
X79096571Y-20333076D01*
X79146649Y-20366537D01*
X79149358Y-20368454D01*
X79258652Y-20450271D01*
X79262345Y-20453265D01*
X79359502Y-20538469D01*
X79362448Y-20541228D01*
X79458769Y-20637549D01*
X79461526Y-20640492D01*
X79546729Y-20737648D01*
X79549732Y-20741353D01*
X79601564Y-20810592D01*
X79631543Y-20850639D01*
X79633461Y-20853349D01*
X79704962Y-20960357D01*
X79707828Y-20965091D01*
X79774421Y-21087047D01*
X79831355Y-21202499D01*
X79833841Y-21208257D01*
X79870212Y-21305768D01*
X79883196Y-21340578D01*
X79888289Y-21355581D01*
X79923597Y-21459596D01*
X79925472Y-21466352D01*
X79956846Y-21610579D01*
X79979980Y-21726880D01*
X79981015Y-21734560D01*
X79994017Y-21916350D01*
X79999367Y-21997966D01*
X79999500Y-22002023D01*
X79999500Y-37997975D01*
X79999367Y-38002032D01*
X79994017Y-38083648D01*
X79981015Y-38265438D01*
X79979980Y-38273118D01*
X79956846Y-38389420D01*
X79925472Y-38533646D01*
X79923597Y-38540401D01*
X79889297Y-38641448D01*
X79883208Y-38659388D01*
X79883195Y-38659425D01*
X79833841Y-38791741D01*
X79831355Y-38797499D01*
X79774421Y-38912952D01*
X79707828Y-39034907D01*
X79704961Y-39039641D01*
X79633461Y-39146649D01*
X79631543Y-39149359D01*
X79549744Y-39258631D01*
X79546723Y-39262357D01*
X79461529Y-39359502D01*
X79458755Y-39362464D01*
X79362464Y-39458755D01*
X79359502Y-39461529D01*
X79262357Y-39546723D01*
X79258631Y-39549744D01*
X79149359Y-39631543D01*
X79146649Y-39633461D01*
X79039641Y-39704961D01*
X79034907Y-39707828D01*
X78912952Y-39774421D01*
X78797499Y-39831355D01*
X78791741Y-39833841D01*
X78670956Y-39878893D01*
X78659418Y-39883197D01*
X78540401Y-39923597D01*
X78533646Y-39925472D01*
X78389420Y-39956846D01*
X78273118Y-39979980D01*
X78265438Y-39981015D01*
X78083648Y-39994017D01*
X78032582Y-39997364D01*
X78002025Y-39999367D01*
X77997976Y-39999500D01*
X32002024Y-39999500D01*
X31997974Y-39999367D01*
X31959954Y-39996875D01*
X31916350Y-39994017D01*
X31734560Y-39981015D01*
X31726880Y-39979980D01*
X31610579Y-39956846D01*
X31466352Y-39925472D01*
X31459596Y-39923597D01*
X31427881Y-39912831D01*
X31340578Y-39883196D01*
X31305768Y-39870212D01*
X31208257Y-39833841D01*
X31202499Y-39831355D01*
X31087047Y-39774421D01*
X30965091Y-39707828D01*
X30960357Y-39704962D01*
X30853349Y-39633461D01*
X30850639Y-39631543D01*
X30810592Y-39601564D01*
X30741353Y-39549732D01*
X30737648Y-39546729D01*
X30640492Y-39461526D01*
X30637549Y-39458769D01*
X30541228Y-39362448D01*
X30538469Y-39359502D01*
X30505450Y-39321851D01*
X30453265Y-39262345D01*
X30450271Y-39258652D01*
X30368454Y-39149358D01*
X30366537Y-39146649D01*
X30295036Y-39039641D01*
X30292170Y-39034906D01*
X30225578Y-38912952D01*
X30168643Y-38797499D01*
X30166157Y-38791741D01*
X30153076Y-38756671D01*
X30116805Y-38659425D01*
X30076395Y-38540383D01*
X30074531Y-38533666D01*
X30043153Y-38389420D01*
X30038641Y-38366738D01*
X30020015Y-38273100D01*
X30018985Y-38265459D01*
X30005988Y-38083743D01*
X30000631Y-38002007D01*
X30000500Y-37997994D01*
X30000500Y-33810000D01*
X30644341Y-33810000D01*
X30664936Y-34045403D01*
X30664938Y-34045413D01*
X30726094Y-34273655D01*
X30726096Y-34273659D01*
X30726097Y-34273663D01*
X30751021Y-34327112D01*
X30825965Y-34487830D01*
X30825967Y-34487834D01*
X30926714Y-34631715D01*
X30961501Y-34681396D01*
X30961506Y-34681402D01*
X31083818Y-34803714D01*
X31117303Y-34865037D01*
X31112319Y-34934729D01*
X31070447Y-34990662D01*
X31039471Y-35007577D01*
X30907912Y-35056646D01*
X30907906Y-35056649D01*
X30792812Y-35142809D01*
X30792809Y-35142812D01*
X30706649Y-35257906D01*
X30706645Y-35257913D01*
X30656403Y-35392620D01*
X30656401Y-35392627D01*
X30650000Y-35452155D01*
X30650000Y-36100000D01*
X31386653Y-36100000D01*
X31453692Y-36119685D01*
X31499447Y-36172489D01*
X31509391Y-36241647D01*
X31505631Y-36258933D01*
X31500000Y-36278111D01*
X31500000Y-36421888D01*
X31505631Y-36441067D01*
X31505630Y-36510936D01*
X31467855Y-36569714D01*
X31404299Y-36598738D01*
X31386653Y-36600000D01*
X30650000Y-36600000D01*
X30650000Y-37247844D01*
X30656401Y-37307372D01*
X30656403Y-37307379D01*
X30706645Y-37442086D01*
X30706649Y-37442093D01*
X30792809Y-37557187D01*
X30792812Y-37557190D01*
X30907906Y-37643350D01*
X30907913Y-37643354D01*
X31042620Y-37693596D01*
X31042627Y-37693598D01*
X31102155Y-37699999D01*
X31102172Y-37700000D01*
X31750000Y-37700000D01*
X31750000Y-36962301D01*
X31769685Y-36895262D01*
X31822489Y-36849507D01*
X31891647Y-36839563D01*
X31964237Y-36850000D01*
X31964238Y-36850000D01*
X32035762Y-36850000D01*
X32035763Y-36850000D01*
X32108353Y-36839563D01*
X32177512Y-36849507D01*
X32230315Y-36895262D01*
X32250000Y-36962301D01*
X32250000Y-37700000D01*
X32897828Y-37700000D01*
X32897844Y-37699999D01*
X32957372Y-37693598D01*
X32957379Y-37693596D01*
X33092086Y-37643354D01*
X33092093Y-37643350D01*
X33207187Y-37557190D01*
X33207190Y-37557187D01*
X33293350Y-37442093D01*
X33293354Y-37442086D01*
X33343596Y-37307379D01*
X33343598Y-37307372D01*
X33349999Y-37247844D01*
X33350000Y-37247827D01*
X33350000Y-36600000D01*
X32613347Y-36600000D01*
X32546308Y-36580315D01*
X32500553Y-36527511D01*
X32490609Y-36458353D01*
X32494369Y-36441067D01*
X32500000Y-36421888D01*
X32500000Y-36278111D01*
X32494369Y-36258933D01*
X32494370Y-36189064D01*
X32532145Y-36130286D01*
X32595701Y-36101262D01*
X32613347Y-36100000D01*
X33350000Y-36100000D01*
X33350000Y-35452172D01*
X33349999Y-35452155D01*
X33343598Y-35392627D01*
X33343596Y-35392620D01*
X33293354Y-35257913D01*
X33293350Y-35257906D01*
X33207190Y-35142812D01*
X33207187Y-35142809D01*
X33092093Y-35056649D01*
X33092088Y-35056646D01*
X32960528Y-35007577D01*
X32904595Y-34965705D01*
X32880178Y-34900241D01*
X32895030Y-34831968D01*
X32916175Y-34803720D01*
X33038495Y-34681401D01*
X33174035Y-34487830D01*
X33273903Y-34273663D01*
X33335063Y-34045408D01*
X33355659Y-33810000D01*
X33354740Y-33799501D01*
X33347136Y-33712586D01*
X33335063Y-33574592D01*
X33273903Y-33346337D01*
X33174035Y-33132171D01*
X33111396Y-33042712D01*
X33038494Y-32938597D01*
X32871402Y-32771506D01*
X32871396Y-32771501D01*
X32685842Y-32641575D01*
X32642217Y-32586998D01*
X32635023Y-32517500D01*
X32666546Y-32455145D01*
X32685842Y-32438425D01*
X32708026Y-32422891D01*
X32871401Y-32308495D01*
X33038495Y-32141401D01*
X33086126Y-32073376D01*
X33140704Y-32029751D01*
X33187701Y-32020500D01*
X33907770Y-32020500D01*
X33974809Y-32040185D01*
X33995451Y-32056819D01*
X37424267Y-35485634D01*
X37436048Y-35499266D01*
X37450390Y-35518530D01*
X37490420Y-35552119D01*
X37494392Y-35555759D01*
X37500224Y-35561591D01*
X37500227Y-35561594D01*
X37525947Y-35581931D01*
X37584788Y-35631304D01*
X37590818Y-35635270D01*
X37590785Y-35635319D01*
X37597143Y-35639369D01*
X37597175Y-35639319D01*
X37603320Y-35643109D01*
X37603323Y-35643111D01*
X37672936Y-35675572D01*
X37741567Y-35710040D01*
X37741572Y-35710041D01*
X37748361Y-35712513D01*
X37748340Y-35712570D01*
X37755455Y-35715043D01*
X37755475Y-35714986D01*
X37762330Y-35717258D01*
X37837558Y-35732790D01*
X37912279Y-35750500D01*
X37912289Y-35750500D01*
X37919452Y-35751338D01*
X37919444Y-35751397D01*
X37926945Y-35752164D01*
X37926951Y-35752105D01*
X37934140Y-35752734D01*
X37934144Y-35752733D01*
X37934145Y-35752734D01*
X38010918Y-35750500D01*
X42884362Y-35750500D01*
X42951401Y-35770185D01*
X42989899Y-35809401D01*
X43057288Y-35918656D01*
X43181344Y-36042712D01*
X43330666Y-36134814D01*
X43497203Y-36189999D01*
X43599991Y-36200500D01*
X44400008Y-36200499D01*
X44400016Y-36200498D01*
X44400019Y-36200498D01*
X44456302Y-36194748D01*
X44502797Y-36189999D01*
X44669334Y-36134814D01*
X44818656Y-36042712D01*
X44912319Y-35949048D01*
X44973642Y-35915564D01*
X45043334Y-35920548D01*
X45087681Y-35949049D01*
X45181344Y-36042712D01*
X45330666Y-36134814D01*
X45497203Y-36189999D01*
X45599991Y-36200500D01*
X46400008Y-36200499D01*
X46400016Y-36200498D01*
X46400019Y-36200498D01*
X46456302Y-36194748D01*
X46502797Y-36189999D01*
X46669334Y-36134814D01*
X46818656Y-36042712D01*
X46942712Y-35918656D01*
X46951858Y-35903826D01*
X47003802Y-35857101D01*
X47072764Y-35845875D01*
X47107836Y-35855640D01*
X47120197Y-35861144D01*
X47305354Y-35900500D01*
X47305355Y-35900500D01*
X47494644Y-35900500D01*
X47494646Y-35900500D01*
X47679803Y-35861144D01*
X47852730Y-35784151D01*
X48005871Y-35672888D01*
X48132533Y-35532216D01*
X48227179Y-35368284D01*
X48285674Y-35188256D01*
X48305460Y-35000000D01*
X48285674Y-34811744D01*
X48227179Y-34631716D01*
X48132533Y-34467784D01*
X48005871Y-34327112D01*
X48005870Y-34327111D01*
X47852734Y-34215851D01*
X47852729Y-34215848D01*
X47679807Y-34138857D01*
X47679802Y-34138855D01*
X47534000Y-34107865D01*
X47494646Y-34099500D01*
X47305354Y-34099500D01*
X47265999Y-34107865D01*
X47120198Y-34138855D01*
X47120193Y-34138857D01*
X47107831Y-34144361D01*
X47038580Y-34153644D01*
X46975305Y-34124013D01*
X46951861Y-34096178D01*
X46942712Y-34081344D01*
X46818656Y-33957288D01*
X46669334Y-33865186D01*
X46502797Y-33810001D01*
X46502795Y-33810000D01*
X46400010Y-33799500D01*
X45599998Y-33799500D01*
X45599980Y-33799501D01*
X45497203Y-33810000D01*
X45497200Y-33810001D01*
X45330668Y-33865185D01*
X45330663Y-33865187D01*
X45181342Y-33957289D01*
X45087681Y-34050951D01*
X45026358Y-34084436D01*
X44956666Y-34079452D01*
X44912319Y-34050951D01*
X44818657Y-33957289D01*
X44818656Y-33957288D01*
X44669334Y-33865186D01*
X44502797Y-33810001D01*
X44502795Y-33810000D01*
X44400010Y-33799500D01*
X43599998Y-33799500D01*
X43599980Y-33799501D01*
X43497203Y-33810000D01*
X43497200Y-33810001D01*
X43330668Y-33865185D01*
X43330663Y-33865187D01*
X43181342Y-33957289D01*
X43057289Y-34081342D01*
X42989901Y-34190597D01*
X42937953Y-34237321D01*
X42884362Y-34249500D01*
X38362229Y-34249500D01*
X38295190Y-34229815D01*
X38274548Y-34213181D01*
X34845729Y-30784361D01*
X34833949Y-30770730D01*
X34826482Y-30760701D01*
X34819612Y-30751472D01*
X34819610Y-30751470D01*
X34779587Y-30717886D01*
X34775612Y-30714244D01*
X34772690Y-30711322D01*
X34769780Y-30708411D01*
X34744040Y-30688059D01*
X34685209Y-30638694D01*
X34679180Y-30634729D01*
X34679212Y-30634680D01*
X34672853Y-30630628D01*
X34672822Y-30630679D01*
X34666680Y-30626891D01*
X34666678Y-30626890D01*
X34666677Y-30626889D01*
X34627474Y-30608608D01*
X34597058Y-30594424D01*
X34562894Y-30577267D01*
X34528433Y-30559960D01*
X34528431Y-30559959D01*
X34528430Y-30559959D01*
X34521645Y-30557489D01*
X34521665Y-30557433D01*
X34514549Y-30554959D01*
X34514531Y-30555015D01*
X34507671Y-30552742D01*
X34479841Y-30546996D01*
X34432434Y-30537207D01*
X34383472Y-30525603D01*
X34357719Y-30519499D01*
X34350547Y-30518661D01*
X34350553Y-30518601D01*
X34343055Y-30517835D01*
X34343050Y-30517895D01*
X34335860Y-30517265D01*
X34259083Y-30519500D01*
X33187701Y-30519500D01*
X33120662Y-30499815D01*
X33086126Y-30466623D01*
X33038494Y-30398597D01*
X32871402Y-30231506D01*
X32871396Y-30231501D01*
X32685842Y-30101575D01*
X32642217Y-30046998D01*
X32635023Y-29977500D01*
X32666546Y-29915145D01*
X32685842Y-29898425D01*
X32864527Y-29773308D01*
X32871401Y-29768495D01*
X33038495Y-29601401D01*
X33086126Y-29533376D01*
X33140704Y-29489751D01*
X33187701Y-29480500D01*
X33867770Y-29480500D01*
X33934809Y-29500185D01*
X33955451Y-29516819D01*
X37924270Y-33485638D01*
X37936051Y-33499270D01*
X37950388Y-33518528D01*
X37990409Y-33552111D01*
X37994397Y-33555766D01*
X38000216Y-33561585D01*
X38000220Y-33561588D01*
X38000223Y-33561591D01*
X38025959Y-33581940D01*
X38084786Y-33631302D01*
X38084787Y-33631302D01*
X38084789Y-33631304D01*
X38090818Y-33635270D01*
X38090785Y-33635319D01*
X38097147Y-33639372D01*
X38097179Y-33639321D01*
X38103319Y-33643108D01*
X38103323Y-33643111D01*
X38138132Y-33659343D01*
X38172941Y-33675575D01*
X38191336Y-33684813D01*
X38241567Y-33710040D01*
X38241569Y-33710040D01*
X38248357Y-33712511D01*
X38248336Y-33712567D01*
X38255457Y-33715043D01*
X38255476Y-33714986D01*
X38262322Y-33717254D01*
X38262327Y-33717257D01*
X38262332Y-33717258D01*
X38262335Y-33717259D01*
X38337564Y-33732792D01*
X38337565Y-33732792D01*
X38412279Y-33750500D01*
X38412282Y-33750500D01*
X38412286Y-33750501D01*
X38419453Y-33751339D01*
X38419446Y-33751398D01*
X38426944Y-33752164D01*
X38426950Y-33752105D01*
X38434139Y-33752734D01*
X38434143Y-33752733D01*
X38434144Y-33752734D01*
X38510917Y-33750500D01*
X41436295Y-33750500D01*
X41454265Y-33751809D01*
X41478023Y-33755289D01*
X41530068Y-33750735D01*
X41535470Y-33750500D01*
X41543704Y-33750500D01*
X41543709Y-33750500D01*
X41555327Y-33749141D01*
X41576276Y-33746693D01*
X41589028Y-33745577D01*
X41652797Y-33739999D01*
X41652805Y-33739996D01*
X41659866Y-33738539D01*
X41659878Y-33738598D01*
X41667243Y-33736965D01*
X41667229Y-33736906D01*
X41674246Y-33735241D01*
X41674255Y-33735241D01*
X41746423Y-33708974D01*
X41819334Y-33684814D01*
X41819343Y-33684807D01*
X41825882Y-33681760D01*
X41825908Y-33681816D01*
X41832690Y-33678532D01*
X41832663Y-33678478D01*
X41839106Y-33675240D01*
X41839117Y-33675237D01*
X41903283Y-33633034D01*
X41968656Y-33592712D01*
X41968662Y-33592705D01*
X41974325Y-33588229D01*
X41974363Y-33588277D01*
X41980195Y-33583526D01*
X41980156Y-33583479D01*
X41985694Y-33578831D01*
X41985693Y-33578831D01*
X41985696Y-33578830D01*
X42038386Y-33522980D01*
X42774547Y-32786819D01*
X42835871Y-32753334D01*
X42862229Y-32750500D01*
X42884362Y-32750500D01*
X42951401Y-32770185D01*
X42989899Y-32809401D01*
X43057288Y-32918656D01*
X43181344Y-33042712D01*
X43330666Y-33134814D01*
X43497203Y-33189999D01*
X43599991Y-33200500D01*
X44400008Y-33200499D01*
X44400016Y-33200498D01*
X44400019Y-33200498D01*
X44456302Y-33194748D01*
X44502797Y-33189999D01*
X44669334Y-33134814D01*
X44818656Y-33042712D01*
X44912319Y-32949048D01*
X44973642Y-32915564D01*
X45043334Y-32920548D01*
X45087681Y-32949049D01*
X45181344Y-33042712D01*
X45330666Y-33134814D01*
X45497203Y-33189999D01*
X45599991Y-33200500D01*
X46400008Y-33200499D01*
X46400016Y-33200498D01*
X46400019Y-33200498D01*
X46456302Y-33194748D01*
X46502797Y-33189999D01*
X46669334Y-33134814D01*
X46818656Y-33042712D01*
X46942712Y-32918656D01*
X46973406Y-32868892D01*
X47025351Y-32822169D01*
X47094313Y-32810945D01*
X47129380Y-32820710D01*
X47220192Y-32861142D01*
X47220197Y-32861144D01*
X47405354Y-32900500D01*
X47405355Y-32900500D01*
X47594644Y-32900500D01*
X47594646Y-32900500D01*
X47779803Y-32861144D01*
X47952730Y-32784151D01*
X48105871Y-32672888D01*
X48232533Y-32532216D01*
X48327179Y-32368284D01*
X48385674Y-32188256D01*
X48405460Y-32000000D01*
X48385674Y-31811744D01*
X48327179Y-31631716D01*
X48232533Y-31467784D01*
X48105871Y-31327112D01*
X48105870Y-31327111D01*
X47952734Y-31215851D01*
X47952729Y-31215848D01*
X47779807Y-31138857D01*
X47779802Y-31138855D01*
X47634000Y-31107865D01*
X47594646Y-31099500D01*
X47405354Y-31099500D01*
X47372897Y-31106398D01*
X47220197Y-31138855D01*
X47220192Y-31138857D01*
X47129380Y-31179290D01*
X47060130Y-31188575D01*
X46996853Y-31158947D01*
X46973407Y-31131110D01*
X46942712Y-31081344D01*
X46818656Y-30957288D01*
X46669334Y-30865186D01*
X46502797Y-30810001D01*
X46502795Y-30810000D01*
X46400010Y-30799500D01*
X45599998Y-30799500D01*
X45599980Y-30799501D01*
X45497203Y-30810000D01*
X45497200Y-30810001D01*
X45330668Y-30865185D01*
X45330663Y-30865187D01*
X45181342Y-30957289D01*
X45087681Y-31050951D01*
X45026358Y-31084436D01*
X44956666Y-31079452D01*
X44912319Y-31050951D01*
X44818657Y-30957289D01*
X44818656Y-30957288D01*
X44669334Y-30865186D01*
X44502797Y-30810001D01*
X44502795Y-30810000D01*
X44400010Y-30799500D01*
X43599998Y-30799500D01*
X43599980Y-30799501D01*
X43497203Y-30810000D01*
X43497200Y-30810001D01*
X43330668Y-30865185D01*
X43330663Y-30865187D01*
X43181342Y-30957289D01*
X43057289Y-31081342D01*
X43057287Y-31081344D01*
X43057288Y-31081344D01*
X43009423Y-31158947D01*
X42989901Y-31190597D01*
X42937953Y-31237321D01*
X42884362Y-31249500D01*
X42563705Y-31249500D01*
X42545735Y-31248191D01*
X42521972Y-31244710D01*
X42476533Y-31248686D01*
X42469931Y-31249264D01*
X42464530Y-31249500D01*
X42456289Y-31249500D01*
X42434579Y-31252037D01*
X42423724Y-31253306D01*
X42408419Y-31254644D01*
X42347199Y-31260001D01*
X42340132Y-31261460D01*
X42340120Y-31261404D01*
X42332763Y-31263035D01*
X42332777Y-31263092D01*
X42325743Y-31264759D01*
X42253575Y-31291025D01*
X42180675Y-31315181D01*
X42174126Y-31318236D01*
X42174101Y-31318183D01*
X42167308Y-31321471D01*
X42167334Y-31321523D01*
X42160880Y-31324764D01*
X42096708Y-31366971D01*
X42031347Y-31407285D01*
X42025683Y-31411765D01*
X42025647Y-31411719D01*
X42019798Y-31416484D01*
X42019835Y-31416528D01*
X42014310Y-31421164D01*
X41961598Y-31477034D01*
X41225451Y-32213181D01*
X41164128Y-32246666D01*
X41137770Y-32249500D01*
X38862229Y-32249500D01*
X38795190Y-32229815D01*
X38774548Y-32213181D01*
X36792873Y-30231506D01*
X36561368Y-30000001D01*
X38694532Y-30000001D01*
X38714364Y-30226686D01*
X38714366Y-30226697D01*
X38773258Y-30446488D01*
X38773261Y-30446497D01*
X38869431Y-30652732D01*
X38869432Y-30652734D01*
X38999954Y-30839141D01*
X39160858Y-31000045D01*
X39160861Y-31000047D01*
X39347266Y-31130568D01*
X39553504Y-31226739D01*
X39773308Y-31285635D01*
X39943216Y-31300500D01*
X40056784Y-31300500D01*
X40226692Y-31285635D01*
X40446496Y-31226739D01*
X40652734Y-31130568D01*
X40839139Y-31000047D01*
X41000047Y-30839139D01*
X41130568Y-30652734D01*
X41226739Y-30446496D01*
X41285635Y-30226692D01*
X41305468Y-30000001D01*
X68694532Y-30000001D01*
X68714364Y-30226686D01*
X68714366Y-30226697D01*
X68773258Y-30446488D01*
X68773261Y-30446497D01*
X68869431Y-30652732D01*
X68869432Y-30652734D01*
X68999954Y-30839141D01*
X69160858Y-31000045D01*
X69160861Y-31000047D01*
X69347266Y-31130568D01*
X69553504Y-31226739D01*
X69773308Y-31285635D01*
X69943216Y-31300500D01*
X70056784Y-31300500D01*
X70226692Y-31285635D01*
X70446496Y-31226739D01*
X70652734Y-31130568D01*
X70839139Y-31000047D01*
X71000047Y-30839139D01*
X71130568Y-30652734D01*
X71226739Y-30446496D01*
X71285635Y-30226692D01*
X71305468Y-30000000D01*
X71285635Y-29773308D01*
X71226739Y-29553504D01*
X71130568Y-29347266D01*
X71000047Y-29160861D01*
X71000045Y-29160858D01*
X70839141Y-28999954D01*
X70652734Y-28869432D01*
X70652732Y-28869431D01*
X70446497Y-28773261D01*
X70446488Y-28773258D01*
X70226697Y-28714366D01*
X70226687Y-28714364D01*
X70056784Y-28699500D01*
X69943216Y-28699500D01*
X69773312Y-28714364D01*
X69773302Y-28714366D01*
X69553511Y-28773258D01*
X69553502Y-28773261D01*
X69347267Y-28869431D01*
X69347265Y-28869432D01*
X69160858Y-28999954D01*
X68999954Y-29160858D01*
X68869432Y-29347265D01*
X68869431Y-29347267D01*
X68773261Y-29553502D01*
X68773258Y-29553511D01*
X68714366Y-29773302D01*
X68714364Y-29773313D01*
X68694532Y-29999998D01*
X68694532Y-30000001D01*
X41305468Y-30000001D01*
X41305468Y-30000000D01*
X41285635Y-29773308D01*
X41226739Y-29553504D01*
X41130568Y-29347266D01*
X41000047Y-29160861D01*
X41000045Y-29160858D01*
X40839141Y-28999954D01*
X40652734Y-28869432D01*
X40652732Y-28869431D01*
X40446497Y-28773261D01*
X40446488Y-28773258D01*
X40226697Y-28714366D01*
X40226687Y-28714364D01*
X40056784Y-28699500D01*
X39943216Y-28699500D01*
X39773312Y-28714364D01*
X39773302Y-28714366D01*
X39553511Y-28773258D01*
X39553502Y-28773261D01*
X39347267Y-28869431D01*
X39347265Y-28869432D01*
X39160858Y-28999954D01*
X38999954Y-29160858D01*
X38869432Y-29347265D01*
X38869431Y-29347267D01*
X38773261Y-29553502D01*
X38773258Y-29553511D01*
X38714366Y-29773302D01*
X38714364Y-29773313D01*
X38694532Y-29999998D01*
X38694532Y-30000001D01*
X36561368Y-30000001D01*
X34805729Y-28244361D01*
X34793949Y-28230730D01*
X34786482Y-28220701D01*
X34779612Y-28211472D01*
X34751948Y-28188259D01*
X34739587Y-28177886D01*
X34735612Y-28174244D01*
X34732690Y-28171322D01*
X34729780Y-28168411D01*
X34704040Y-28148059D01*
X34645209Y-28098694D01*
X34639180Y-28094729D01*
X34639212Y-28094680D01*
X34632853Y-28090628D01*
X34632822Y-28090679D01*
X34626680Y-28086891D01*
X34626678Y-28086890D01*
X34626677Y-28086889D01*
X34587474Y-28068608D01*
X34557058Y-28054424D01*
X34522894Y-28037267D01*
X34488433Y-28019960D01*
X34488431Y-28019959D01*
X34488430Y-28019959D01*
X34481645Y-28017489D01*
X34481665Y-28017433D01*
X34474549Y-28014959D01*
X34474531Y-28015015D01*
X34467671Y-28012742D01*
X34439841Y-28006996D01*
X34392434Y-27997207D01*
X34343472Y-27985603D01*
X34317719Y-27979499D01*
X34310547Y-27978661D01*
X34310553Y-27978601D01*
X34303055Y-27977835D01*
X34303050Y-27977895D01*
X34295860Y-27977265D01*
X34219083Y-27979500D01*
X33187701Y-27979500D01*
X33120662Y-27959815D01*
X33086126Y-27926623D01*
X33038494Y-27858597D01*
X32871402Y-27691506D01*
X32871396Y-27691501D01*
X32685842Y-27561575D01*
X32642217Y-27506998D01*
X32635023Y-27437500D01*
X32666546Y-27375145D01*
X32685842Y-27358425D01*
X32730563Y-27327111D01*
X32871401Y-27228495D01*
X33038495Y-27061401D01*
X33086126Y-26993376D01*
X33140704Y-26949751D01*
X33187701Y-26940500D01*
X40327770Y-26940500D01*
X40394809Y-26960185D01*
X40415451Y-26976819D01*
X41924267Y-28485634D01*
X41936048Y-28499266D01*
X41950390Y-28518530D01*
X41990420Y-28552119D01*
X41994392Y-28555759D01*
X42000224Y-28561591D01*
X42000227Y-28561594D01*
X42025947Y-28581931D01*
X42084788Y-28631304D01*
X42090818Y-28635270D01*
X42090785Y-28635319D01*
X42097143Y-28639369D01*
X42097175Y-28639319D01*
X42103320Y-28643109D01*
X42103323Y-28643111D01*
X42172936Y-28675572D01*
X42241567Y-28710040D01*
X42241572Y-28710041D01*
X42248361Y-28712513D01*
X42248340Y-28712570D01*
X42255455Y-28715043D01*
X42255475Y-28714986D01*
X42262330Y-28717258D01*
X42324045Y-28730000D01*
X42337558Y-28732790D01*
X42412279Y-28750500D01*
X42412289Y-28750500D01*
X42419452Y-28751338D01*
X42419444Y-28751397D01*
X42426945Y-28752164D01*
X42426951Y-28752105D01*
X42434140Y-28752734D01*
X42434144Y-28752733D01*
X42434145Y-28752734D01*
X42510918Y-28750500D01*
X42884362Y-28750500D01*
X42951401Y-28770185D01*
X42989899Y-28809401D01*
X43057288Y-28918656D01*
X43181344Y-29042712D01*
X43330666Y-29134814D01*
X43497203Y-29189999D01*
X43599991Y-29200500D01*
X44400008Y-29200499D01*
X44400016Y-29200498D01*
X44400019Y-29200498D01*
X44466919Y-29193664D01*
X44502797Y-29189999D01*
X44669334Y-29134814D01*
X44818656Y-29042712D01*
X44912319Y-28949048D01*
X44973642Y-28915564D01*
X45043334Y-28920548D01*
X45087681Y-28949049D01*
X45181344Y-29042712D01*
X45330666Y-29134814D01*
X45497203Y-29189999D01*
X45599991Y-29200500D01*
X46400008Y-29200499D01*
X46400016Y-29200498D01*
X46400019Y-29200498D01*
X46466919Y-29193664D01*
X46502797Y-29189999D01*
X46669334Y-29134814D01*
X46818656Y-29042712D01*
X46942712Y-28918656D01*
X46973406Y-28868892D01*
X47025351Y-28822169D01*
X47094313Y-28810945D01*
X47129380Y-28820710D01*
X47220192Y-28861142D01*
X47220197Y-28861144D01*
X47405354Y-28900500D01*
X47405355Y-28900500D01*
X47594644Y-28900500D01*
X47594646Y-28900500D01*
X47779803Y-28861144D01*
X47952730Y-28784151D01*
X48105871Y-28672888D01*
X48232533Y-28532216D01*
X48327179Y-28368284D01*
X48385674Y-28188256D01*
X48405460Y-28000000D01*
X48385674Y-27811744D01*
X48327179Y-27631716D01*
X48232533Y-27467784D01*
X48105871Y-27327112D01*
X48105870Y-27327111D01*
X47952734Y-27215851D01*
X47952729Y-27215848D01*
X47779807Y-27138857D01*
X47779802Y-27138855D01*
X47634000Y-27107865D01*
X47594646Y-27099500D01*
X47405354Y-27099500D01*
X47372897Y-27106398D01*
X47220197Y-27138855D01*
X47220192Y-27138857D01*
X47129380Y-27179290D01*
X47060130Y-27188575D01*
X46996853Y-27158947D01*
X46973407Y-27131110D01*
X46942712Y-27081344D01*
X46818656Y-26957288D01*
X46669334Y-26865186D01*
X46502797Y-26810001D01*
X46502795Y-26810000D01*
X46400010Y-26799500D01*
X45599998Y-26799500D01*
X45599980Y-26799501D01*
X45497203Y-26810000D01*
X45497200Y-26810001D01*
X45330668Y-26865185D01*
X45330663Y-26865187D01*
X45181342Y-26957289D01*
X45087681Y-27050951D01*
X45026358Y-27084436D01*
X44956666Y-27079452D01*
X44912319Y-27050951D01*
X44818657Y-26957289D01*
X44818656Y-26957288D01*
X44669334Y-26865186D01*
X44502797Y-26810001D01*
X44502795Y-26810000D01*
X44400010Y-26799500D01*
X43599998Y-26799500D01*
X43599980Y-26799501D01*
X43497203Y-26810000D01*
X43497200Y-26810001D01*
X43330668Y-26865185D01*
X43330663Y-26865187D01*
X43181342Y-26957289D01*
X43057289Y-27081342D01*
X43057287Y-27081344D01*
X43057288Y-27081344D01*
X43009423Y-27158947D01*
X42989901Y-27190597D01*
X42937953Y-27237321D01*
X42884362Y-27249500D01*
X42862229Y-27249500D01*
X42795190Y-27229815D01*
X42774548Y-27213181D01*
X41265729Y-25704361D01*
X41253949Y-25690730D01*
X41246482Y-25680701D01*
X41239612Y-25671472D01*
X41239610Y-25671470D01*
X41199587Y-25637886D01*
X41195612Y-25634244D01*
X41192690Y-25631322D01*
X41189780Y-25628411D01*
X41164040Y-25608059D01*
X41105209Y-25558694D01*
X41099180Y-25554729D01*
X41099212Y-25554680D01*
X41092853Y-25550628D01*
X41092822Y-25550679D01*
X41086680Y-25546891D01*
X41086678Y-25546890D01*
X41086677Y-25546889D01*
X41047474Y-25528608D01*
X41017058Y-25514424D01*
X40982894Y-25497267D01*
X40948433Y-25479960D01*
X40948431Y-25479959D01*
X40948430Y-25479959D01*
X40941645Y-25477489D01*
X40941665Y-25477433D01*
X40934549Y-25474959D01*
X40934531Y-25475015D01*
X40927671Y-25472742D01*
X40899841Y-25466996D01*
X40852434Y-25457207D01*
X40803472Y-25445603D01*
X40777719Y-25439499D01*
X40770547Y-25438661D01*
X40770553Y-25438601D01*
X40763055Y-25437835D01*
X40763050Y-25437895D01*
X40755860Y-25437265D01*
X40679083Y-25439500D01*
X33187701Y-25439500D01*
X33120662Y-25419815D01*
X33086126Y-25386623D01*
X33038494Y-25318597D01*
X32871402Y-25151506D01*
X32871396Y-25151501D01*
X32685842Y-25021575D01*
X32642217Y-24966998D01*
X32635023Y-24897500D01*
X32666546Y-24835145D01*
X32685842Y-24818425D01*
X32708026Y-24802891D01*
X32871401Y-24688495D01*
X33038495Y-24521401D01*
X33086126Y-24453376D01*
X33140704Y-24409751D01*
X33187701Y-24400500D01*
X40287770Y-24400500D01*
X40354809Y-24420185D01*
X40375451Y-24436819D01*
X40924269Y-24985637D01*
X40936049Y-24999268D01*
X40950389Y-25018530D01*
X40950391Y-25018532D01*
X40990409Y-25052110D01*
X40994399Y-25055766D01*
X41000227Y-25061594D01*
X41025947Y-25081931D01*
X41084788Y-25131304D01*
X41090818Y-25135270D01*
X41090785Y-25135319D01*
X41097143Y-25139369D01*
X41097175Y-25139319D01*
X41103320Y-25143109D01*
X41103323Y-25143111D01*
X41172936Y-25175572D01*
X41241567Y-25210040D01*
X41241572Y-25210041D01*
X41248361Y-25212513D01*
X41248340Y-25212570D01*
X41255455Y-25215043D01*
X41255475Y-25214986D01*
X41262330Y-25217258D01*
X41337558Y-25232790D01*
X41412279Y-25250500D01*
X41412289Y-25250500D01*
X41419452Y-25251338D01*
X41419444Y-25251397D01*
X41426945Y-25252164D01*
X41426951Y-25252105D01*
X41434140Y-25252734D01*
X41434144Y-25252733D01*
X41434145Y-25252734D01*
X41510918Y-25250500D01*
X42884362Y-25250500D01*
X42951401Y-25270185D01*
X42989899Y-25309401D01*
X43057288Y-25418656D01*
X43181344Y-25542712D01*
X43330666Y-25634814D01*
X43497203Y-25689999D01*
X43599991Y-25700500D01*
X44400008Y-25700499D01*
X44400016Y-25700498D01*
X44400019Y-25700498D01*
X44456302Y-25694748D01*
X44502797Y-25689999D01*
X44669334Y-25634814D01*
X44818656Y-25542712D01*
X44912322Y-25449045D01*
X44973641Y-25415563D01*
X45043333Y-25420547D01*
X45087676Y-25449044D01*
X45181344Y-25542712D01*
X45330666Y-25634814D01*
X45497203Y-25689999D01*
X45599991Y-25700500D01*
X46400008Y-25700499D01*
X46400016Y-25700498D01*
X46400019Y-25700498D01*
X46456302Y-25694748D01*
X46502797Y-25689999D01*
X46669334Y-25634814D01*
X46818656Y-25542712D01*
X46942712Y-25418656D01*
X46973406Y-25368892D01*
X47025351Y-25322169D01*
X47094313Y-25310945D01*
X47129380Y-25320710D01*
X47220192Y-25361142D01*
X47220197Y-25361144D01*
X47405354Y-25400500D01*
X47405355Y-25400500D01*
X47594644Y-25400500D01*
X47594646Y-25400500D01*
X47779803Y-25361144D01*
X47952730Y-25284151D01*
X48105871Y-25172888D01*
X48232533Y-25032216D01*
X48327179Y-24868284D01*
X48385674Y-24688256D01*
X48405460Y-24500000D01*
X48385674Y-24311744D01*
X48327179Y-24131716D01*
X48232533Y-23967784D01*
X48105871Y-23827112D01*
X48105870Y-23827111D01*
X47952734Y-23715851D01*
X47952729Y-23715848D01*
X47779807Y-23638857D01*
X47779802Y-23638855D01*
X47634000Y-23607865D01*
X47594646Y-23599500D01*
X47405354Y-23599500D01*
X47372897Y-23606398D01*
X47220197Y-23638855D01*
X47220192Y-23638857D01*
X47129380Y-23679290D01*
X47060130Y-23688575D01*
X46996853Y-23658947D01*
X46973407Y-23631110D01*
X46942712Y-23581344D01*
X46818656Y-23457288D01*
X46669334Y-23365186D01*
X46502797Y-23310001D01*
X46502795Y-23310000D01*
X46400010Y-23299500D01*
X45599998Y-23299500D01*
X45599980Y-23299501D01*
X45497203Y-23310000D01*
X45497200Y-23310001D01*
X45330668Y-23365185D01*
X45330663Y-23365187D01*
X45181342Y-23457289D01*
X45087681Y-23550951D01*
X45026358Y-23584436D01*
X44956666Y-23579452D01*
X44912319Y-23550951D01*
X44818657Y-23457289D01*
X44818656Y-23457288D01*
X44669334Y-23365186D01*
X44502797Y-23310001D01*
X44502795Y-23310000D01*
X44400010Y-23299500D01*
X43599998Y-23299500D01*
X43599980Y-23299501D01*
X43497203Y-23310000D01*
X43497200Y-23310001D01*
X43330668Y-23365185D01*
X43330663Y-23365187D01*
X43181342Y-23457289D01*
X43057289Y-23581342D01*
X43057287Y-23581344D01*
X43057288Y-23581344D01*
X43009423Y-23658947D01*
X42989901Y-23690597D01*
X42937953Y-23737321D01*
X42884362Y-23749500D01*
X41862229Y-23749500D01*
X41795190Y-23729815D01*
X41774548Y-23713181D01*
X41225729Y-23164361D01*
X41213949Y-23150730D01*
X41206482Y-23140701D01*
X41199612Y-23131472D01*
X41199610Y-23131470D01*
X41159587Y-23097886D01*
X41155612Y-23094244D01*
X41152690Y-23091322D01*
X41149780Y-23088411D01*
X41124040Y-23068059D01*
X41065209Y-23018694D01*
X41059180Y-23014729D01*
X41059212Y-23014680D01*
X41052853Y-23010628D01*
X41052822Y-23010679D01*
X41046680Y-23006891D01*
X41046678Y-23006890D01*
X41046677Y-23006889D01*
X41007474Y-22988608D01*
X40977058Y-22974424D01*
X40942894Y-22957267D01*
X40908433Y-22939960D01*
X40908431Y-22939959D01*
X40908430Y-22939959D01*
X40901645Y-22937489D01*
X40901665Y-22937433D01*
X40894549Y-22934959D01*
X40894531Y-22935015D01*
X40887671Y-22932742D01*
X40859841Y-22926996D01*
X40812434Y-22917207D01*
X40763472Y-22905603D01*
X40737719Y-22899499D01*
X40730547Y-22898661D01*
X40730553Y-22898601D01*
X40723055Y-22897835D01*
X40723050Y-22897895D01*
X40715860Y-22897265D01*
X40639083Y-22899500D01*
X33187701Y-22899500D01*
X33120662Y-22879815D01*
X33086126Y-22846623D01*
X33038494Y-22778597D01*
X32871402Y-22611506D01*
X32871395Y-22611501D01*
X32677834Y-22475967D01*
X32677830Y-22475965D01*
X32677829Y-22475964D01*
X32463663Y-22376097D01*
X32463659Y-22376096D01*
X32463655Y-22376094D01*
X32235413Y-22314938D01*
X32235403Y-22314936D01*
X32000001Y-22294341D01*
X31999999Y-22294341D01*
X31764596Y-22314936D01*
X31764586Y-22314938D01*
X31536344Y-22376094D01*
X31536335Y-22376098D01*
X31322171Y-22475964D01*
X31322169Y-22475965D01*
X31128597Y-22611505D01*
X30961505Y-22778597D01*
X30825965Y-22972169D01*
X30825964Y-22972171D01*
X30726098Y-23186335D01*
X30726094Y-23186344D01*
X30664938Y-23414586D01*
X30664936Y-23414596D01*
X30644341Y-23649999D01*
X30644341Y-23650000D01*
X30664936Y-23885403D01*
X30664938Y-23885413D01*
X30726094Y-24113655D01*
X30726096Y-24113659D01*
X30726097Y-24113663D01*
X30818462Y-24311740D01*
X30825965Y-24327830D01*
X30825967Y-24327834D01*
X30961501Y-24521395D01*
X30961506Y-24521402D01*
X31128597Y-24688493D01*
X31128603Y-24688498D01*
X31314158Y-24818425D01*
X31357783Y-24873002D01*
X31364977Y-24942500D01*
X31333454Y-25004855D01*
X31314158Y-25021575D01*
X31128597Y-25151505D01*
X30961505Y-25318597D01*
X30825965Y-25512169D01*
X30825964Y-25512171D01*
X30726098Y-25726335D01*
X30726094Y-25726344D01*
X30664938Y-25954586D01*
X30664936Y-25954596D01*
X30644341Y-26189999D01*
X30644341Y-26190000D01*
X30664936Y-26425403D01*
X30664938Y-26425413D01*
X30726094Y-26653655D01*
X30726096Y-26653659D01*
X30726097Y-26653663D01*
X30794102Y-26799500D01*
X30825965Y-26867830D01*
X30825967Y-26867834D01*
X30961501Y-27061395D01*
X30961506Y-27061402D01*
X31128597Y-27228493D01*
X31128603Y-27228498D01*
X31314158Y-27358425D01*
X31357783Y-27413002D01*
X31364977Y-27482500D01*
X31333454Y-27544855D01*
X31314158Y-27561575D01*
X31128597Y-27691505D01*
X30961505Y-27858597D01*
X30825965Y-28052169D01*
X30825964Y-28052171D01*
X30726098Y-28266335D01*
X30726094Y-28266344D01*
X30664938Y-28494586D01*
X30664936Y-28494596D01*
X30644341Y-28729999D01*
X30644341Y-28730000D01*
X30664936Y-28965403D01*
X30664938Y-28965413D01*
X30726094Y-29193655D01*
X30726096Y-29193659D01*
X30726097Y-29193663D01*
X30797724Y-29347267D01*
X30825965Y-29407830D01*
X30825967Y-29407834D01*
X30961501Y-29601395D01*
X30961506Y-29601402D01*
X31128597Y-29768493D01*
X31128603Y-29768498D01*
X31314158Y-29898425D01*
X31357783Y-29953002D01*
X31364977Y-30022500D01*
X31333454Y-30084855D01*
X31314158Y-30101575D01*
X31128597Y-30231505D01*
X30961505Y-30398597D01*
X30825965Y-30592169D01*
X30825964Y-30592171D01*
X30726098Y-30806335D01*
X30726094Y-30806344D01*
X30664938Y-31034586D01*
X30664936Y-31034596D01*
X30644341Y-31269999D01*
X30644341Y-31270000D01*
X30664936Y-31505403D01*
X30664938Y-31505413D01*
X30726094Y-31733655D01*
X30726096Y-31733659D01*
X30726097Y-31733663D01*
X30762505Y-31811740D01*
X30825965Y-31947830D01*
X30825967Y-31947834D01*
X30961501Y-32141395D01*
X30961506Y-32141402D01*
X31128597Y-32308493D01*
X31128603Y-32308498D01*
X31314158Y-32438425D01*
X31357783Y-32493002D01*
X31364977Y-32562500D01*
X31333454Y-32624855D01*
X31314158Y-32641575D01*
X31128597Y-32771505D01*
X30961505Y-32938597D01*
X30825965Y-33132169D01*
X30825964Y-33132171D01*
X30726098Y-33346335D01*
X30726094Y-33346344D01*
X30664938Y-33574586D01*
X30664936Y-33574596D01*
X30644341Y-33809999D01*
X30644341Y-33810000D01*
X30000500Y-33810000D01*
X30000500Y-22002004D01*
X30000632Y-21997979D01*
X30000633Y-21997966D01*
X30005991Y-21916208D01*
X30018986Y-21734536D01*
X30020014Y-21726903D01*
X30043153Y-21610579D01*
X30044118Y-21606141D01*
X30074533Y-21466323D01*
X30076392Y-21459625D01*
X30116815Y-21340543D01*
X30166159Y-21208251D01*
X30168633Y-21202520D01*
X30225583Y-21087036D01*
X30292179Y-20965076D01*
X30295019Y-20960384D01*
X30366563Y-20853311D01*
X30368428Y-20850676D01*
X30450291Y-20741321D01*
X30453244Y-20737678D01*
X30538503Y-20640459D01*
X30541198Y-20637581D01*
X30637581Y-20541198D01*
X30640459Y-20538503D01*
X30737678Y-20453244D01*
X30741321Y-20450291D01*
X30850676Y-20368428D01*
X30853311Y-20366563D01*
X30960384Y-20295019D01*
X30965076Y-20292179D01*
X31087036Y-20225583D01*
X31202520Y-20168633D01*
X31208251Y-20166159D01*
X31340543Y-20116815D01*
X31459625Y-20076392D01*
X31466323Y-20074533D01*
X31610548Y-20043158D01*
X31726903Y-20020014D01*
X31734536Y-20018986D01*
X31916244Y-20005989D01*
X31969211Y-20002517D01*
X31997981Y-20000633D01*
X32002036Y-20000500D01*
X77997964Y-20000500D01*
X78002019Y-20000633D01*
G37*
%TD.AperFunction*%
%TD*%
M02*
