%TF.GenerationSoftware,KiCad,Pcbnew,7.0.7*%
%TF.CreationDate,2023-09-05T11:40:51+02:00*%
%TF.ProjectId,tle5010-11_pcb,746c6535-3031-4302-9d31-315f7063622e,rev?*%
%TF.SameCoordinates,Original*%
%TF.FileFunction,Legend,Top*%
%TF.FilePolarity,Positive*%
%FSLAX46Y46*%
G04 Gerber Fmt 4.6, Leading zero omitted, Abs format (unit mm)*
G04 Created by KiCad (PCBNEW 7.0.7) date 2023-09-05 11:40:51*
%MOMM*%
%LPD*%
G01*
G04 APERTURE LIST*
%ADD10C,0.200000*%
%ADD11C,0.150000*%
%ADD12C,0.120000*%
G04 APERTURE END LIST*
D10*
X60869673Y-21232219D02*
X60869673Y-22041742D01*
X60869673Y-22041742D02*
X60917292Y-22136980D01*
X60917292Y-22136980D02*
X60964911Y-22184600D01*
X60964911Y-22184600D02*
X61060149Y-22232219D01*
X61060149Y-22232219D02*
X61250625Y-22232219D01*
X61250625Y-22232219D02*
X61345863Y-22184600D01*
X61345863Y-22184600D02*
X61393482Y-22136980D01*
X61393482Y-22136980D02*
X61441101Y-22041742D01*
X61441101Y-22041742D02*
X61441101Y-21232219D01*
X62441101Y-22232219D02*
X61869673Y-22232219D01*
X62155387Y-22232219D02*
X62155387Y-21232219D01*
X62155387Y-21232219D02*
X62060149Y-21375076D01*
X62060149Y-21375076D02*
X61964911Y-21470314D01*
X61964911Y-21470314D02*
X61869673Y-21517933D01*
X62869673Y-22136980D02*
X62917292Y-22184600D01*
X62917292Y-22184600D02*
X62869673Y-22232219D01*
X62869673Y-22232219D02*
X62822054Y-22184600D01*
X62822054Y-22184600D02*
X62869673Y-22136980D01*
X62869673Y-22136980D02*
X62869673Y-22232219D01*
X62869673Y-21613171D02*
X62917292Y-21660790D01*
X62917292Y-21660790D02*
X62869673Y-21708409D01*
X62869673Y-21708409D02*
X62822054Y-21660790D01*
X62822054Y-21660790D02*
X62869673Y-21613171D01*
X62869673Y-21613171D02*
X62869673Y-21708409D01*
X63964911Y-21232219D02*
X64536339Y-21232219D01*
X64250625Y-22232219D02*
X64250625Y-21232219D01*
X65345863Y-22232219D02*
X64869673Y-22232219D01*
X64869673Y-22232219D02*
X64869673Y-21232219D01*
X65679197Y-21708409D02*
X66012530Y-21708409D01*
X66155387Y-22232219D02*
X65679197Y-22232219D01*
X65679197Y-22232219D02*
X65679197Y-21232219D01*
X65679197Y-21232219D02*
X66155387Y-21232219D01*
X67060149Y-21232219D02*
X66583959Y-21232219D01*
X66583959Y-21232219D02*
X66536340Y-21708409D01*
X66536340Y-21708409D02*
X66583959Y-21660790D01*
X66583959Y-21660790D02*
X66679197Y-21613171D01*
X66679197Y-21613171D02*
X66917292Y-21613171D01*
X66917292Y-21613171D02*
X67012530Y-21660790D01*
X67012530Y-21660790D02*
X67060149Y-21708409D01*
X67060149Y-21708409D02*
X67107768Y-21803647D01*
X67107768Y-21803647D02*
X67107768Y-22041742D01*
X67107768Y-22041742D02*
X67060149Y-22136980D01*
X67060149Y-22136980D02*
X67012530Y-22184600D01*
X67012530Y-22184600D02*
X66917292Y-22232219D01*
X66917292Y-22232219D02*
X66679197Y-22232219D01*
X66679197Y-22232219D02*
X66583959Y-22184600D01*
X66583959Y-22184600D02*
X66536340Y-22136980D01*
X67726816Y-21232219D02*
X67822054Y-21232219D01*
X67822054Y-21232219D02*
X67917292Y-21279838D01*
X67917292Y-21279838D02*
X67964911Y-21327457D01*
X67964911Y-21327457D02*
X68012530Y-21422695D01*
X68012530Y-21422695D02*
X68060149Y-21613171D01*
X68060149Y-21613171D02*
X68060149Y-21851266D01*
X68060149Y-21851266D02*
X68012530Y-22041742D01*
X68012530Y-22041742D02*
X67964911Y-22136980D01*
X67964911Y-22136980D02*
X67917292Y-22184600D01*
X67917292Y-22184600D02*
X67822054Y-22232219D01*
X67822054Y-22232219D02*
X67726816Y-22232219D01*
X67726816Y-22232219D02*
X67631578Y-22184600D01*
X67631578Y-22184600D02*
X67583959Y-22136980D01*
X67583959Y-22136980D02*
X67536340Y-22041742D01*
X67536340Y-22041742D02*
X67488721Y-21851266D01*
X67488721Y-21851266D02*
X67488721Y-21613171D01*
X67488721Y-21613171D02*
X67536340Y-21422695D01*
X67536340Y-21422695D02*
X67583959Y-21327457D01*
X67583959Y-21327457D02*
X67631578Y-21279838D01*
X67631578Y-21279838D02*
X67726816Y-21232219D01*
X69012530Y-22232219D02*
X68441102Y-22232219D01*
X68726816Y-22232219D02*
X68726816Y-21232219D01*
X68726816Y-21232219D02*
X68631578Y-21375076D01*
X68631578Y-21375076D02*
X68536340Y-21470314D01*
X68536340Y-21470314D02*
X68441102Y-21517933D01*
X69631578Y-21232219D02*
X69726816Y-21232219D01*
X69726816Y-21232219D02*
X69822054Y-21279838D01*
X69822054Y-21279838D02*
X69869673Y-21327457D01*
X69869673Y-21327457D02*
X69917292Y-21422695D01*
X69917292Y-21422695D02*
X69964911Y-21613171D01*
X69964911Y-21613171D02*
X69964911Y-21851266D01*
X69964911Y-21851266D02*
X69917292Y-22041742D01*
X69917292Y-22041742D02*
X69869673Y-22136980D01*
X69869673Y-22136980D02*
X69822054Y-22184600D01*
X69822054Y-22184600D02*
X69726816Y-22232219D01*
X69726816Y-22232219D02*
X69631578Y-22232219D01*
X69631578Y-22232219D02*
X69536340Y-22184600D01*
X69536340Y-22184600D02*
X69488721Y-22136980D01*
X69488721Y-22136980D02*
X69441102Y-22041742D01*
X69441102Y-22041742D02*
X69393483Y-21851266D01*
X69393483Y-21851266D02*
X69393483Y-21613171D01*
X69393483Y-21613171D02*
X69441102Y-21422695D01*
X69441102Y-21422695D02*
X69488721Y-21327457D01*
X69488721Y-21327457D02*
X69536340Y-21279838D01*
X69536340Y-21279838D02*
X69631578Y-21232219D01*
X71107768Y-21184600D02*
X70250626Y-22470314D01*
X71917292Y-21232219D02*
X71441102Y-21232219D01*
X71441102Y-21232219D02*
X71393483Y-21708409D01*
X71393483Y-21708409D02*
X71441102Y-21660790D01*
X71441102Y-21660790D02*
X71536340Y-21613171D01*
X71536340Y-21613171D02*
X71774435Y-21613171D01*
X71774435Y-21613171D02*
X71869673Y-21660790D01*
X71869673Y-21660790D02*
X71917292Y-21708409D01*
X71917292Y-21708409D02*
X71964911Y-21803647D01*
X71964911Y-21803647D02*
X71964911Y-22041742D01*
X71964911Y-22041742D02*
X71917292Y-22136980D01*
X71917292Y-22136980D02*
X71869673Y-22184600D01*
X71869673Y-22184600D02*
X71774435Y-22232219D01*
X71774435Y-22232219D02*
X71536340Y-22232219D01*
X71536340Y-22232219D02*
X71441102Y-22184600D01*
X71441102Y-22184600D02*
X71393483Y-22136980D01*
X72583959Y-21232219D02*
X72679197Y-21232219D01*
X72679197Y-21232219D02*
X72774435Y-21279838D01*
X72774435Y-21279838D02*
X72822054Y-21327457D01*
X72822054Y-21327457D02*
X72869673Y-21422695D01*
X72869673Y-21422695D02*
X72917292Y-21613171D01*
X72917292Y-21613171D02*
X72917292Y-21851266D01*
X72917292Y-21851266D02*
X72869673Y-22041742D01*
X72869673Y-22041742D02*
X72822054Y-22136980D01*
X72822054Y-22136980D02*
X72774435Y-22184600D01*
X72774435Y-22184600D02*
X72679197Y-22232219D01*
X72679197Y-22232219D02*
X72583959Y-22232219D01*
X72583959Y-22232219D02*
X72488721Y-22184600D01*
X72488721Y-22184600D02*
X72441102Y-22136980D01*
X72441102Y-22136980D02*
X72393483Y-22041742D01*
X72393483Y-22041742D02*
X72345864Y-21851266D01*
X72345864Y-21851266D02*
X72345864Y-21613171D01*
X72345864Y-21613171D02*
X72393483Y-21422695D01*
X72393483Y-21422695D02*
X72441102Y-21327457D01*
X72441102Y-21327457D02*
X72488721Y-21279838D01*
X72488721Y-21279838D02*
X72583959Y-21232219D01*
X73869673Y-22232219D02*
X73298245Y-22232219D01*
X73583959Y-22232219D02*
X73583959Y-21232219D01*
X73583959Y-21232219D02*
X73488721Y-21375076D01*
X73488721Y-21375076D02*
X73393483Y-21470314D01*
X73393483Y-21470314D02*
X73298245Y-21517933D01*
X74822054Y-22232219D02*
X74250626Y-22232219D01*
X74536340Y-22232219D02*
X74536340Y-21232219D01*
X74536340Y-21232219D02*
X74441102Y-21375076D01*
X74441102Y-21375076D02*
X74345864Y-21470314D01*
X74345864Y-21470314D02*
X74250626Y-21517933D01*
X61441101Y-23842219D02*
X61107768Y-23366028D01*
X60869673Y-23842219D02*
X60869673Y-22842219D01*
X60869673Y-22842219D02*
X61250625Y-22842219D01*
X61250625Y-22842219D02*
X61345863Y-22889838D01*
X61345863Y-22889838D02*
X61393482Y-22937457D01*
X61393482Y-22937457D02*
X61441101Y-23032695D01*
X61441101Y-23032695D02*
X61441101Y-23175552D01*
X61441101Y-23175552D02*
X61393482Y-23270790D01*
X61393482Y-23270790D02*
X61345863Y-23318409D01*
X61345863Y-23318409D02*
X61250625Y-23366028D01*
X61250625Y-23366028D02*
X60869673Y-23366028D01*
X62345863Y-22842219D02*
X61869673Y-22842219D01*
X61869673Y-22842219D02*
X61822054Y-23318409D01*
X61822054Y-23318409D02*
X61869673Y-23270790D01*
X61869673Y-23270790D02*
X61964911Y-23223171D01*
X61964911Y-23223171D02*
X62203006Y-23223171D01*
X62203006Y-23223171D02*
X62298244Y-23270790D01*
X62298244Y-23270790D02*
X62345863Y-23318409D01*
X62345863Y-23318409D02*
X62393482Y-23413647D01*
X62393482Y-23413647D02*
X62393482Y-23651742D01*
X62393482Y-23651742D02*
X62345863Y-23746980D01*
X62345863Y-23746980D02*
X62298244Y-23794600D01*
X62298244Y-23794600D02*
X62203006Y-23842219D01*
X62203006Y-23842219D02*
X61964911Y-23842219D01*
X61964911Y-23842219D02*
X61869673Y-23794600D01*
X61869673Y-23794600D02*
X61822054Y-23746980D01*
X62822054Y-23746980D02*
X62869673Y-23794600D01*
X62869673Y-23794600D02*
X62822054Y-23842219D01*
X62822054Y-23842219D02*
X62774435Y-23794600D01*
X62774435Y-23794600D02*
X62822054Y-23746980D01*
X62822054Y-23746980D02*
X62822054Y-23842219D01*
X62822054Y-23223171D02*
X62869673Y-23270790D01*
X62869673Y-23270790D02*
X62822054Y-23318409D01*
X62822054Y-23318409D02*
X62774435Y-23270790D01*
X62774435Y-23270790D02*
X62822054Y-23223171D01*
X62822054Y-23223171D02*
X62822054Y-23318409D01*
X64583958Y-23842219D02*
X64012530Y-23842219D01*
X64298244Y-23842219D02*
X64298244Y-22842219D01*
X64298244Y-22842219D02*
X64203006Y-22985076D01*
X64203006Y-22985076D02*
X64107768Y-23080314D01*
X64107768Y-23080314D02*
X64012530Y-23127933D01*
X65012530Y-23842219D02*
X65012530Y-22842219D01*
X65583958Y-23842219D02*
X65155387Y-23270790D01*
X65583958Y-22842219D02*
X65012530Y-23413647D01*
X61441101Y-25452219D02*
X61107768Y-24976028D01*
X60869673Y-25452219D02*
X60869673Y-24452219D01*
X60869673Y-24452219D02*
X61250625Y-24452219D01*
X61250625Y-24452219D02*
X61345863Y-24499838D01*
X61345863Y-24499838D02*
X61393482Y-24547457D01*
X61393482Y-24547457D02*
X61441101Y-24642695D01*
X61441101Y-24642695D02*
X61441101Y-24785552D01*
X61441101Y-24785552D02*
X61393482Y-24880790D01*
X61393482Y-24880790D02*
X61345863Y-24928409D01*
X61345863Y-24928409D02*
X61250625Y-24976028D01*
X61250625Y-24976028D02*
X60869673Y-24976028D01*
X62298244Y-24452219D02*
X62107768Y-24452219D01*
X62107768Y-24452219D02*
X62012530Y-24499838D01*
X62012530Y-24499838D02*
X61964911Y-24547457D01*
X61964911Y-24547457D02*
X61869673Y-24690314D01*
X61869673Y-24690314D02*
X61822054Y-24880790D01*
X61822054Y-24880790D02*
X61822054Y-25261742D01*
X61822054Y-25261742D02*
X61869673Y-25356980D01*
X61869673Y-25356980D02*
X61917292Y-25404600D01*
X61917292Y-25404600D02*
X62012530Y-25452219D01*
X62012530Y-25452219D02*
X62203006Y-25452219D01*
X62203006Y-25452219D02*
X62298244Y-25404600D01*
X62298244Y-25404600D02*
X62345863Y-25356980D01*
X62345863Y-25356980D02*
X62393482Y-25261742D01*
X62393482Y-25261742D02*
X62393482Y-25023647D01*
X62393482Y-25023647D02*
X62345863Y-24928409D01*
X62345863Y-24928409D02*
X62298244Y-24880790D01*
X62298244Y-24880790D02*
X62203006Y-24833171D01*
X62203006Y-24833171D02*
X62012530Y-24833171D01*
X62012530Y-24833171D02*
X61917292Y-24880790D01*
X61917292Y-24880790D02*
X61869673Y-24928409D01*
X61869673Y-24928409D02*
X61822054Y-25023647D01*
X62822054Y-25356980D02*
X62869673Y-25404600D01*
X62869673Y-25404600D02*
X62822054Y-25452219D01*
X62822054Y-25452219D02*
X62774435Y-25404600D01*
X62774435Y-25404600D02*
X62822054Y-25356980D01*
X62822054Y-25356980D02*
X62822054Y-25452219D01*
X62822054Y-24833171D02*
X62869673Y-24880790D01*
X62869673Y-24880790D02*
X62822054Y-24928409D01*
X62822054Y-24928409D02*
X62774435Y-24880790D01*
X62774435Y-24880790D02*
X62822054Y-24833171D01*
X62822054Y-24833171D02*
X62822054Y-24928409D01*
X64583958Y-25452219D02*
X64012530Y-25452219D01*
X64298244Y-25452219D02*
X64298244Y-24452219D01*
X64298244Y-24452219D02*
X64203006Y-24595076D01*
X64203006Y-24595076D02*
X64107768Y-24690314D01*
X64107768Y-24690314D02*
X64012530Y-24737933D01*
X65012530Y-25452219D02*
X65012530Y-24452219D01*
X65583958Y-25452219D02*
X65155387Y-24880790D01*
X65583958Y-24452219D02*
X65012530Y-25023647D01*
X61441101Y-26966980D02*
X61393482Y-27014600D01*
X61393482Y-27014600D02*
X61250625Y-27062219D01*
X61250625Y-27062219D02*
X61155387Y-27062219D01*
X61155387Y-27062219D02*
X61012530Y-27014600D01*
X61012530Y-27014600D02*
X60917292Y-26919361D01*
X60917292Y-26919361D02*
X60869673Y-26824123D01*
X60869673Y-26824123D02*
X60822054Y-26633647D01*
X60822054Y-26633647D02*
X60822054Y-26490790D01*
X60822054Y-26490790D02*
X60869673Y-26300314D01*
X60869673Y-26300314D02*
X60917292Y-26205076D01*
X60917292Y-26205076D02*
X61012530Y-26109838D01*
X61012530Y-26109838D02*
X61155387Y-26062219D01*
X61155387Y-26062219D02*
X61250625Y-26062219D01*
X61250625Y-26062219D02*
X61393482Y-26109838D01*
X61393482Y-26109838D02*
X61441101Y-26157457D01*
X62393482Y-27062219D02*
X61822054Y-27062219D01*
X62107768Y-27062219D02*
X62107768Y-26062219D01*
X62107768Y-26062219D02*
X62012530Y-26205076D01*
X62012530Y-26205076D02*
X61917292Y-26300314D01*
X61917292Y-26300314D02*
X61822054Y-26347933D01*
X62822054Y-26966980D02*
X62869673Y-27014600D01*
X62869673Y-27014600D02*
X62822054Y-27062219D01*
X62822054Y-27062219D02*
X62774435Y-27014600D01*
X62774435Y-27014600D02*
X62822054Y-26966980D01*
X62822054Y-26966980D02*
X62822054Y-27062219D01*
X62822054Y-26443171D02*
X62869673Y-26490790D01*
X62869673Y-26490790D02*
X62822054Y-26538409D01*
X62822054Y-26538409D02*
X62774435Y-26490790D01*
X62774435Y-26490790D02*
X62822054Y-26443171D01*
X62822054Y-26443171D02*
X62822054Y-26538409D01*
X64250625Y-26062219D02*
X64345863Y-26062219D01*
X64345863Y-26062219D02*
X64441101Y-26109838D01*
X64441101Y-26109838D02*
X64488720Y-26157457D01*
X64488720Y-26157457D02*
X64536339Y-26252695D01*
X64536339Y-26252695D02*
X64583958Y-26443171D01*
X64583958Y-26443171D02*
X64583958Y-26681266D01*
X64583958Y-26681266D02*
X64536339Y-26871742D01*
X64536339Y-26871742D02*
X64488720Y-26966980D01*
X64488720Y-26966980D02*
X64441101Y-27014600D01*
X64441101Y-27014600D02*
X64345863Y-27062219D01*
X64345863Y-27062219D02*
X64250625Y-27062219D01*
X64250625Y-27062219D02*
X64155387Y-27014600D01*
X64155387Y-27014600D02*
X64107768Y-26966980D01*
X64107768Y-26966980D02*
X64060149Y-26871742D01*
X64060149Y-26871742D02*
X64012530Y-26681266D01*
X64012530Y-26681266D02*
X64012530Y-26443171D01*
X64012530Y-26443171D02*
X64060149Y-26252695D01*
X64060149Y-26252695D02*
X64107768Y-26157457D01*
X64107768Y-26157457D02*
X64155387Y-26109838D01*
X64155387Y-26109838D02*
X64250625Y-26062219D01*
X65012530Y-26966980D02*
X65060149Y-27014600D01*
X65060149Y-27014600D02*
X65012530Y-27062219D01*
X65012530Y-27062219D02*
X64964911Y-27014600D01*
X64964911Y-27014600D02*
X65012530Y-26966980D01*
X65012530Y-26966980D02*
X65012530Y-27062219D01*
X66012529Y-27062219D02*
X65441101Y-27062219D01*
X65726815Y-27062219D02*
X65726815Y-26062219D01*
X65726815Y-26062219D02*
X65631577Y-26205076D01*
X65631577Y-26205076D02*
X65536339Y-26300314D01*
X65536339Y-26300314D02*
X65441101Y-26347933D01*
X66869672Y-26395552D02*
X66869672Y-27062219D01*
X66441101Y-26395552D02*
X66441101Y-26919361D01*
X66441101Y-26919361D02*
X66488720Y-27014600D01*
X66488720Y-27014600D02*
X66583958Y-27062219D01*
X66583958Y-27062219D02*
X66726815Y-27062219D01*
X66726815Y-27062219D02*
X66822053Y-27014600D01*
X66822053Y-27014600D02*
X66869672Y-26966980D01*
X67679196Y-26538409D02*
X67345863Y-26538409D01*
X67345863Y-27062219D02*
X67345863Y-26062219D01*
X67345863Y-26062219D02*
X67822053Y-26062219D01*
X61441101Y-28576980D02*
X61393482Y-28624600D01*
X61393482Y-28624600D02*
X61250625Y-28672219D01*
X61250625Y-28672219D02*
X61155387Y-28672219D01*
X61155387Y-28672219D02*
X61012530Y-28624600D01*
X61012530Y-28624600D02*
X60917292Y-28529361D01*
X60917292Y-28529361D02*
X60869673Y-28434123D01*
X60869673Y-28434123D02*
X60822054Y-28243647D01*
X60822054Y-28243647D02*
X60822054Y-28100790D01*
X60822054Y-28100790D02*
X60869673Y-27910314D01*
X60869673Y-27910314D02*
X60917292Y-27815076D01*
X60917292Y-27815076D02*
X61012530Y-27719838D01*
X61012530Y-27719838D02*
X61155387Y-27672219D01*
X61155387Y-27672219D02*
X61250625Y-27672219D01*
X61250625Y-27672219D02*
X61393482Y-27719838D01*
X61393482Y-27719838D02*
X61441101Y-27767457D01*
X61822054Y-27767457D02*
X61869673Y-27719838D01*
X61869673Y-27719838D02*
X61964911Y-27672219D01*
X61964911Y-27672219D02*
X62203006Y-27672219D01*
X62203006Y-27672219D02*
X62298244Y-27719838D01*
X62298244Y-27719838D02*
X62345863Y-27767457D01*
X62345863Y-27767457D02*
X62393482Y-27862695D01*
X62393482Y-27862695D02*
X62393482Y-27957933D01*
X62393482Y-27957933D02*
X62345863Y-28100790D01*
X62345863Y-28100790D02*
X61774435Y-28672219D01*
X61774435Y-28672219D02*
X62393482Y-28672219D01*
X62822054Y-28576980D02*
X62869673Y-28624600D01*
X62869673Y-28624600D02*
X62822054Y-28672219D01*
X62822054Y-28672219D02*
X62774435Y-28624600D01*
X62774435Y-28624600D02*
X62822054Y-28576980D01*
X62822054Y-28576980D02*
X62822054Y-28672219D01*
X62822054Y-28053171D02*
X62869673Y-28100790D01*
X62869673Y-28100790D02*
X62822054Y-28148409D01*
X62822054Y-28148409D02*
X62774435Y-28100790D01*
X62774435Y-28100790D02*
X62822054Y-28053171D01*
X62822054Y-28053171D02*
X62822054Y-28148409D01*
X64583958Y-28672219D02*
X64012530Y-28672219D01*
X64298244Y-28672219D02*
X64298244Y-27672219D01*
X64298244Y-27672219D02*
X64203006Y-27815076D01*
X64203006Y-27815076D02*
X64107768Y-27910314D01*
X64107768Y-27910314D02*
X64012530Y-27957933D01*
X65203006Y-27672219D02*
X65298244Y-27672219D01*
X65298244Y-27672219D02*
X65393482Y-27719838D01*
X65393482Y-27719838D02*
X65441101Y-27767457D01*
X65441101Y-27767457D02*
X65488720Y-27862695D01*
X65488720Y-27862695D02*
X65536339Y-28053171D01*
X65536339Y-28053171D02*
X65536339Y-28291266D01*
X65536339Y-28291266D02*
X65488720Y-28481742D01*
X65488720Y-28481742D02*
X65441101Y-28576980D01*
X65441101Y-28576980D02*
X65393482Y-28624600D01*
X65393482Y-28624600D02*
X65298244Y-28672219D01*
X65298244Y-28672219D02*
X65203006Y-28672219D01*
X65203006Y-28672219D02*
X65107768Y-28624600D01*
X65107768Y-28624600D02*
X65060149Y-28576980D01*
X65060149Y-28576980D02*
X65012530Y-28481742D01*
X65012530Y-28481742D02*
X64964911Y-28291266D01*
X64964911Y-28291266D02*
X64964911Y-28053171D01*
X64964911Y-28053171D02*
X65012530Y-27862695D01*
X65012530Y-27862695D02*
X65060149Y-27767457D01*
X65060149Y-27767457D02*
X65107768Y-27719838D01*
X65107768Y-27719838D02*
X65203006Y-27672219D01*
X66393482Y-28005552D02*
X66393482Y-28672219D01*
X65964911Y-28005552D02*
X65964911Y-28529361D01*
X65964911Y-28529361D02*
X66012530Y-28624600D01*
X66012530Y-28624600D02*
X66107768Y-28672219D01*
X66107768Y-28672219D02*
X66250625Y-28672219D01*
X66250625Y-28672219D02*
X66345863Y-28624600D01*
X66345863Y-28624600D02*
X66393482Y-28576980D01*
X67203006Y-28148409D02*
X66869673Y-28148409D01*
X66869673Y-28672219D02*
X66869673Y-27672219D01*
X66869673Y-27672219D02*
X67345863Y-27672219D01*
D11*
X60833333Y-39359580D02*
X60785714Y-39407200D01*
X60785714Y-39407200D02*
X60642857Y-39454819D01*
X60642857Y-39454819D02*
X60547619Y-39454819D01*
X60547619Y-39454819D02*
X60404762Y-39407200D01*
X60404762Y-39407200D02*
X60309524Y-39311961D01*
X60309524Y-39311961D02*
X60261905Y-39216723D01*
X60261905Y-39216723D02*
X60214286Y-39026247D01*
X60214286Y-39026247D02*
X60214286Y-38883390D01*
X60214286Y-38883390D02*
X60261905Y-38692914D01*
X60261905Y-38692914D02*
X60309524Y-38597676D01*
X60309524Y-38597676D02*
X60404762Y-38502438D01*
X60404762Y-38502438D02*
X60547619Y-38454819D01*
X60547619Y-38454819D02*
X60642857Y-38454819D01*
X60642857Y-38454819D02*
X60785714Y-38502438D01*
X60785714Y-38502438D02*
X60833333Y-38550057D01*
X61214286Y-38550057D02*
X61261905Y-38502438D01*
X61261905Y-38502438D02*
X61357143Y-38454819D01*
X61357143Y-38454819D02*
X61595238Y-38454819D01*
X61595238Y-38454819D02*
X61690476Y-38502438D01*
X61690476Y-38502438D02*
X61738095Y-38550057D01*
X61738095Y-38550057D02*
X61785714Y-38645295D01*
X61785714Y-38645295D02*
X61785714Y-38740533D01*
X61785714Y-38740533D02*
X61738095Y-38883390D01*
X61738095Y-38883390D02*
X61166667Y-39454819D01*
X61166667Y-39454819D02*
X61785714Y-39454819D01*
X48833333Y-39454819D02*
X48500000Y-38978628D01*
X48261905Y-39454819D02*
X48261905Y-38454819D01*
X48261905Y-38454819D02*
X48642857Y-38454819D01*
X48642857Y-38454819D02*
X48738095Y-38502438D01*
X48738095Y-38502438D02*
X48785714Y-38550057D01*
X48785714Y-38550057D02*
X48833333Y-38645295D01*
X48833333Y-38645295D02*
X48833333Y-38788152D01*
X48833333Y-38788152D02*
X48785714Y-38883390D01*
X48785714Y-38883390D02*
X48738095Y-38931009D01*
X48738095Y-38931009D02*
X48642857Y-38978628D01*
X48642857Y-38978628D02*
X48261905Y-38978628D01*
X49738095Y-38454819D02*
X49261905Y-38454819D01*
X49261905Y-38454819D02*
X49214286Y-38931009D01*
X49214286Y-38931009D02*
X49261905Y-38883390D01*
X49261905Y-38883390D02*
X49357143Y-38835771D01*
X49357143Y-38835771D02*
X49595238Y-38835771D01*
X49595238Y-38835771D02*
X49690476Y-38883390D01*
X49690476Y-38883390D02*
X49738095Y-38931009D01*
X49738095Y-38931009D02*
X49785714Y-39026247D01*
X49785714Y-39026247D02*
X49785714Y-39264342D01*
X49785714Y-39264342D02*
X49738095Y-39359580D01*
X49738095Y-39359580D02*
X49690476Y-39407200D01*
X49690476Y-39407200D02*
X49595238Y-39454819D01*
X49595238Y-39454819D02*
X49357143Y-39454819D01*
X49357143Y-39454819D02*
X49261905Y-39407200D01*
X49261905Y-39407200D02*
X49214286Y-39359580D01*
X56833333Y-39359580D02*
X56785714Y-39407200D01*
X56785714Y-39407200D02*
X56642857Y-39454819D01*
X56642857Y-39454819D02*
X56547619Y-39454819D01*
X56547619Y-39454819D02*
X56404762Y-39407200D01*
X56404762Y-39407200D02*
X56309524Y-39311961D01*
X56309524Y-39311961D02*
X56261905Y-39216723D01*
X56261905Y-39216723D02*
X56214286Y-39026247D01*
X56214286Y-39026247D02*
X56214286Y-38883390D01*
X56214286Y-38883390D02*
X56261905Y-38692914D01*
X56261905Y-38692914D02*
X56309524Y-38597676D01*
X56309524Y-38597676D02*
X56404762Y-38502438D01*
X56404762Y-38502438D02*
X56547619Y-38454819D01*
X56547619Y-38454819D02*
X56642857Y-38454819D01*
X56642857Y-38454819D02*
X56785714Y-38502438D01*
X56785714Y-38502438D02*
X56833333Y-38550057D01*
X57785714Y-39454819D02*
X57214286Y-39454819D01*
X57500000Y-39454819D02*
X57500000Y-38454819D01*
X57500000Y-38454819D02*
X57404762Y-38597676D01*
X57404762Y-38597676D02*
X57309524Y-38692914D01*
X57309524Y-38692914D02*
X57214286Y-38740533D01*
X52833333Y-39454819D02*
X52500000Y-38978628D01*
X52261905Y-39454819D02*
X52261905Y-38454819D01*
X52261905Y-38454819D02*
X52642857Y-38454819D01*
X52642857Y-38454819D02*
X52738095Y-38502438D01*
X52738095Y-38502438D02*
X52785714Y-38550057D01*
X52785714Y-38550057D02*
X52833333Y-38645295D01*
X52833333Y-38645295D02*
X52833333Y-38788152D01*
X52833333Y-38788152D02*
X52785714Y-38883390D01*
X52785714Y-38883390D02*
X52738095Y-38931009D01*
X52738095Y-38931009D02*
X52642857Y-38978628D01*
X52642857Y-38978628D02*
X52261905Y-38978628D01*
X53690476Y-38454819D02*
X53500000Y-38454819D01*
X53500000Y-38454819D02*
X53404762Y-38502438D01*
X53404762Y-38502438D02*
X53357143Y-38550057D01*
X53357143Y-38550057D02*
X53261905Y-38692914D01*
X53261905Y-38692914D02*
X53214286Y-38883390D01*
X53214286Y-38883390D02*
X53214286Y-39264342D01*
X53214286Y-39264342D02*
X53261905Y-39359580D01*
X53261905Y-39359580D02*
X53309524Y-39407200D01*
X53309524Y-39407200D02*
X53404762Y-39454819D01*
X53404762Y-39454819D02*
X53595238Y-39454819D01*
X53595238Y-39454819D02*
X53690476Y-39407200D01*
X53690476Y-39407200D02*
X53738095Y-39359580D01*
X53738095Y-39359580D02*
X53785714Y-39264342D01*
X53785714Y-39264342D02*
X53785714Y-39026247D01*
X53785714Y-39026247D02*
X53738095Y-38931009D01*
X53738095Y-38931009D02*
X53690476Y-38883390D01*
X53690476Y-38883390D02*
X53595238Y-38835771D01*
X53595238Y-38835771D02*
X53404762Y-38835771D01*
X53404762Y-38835771D02*
X53309524Y-38883390D01*
X53309524Y-38883390D02*
X53261905Y-38931009D01*
X53261905Y-38931009D02*
X53214286Y-39026247D01*
X54238095Y-26054819D02*
X54238095Y-26864342D01*
X54238095Y-26864342D02*
X54285714Y-26959580D01*
X54285714Y-26959580D02*
X54333333Y-27007200D01*
X54333333Y-27007200D02*
X54428571Y-27054819D01*
X54428571Y-27054819D02*
X54619047Y-27054819D01*
X54619047Y-27054819D02*
X54714285Y-27007200D01*
X54714285Y-27007200D02*
X54761904Y-26959580D01*
X54761904Y-26959580D02*
X54809523Y-26864342D01*
X54809523Y-26864342D02*
X54809523Y-26054819D01*
X55809523Y-27054819D02*
X55238095Y-27054819D01*
X55523809Y-27054819D02*
X55523809Y-26054819D01*
X55523809Y-26054819D02*
X55428571Y-26197676D01*
X55428571Y-26197676D02*
X55333333Y-26292914D01*
X55333333Y-26292914D02*
X55238095Y-26340533D01*
D12*
%TO.C,C2*%
X61735000Y-35738748D02*
X61735000Y-36261252D01*
X60265000Y-35738748D02*
X60265000Y-36261252D01*
%TO.C,R5*%
X49735000Y-35772936D02*
X49735000Y-36227064D01*
X48265000Y-35772936D02*
X48265000Y-36227064D01*
%TO.C,C1*%
X57735000Y-35738748D02*
X57735000Y-36261252D01*
X56265000Y-35738748D02*
X56265000Y-36261252D01*
%TO.C,R6*%
X53735000Y-35772936D02*
X53735000Y-36227064D01*
X52265000Y-35772936D02*
X52265000Y-36227064D01*
%TO.C,U1*%
X55000000Y-27440000D02*
X51550000Y-27440000D01*
X55000000Y-27440000D02*
X56950000Y-27440000D01*
X55000000Y-32560000D02*
X53050000Y-32560000D01*
X55000000Y-32560000D02*
X56950000Y-32560000D01*
%TD*%
M02*
